<?xml version="1.0" standalone="no"?>
<!DOCTYPE svg PUBLIC "-//W3C//DTD SVG 20010904//EN"
 "http://www.w3.org/TR/2001/REC-SVG-20010904/DTD/svg10.dtd">
<svg version="1.0" xmlns="http://www.w3.org/2000/svg"
 width="996.000000pt" height="996.000000pt" viewBox="0 0 996.000000 996.000000"
 preserveAspectRatio="xMidYMid meet">
<metadata>
Created by potrace 1.11, written by Peter Selinger 2001-2013
</metadata>
<g transform="translate(0.000000,996.000000) scale(0.100000,-0.100000)"
fill="#000000" stroke="none">
<path d="M5011 9929 c-29 -88 -40 -190 -35 -314 3 -60 7 -163 9 -229 2 -65 6
-121 9 -123 2 -3 20 19 40 49 101 153 105 343 13 588 l-24 65 -12 -36z"/>
<path d="M5195 9927 c-19 -100 -6 -160 52 -240 32 -44 37 -47 52 -33 10 9 23
37 30 64 23 90 -12 167 -101 225 l-27 17 -6 -33z"/>
<path d="M5415 9885 c-19 -65 -25 -170 -13 -233 16 -87 116 -262 150 -262 13
0 8 178 -7 258 -8 37 -21 90 -30 117 -18 52 -74 175 -81 175 -2 0 -11 -25 -19
-55z"/>
<path d="M4817 9891 c-48 -45 -72 -86 -82 -141 -7 -41 2 -120 15 -120 17 0 95
67 118 100 21 30 23 45 20 107 -5 98 -15 106 -71 54z"/>
<path d="M4650 9829 c-90 -75 -168 -161 -208 -232 -48 -85 -66 -223 -38 -292
l11 -28 30 54 c16 30 59 104 97 164 72 116 124 236 135 310 3 25 4 45 2 45 -2
-1 -15 -10 -29 -21z"/>
<path d="M4154 9804 c-9 -46 3 -129 25 -179 10 -22 36 -60 59 -85 55 -62 67
-49 67 73 0 88 -2 95 -32 136 -29 40 -88 91 -104 91 -5 0 -11 -16 -15 -36z"/>
<path d="M3606 9790 c-22 -27 -46 -86 -46 -115 0 -56 43 -119 102 -151 l27
-14 6 43 c15 106 10 137 -31 224 -21 45 -29 47 -58 13z"/>
<path d="M6305 9755 c-27 -63 -36 -147 -21 -210 2 -11 5 -23 5 -28 1 -10 63
22 79 42 36 45 45 66 48 112 2 42 -3 57 -29 96 -18 26 -37 48 -43 50 -6 2 -24
-26 -39 -62z"/>
<path d="M5845 9781 c-35 -16 -92 -69 -96 -89 -11 -56 2 -152 20 -152 19 0 92
62 107 92 18 34 27 121 15 150 -6 16 -9 16 -46 -1z"/>
<path d="M3867 9609 c-62 -132 -42 -307 47 -406 38 -42 124 -99 134 -89 2 2
-10 48 -27 102 -16 55 -41 140 -54 189 -14 50 -39 124 -55 165 l-29 74 -16
-35z"/>
<path d="M6057 9540 c-20 -54 -46 -134 -57 -177 -12 -43 -32 -116 -46 -162
-14 -45 -24 -85 -22 -87 7 -6 82 37 112 65 64 59 106 161 106 256 0 57 -23
157 -43 186 -12 16 -17 8 -50 -81z"/>
<path d="M5267 9548 c-45 -56 -72 -111 -85 -173 -11 -52 -7 -139 7 -177 8 -22
9 -22 40 12 45 49 81 111 95 167 19 73 10 213 -14 213 -5 0 -24 -19 -43 -42z"/>
<path d="M4678 9501 c-61 -64 -90 -134 -93 -221 -1 -41 2 -88 8 -103 l10 -29
39 39 c57 55 98 144 100 218 2 64 -8 135 -20 135 -4 0 -23 -18 -44 -39z"/>
<path d="M3318 9513 c-16 -2 -28 -7 -28 -11 1 -10 337 -259 396 -293 l52 -29
-10 42 c-27 123 -129 241 -238 276 -41 13 -133 21 -172 15z"/>
<path d="M6533 9509 c-92 -17 -162 -64 -220 -149 -32 -48 -77 -159 -68 -168 3
-3 26 6 53 21 56 31 391 279 392 290 0 4 -12 8 -27 8 -16 1 -41 2 -58 3 -16 1
-49 -1 -72 -5z"/>
<path d="M6881 9422 c-38 -60 -61 -132 -61 -195 0 -45 32 -162 50 -180 23 -24
90 149 90 234 0 48 -33 189 -44 189 -2 0 -18 -22 -35 -48z"/>
<path d="M3050 9435 c-40 -106 -39 -216 5 -313 40 -89 48 -92 76 -30 19 42 24
70 24 138 0 77 -3 91 -36 154 -19 38 -40 71 -47 74 -6 2 -16 -8 -22 -23z"/>
<path d="M5811 9413 c-80 -70 -165 -182 -216 -286 -52 -104 -101 -267 -82
-267 18 0 129 111 183 183 54 72 101 163 136 262 22 61 43 155 35 155 -1 0
-27 -21 -56 -47z"/>
<path d="M4084 9403 c-13 -51 -8 -236 9 -319 20 -93 72 -230 115 -299 l29 -47
6 28 c3 16 5 92 3 169 -3 117 -7 154 -30 229 -25 84 -100 251 -117 262 -5 3
-12 -8 -15 -23z"/>
<path d="M2446 9237 c-22 -48 -26 -97 -11 -140 15 -43 80 -112 96 -102 28 18
44 112 27 165 -9 32 -73 110 -89 110 -4 0 -14 -15 -23 -33z"/>
<path d="M7468 9234 c-41 -45 -56 -80 -54 -129 2 -42 23 -115 33 -115 4 0 21
11 38 25 43 32 74 96 69 143 -4 41 -32 112 -45 112 -5 0 -23 -16 -41 -36z"/>
<path d="M3348 9230 c-120 -161 -141 -387 -51 -552 49 -91 213 -231 232 -200
8 14 6 305 -3 348 -3 16 -8 45 -11 64 -9 60 -57 197 -100 288 l-41 86 -26 -34z"/>
<path d="M6567 9183 c-43 -92 -84 -200 -92 -240 -2 -15 -10 -55 -16 -88 -11
-61 -19 -320 -11 -362 6 -30 14 -29 68 8 178 122 257 320 209 524 -16 70 -74
192 -104 219 -17 15 -20 11 -54 -61z"/>
<path d="M4781 9173 c105 -142 381 -503 388 -508 16 -10 14 101 -4 168 -23 87
-61 155 -124 218 -56 55 -146 109 -206 123 -16 4 -38 9 -49 13 -17 5 -17 3 -5
-14z"/>
<path d="M4490 9135 c0 -3 -11 -42 -24 -88 -33 -112 -40 -171 -41 -307 0 -123
6 -180 30 -275 9 -33 17 -68 20 -78 5 -23 57 -171 61 -176 7 -8 45 47 82 119
60 115 77 186 76 320 0 103 -3 125 -32 208 -18 52 -44 115 -59 140 -47 83
-113 162 -113 137z"/>
<path d="M7195 9097 c-232 -125 -342 -296 -362 -565 l-6 -82 36 15 c193 80
325 233 376 435 22 88 36 216 24 223 -5 3 -36 -9 -68 -26z"/>
<path d="M2714 9059 c13 -135 37 -222 88 -321 53 -103 180 -215 305 -269 l46
-19 -5 77 c-13 183 -73 328 -183 439 -69 68 -170 135 -229 150 l-28 7 6 -64z"/>
<path d="M5189 9115 c-1 -6 -1 -14 0 -18 1 -4 3 -27 6 -50 6 -59 11 -90 29
-187 21 -117 46 -259 52 -295 2 -16 6 -41 9 -55 2 -14 7 -49 10 -79 8 -65 13
-92 18 -98 10 -9 51 99 67 177 43 212 -18 417 -182 605 -5 6 -8 6 -9 0z"/>
<path d="M5954 9065 c-65 -20 -100 -42 -148 -97 -73 -84 -110 -199 -139 -433
-2 -16 -5 24 -6 90 -2 78 -5 113 -11 99 -13 -33 -51 -213 -52 -250 -2 -47 -14
-33 -16 18 -5 111 -55 209 -127 249 -15 9 -13 4 7 -17 28 -30 65 -107 73 -152
20 -118 25 -191 20 -367 -2 -110 -6 -209 -9 -220 -2 -11 -5 -24 -5 -29 -1 -5
-12 4 -26 20 l-26 29 32 -85 c86 -234 90 -249 84 -335 -4 -44 -8 -93 -11 -110
-2 -16 -6 -50 -8 -75 -8 -72 -77 -413 -88 -430 -6 -10 -6 1 -2 30 8 52 8 50
-6 115 -12 53 -14 177 -5 235 37 235 40 407 10 502 -10 31 -22 55 -27 52 -5
-3 -6 -9 -3 -14 11 -17 12 -429 1 -512 -10 -76 -22 -121 -23 -86 0 7 -6 45
-13 83 -9 57 -17 154 -20 254 0 8 -2 12 -5 9 -8 -8 -16 -105 -19 -228 -5 -165
-5 -174 -13 -166 -4 3 -8 12 -9 19 -10 64 -27 144 -38 180 -7 23 -12 51 -10
62 2 10 5 50 9 89 3 39 9 96 13 126 9 68 8 255 -2 335 -16 132 -77 340 -108
370 -7 7 -9 6 -5 -1 9 -16 46 -189 52 -244 3 -26 8 -57 11 -71 5 -24 5 -269 0
-321 -3 -37 -16 -48 -16 -15 0 14 -9 72 -19 129 -22 112 -27 147 -37 223 -8
68 -29 150 -69 275 -18 58 -39 134 -47 170 -11 54 -14 60 -18 35 -5 -29 8
-134 30 -245 28 -141 32 -299 11 -410 -19 -100 -19 -104 -20 -122 -2 -37 -20
-16 -31 35 -11 47 -14 105 -24 365 -2 45 -6 85 -9 89 -9 8 -9 9 -12 -177 -2
-136 -5 -166 -28 -240 -15 -47 -44 -142 -64 -212 -21 -71 -40 -128 -44 -128
-3 0 -5 10 -3 23 2 12 5 65 8 117 3 52 8 106 11 120 6 31 33 182 40 230 2 19
8 60 13 90 20 141 5 284 -50 474 -42 148 -45 158 -57 259 l-7 62 -14 -45 c-23
-78 -19 -279 10 -432 9 -46 19 -147 24 -233 4 -68 -13 -144 -64 -300 -27 -82
-56 -178 -66 -213 -9 -34 -18 -61 -19 -60 -4 5 -16 96 -24 182 -12 137 -1 309
30 446 5 25 11 54 14 65 2 11 8 35 14 53 5 18 6 30 2 27 -10 -5 -64 -152 -80
-215 -17 -65 -37 -226 -36 -290 0 -53 -2 -56 -40 -85 -82 -63 -103 -138 -106
-375 -1 -85 -4 -162 -8 -170 -20 -51 -31 311 -17 562 3 59 -9 53 -29 -15 -24
-76 -25 -222 -5 -372 18 -132 25 -375 11 -359 -4 5 -14 43 -21 84 -7 41 -14
84 -16 95 -2 11 -7 40 -10 65 -3 25 -10 72 -14 105 -8 57 -5 423 4 510 7 62 7
354 1 415 -8 69 -40 227 -54 260 -7 19 -10 0 -11 -85 -1 -60 -4 -184 -7 -275
-3 -91 -6 -191 -7 -222 -1 -68 -8 -64 -25 16 -19 85 -75 189 -128 236 -67 59
-158 88 -257 81 -11 0 9 -15 47 -35 155 -79 254 -182 288 -299 7 -26 6 -27
-14 -21 -20 6 -19 5 5 -24 46 -55 68 -140 73 -290 5 -116 13 -242 20 -299 2
-21 9 -78 15 -128 6 -49 13 -108 16 -130 9 -58 11 -95 18 -245 l7 -135 -21 38
c-39 71 -78 212 -109 397 -58 339 -69 375 -86 279 -3 -18 -8 -35 -10 -38 -7
-6 -41 79 -55 139 -14 58 -17 74 -27 158 -3 28 -10 52 -15 52 -5 0 -7 -3 -5
-7 3 -5 8 -51 11 -103 18 -270 23 -315 43 -400 8 -36 17 -74 19 -85 2 -11 13
-67 25 -123 11 -57 19 -106 16 -108 -12 -13 -36 13 -67 74 -38 74 -110 182
-137 203 -20 17 -20 19 31 -123 19 -54 33 -98 31 -98 -2 0 -45 54 -95 121 -56
73 -96 136 -101 157 -7 31 -5 215 5 344 1 20 -1 35 -6 32 -4 -3 -9 -15 -9 -27
-1 -12 -7 12 -14 53 -14 84 -65 222 -95 260 -20 24 -20 24 0 -23 28 -63 50
-182 55 -297 6 -131 20 -276 30 -310 3 -8 -32 21 -78 65 -83 81 -168 135 -242
153 -56 14 -135 22 -135 14 1 -4 26 -26 58 -50 89 -67 191 -160 302 -277 49
-51 47 -52 -51 -16 -31 11 -67 22 -80 25 -13 3 -35 7 -49 11 -14 3 -54 8 -90
11 -36 4 -74 11 -85 16 -31 16 -85 70 -79 80 3 4 0 8 -5 8 -6 0 -11 -4 -11
-10 0 -19 -26 -10 -90 34 -84 58 -113 83 -139 126 -11 19 -21 31 -21 25 0 -15
41 -78 75 -116 45 -51 103 -95 168 -127 l59 -30 -44 -7 c-23 -4 -56 -9 -73
-11 -52 -8 -142 -33 -186 -52 l-43 -18 -85 30 c-79 28 -97 30 -216 31 -121 0
-136 -2 -218 -32 -49 -17 -125 -53 -169 -80 -89 -53 -215 -166 -266 -236 l-33
-46 53 4 c218 20 337 44 539 110 75 25 140 45 143 45 4 0 -3 -10 -15 -22 -25
-27 -79 -108 -104 -158 -21 -42 -11 -33 39 37 69 97 200 188 320 224 38 11 76
23 85 26 11 4 8 -3 -9 -22 l-25 -28 45 25 c46 26 92 43 145 53 137 25 352 25
445 0 112 -30 240 -103 240 -137 0 -4 -19 -8 -42 -9 -161 -3 -447 -84 -668
-190 -130 -62 -264 -138 -256 -146 9 -9 254 59 329 92 70 30 77 31 59 12 -19
-20 -82 -137 -82 -152 0 -10 58 34 150 113 196 169 320 225 488 218 55 -3 68
-7 83 -27 21 -28 149 -277 169 -329 8 -19 16 -39 18 -44 2 -4 -25 8 -60 28
-80 44 -90 45 -52 4 70 -78 80 -92 60 -84 -49 17 -176 46 -331 76 -93 18 -201
43 -239 56 -38 13 -71 22 -73 20 -7 -7 128 -61 271 -108 243 -79 395 -164 512
-285 60 -62 130 -177 159 -260 36 -106 45 -272 21 -394 -56 -274 -257 -570
-504 -738 -116 -79 -336 -175 -442 -194 -14 -3 -43 -10 -65 -15 -45 -12 -77
-18 -144 -28 -25 -3 -57 -8 -71 -10 -84 -13 -257 -19 -565 -19 -417 1 -612 9
-659 29 -30 12 -34 13 -29 0 4 -11 -6 -14 -43 -15 -27 0 -60 -2 -74 -4 -45 -6
-192 -15 -341 -20 -161 -6 -174 -8 -274 -32 -43 -11 -107 -17 -165 -17 -115 1
-387 13 -415 18 -11 2 -49 7 -85 11 -67 8 -85 10 -132 21 -64 13 9 -54 77 -71
17 -4 143 -9 280 -10 232 -2 300 -6 413 -21 42 -6 69 -23 35 -22 -10 0 -61 -3
-113 -6 -52 -3 -183 -8 -290 -11 -173 -4 -252 -10 -395 -31 -57 -8 -178 -35
-193 -43 -7 -4 63 -7 156 -6 l170 1 -46 -66 c-76 -110 -95 -132 -145 -172 -27
-21 -46 -38 -42 -38 3 0 39 15 78 33 93 43 139 84 183 164 43 77 63 91 134 97
30 3 76 9 102 14 60 12 216 15 264 6 l36 -7 -54 -18 c-145 -51 -300 -204 -322
-319 l-7 -35 23 30 c100 132 244 226 459 300 99 33 324 86 333 78 4 -4 -49
-88 -82 -128 -8 -11 21 17 65 63 63 63 88 82 110 83 15 0 35 2 43 3 45 9 309
27 426 30 l92 1 -107 -51 c-111 -55 -216 -124 -291 -194 -93 -87 -228 -114
-393 -81 -89 19 -194 21 -255 5 -55 -15 -139 -61 -197 -109 -36 -30 -23 -32
40 -5 157 67 251 78 337 37 29 -14 67 -37 83 -51 l30 -25 -26 -1 c-35 0 -121
-45 -137 -71 -13 -21 -12 -21 40 -15 62 6 71 8 160 49 60 27 68 33 74 63 6 34
6 34 65 34 l58 0 -30 -52 c-50 -86 -92 -152 -108 -171 -11 -14 -17 -15 -24 -5
-6 9 -7 7 -3 -6 4 -13 -5 -29 -34 -57 -36 -35 -56 -43 -102 -39 -2 0 -43 -14
-93 -31 -98 -34 -153 -44 -188 -35 -18 4 -26 17 -36 55 -24 93 -142 188 -255
207 -21 3 -46 7 -56 9 -16 3 -101 9 -285 20 -39 2 -79 7 -90 10 -20 7 -20 7 0
-9 29 -24 87 -37 184 -42 120 -6 168 -12 226 -32 l50 -17 -66 -5 c-82 -8 -145
-38 -264 -126 -49 -37 -112 -78 -140 -91 l-50 -23 62 4 c50 3 78 12 148 50
177 96 308 92 212 -6 -17 -18 -44 -42 -59 -54 -27 -21 -78 -90 -78 -106 0 -22
178 140 211 192 l16 25 54 -38 c30 -21 78 -55 107 -75 48 -35 59 -38 118 -37
75 0 83 9 -76 -94 -105 -69 -209 -159 -247 -216 -37 -54 -69 -118 -123 -245
-29 -69 -64 -143 -77 -165 l-24 -40 31 35 c17 19 74 104 127 189 138 221 186
266 481 450 l84 52 -36 -47 c-41 -53 -64 -122 -71 -207 -2 -32 -7 -62 -10 -67
-3 -6 -2 -10 3 -10 4 0 9 -21 11 -47 1 -26 4 -49 5 -52 5 -9 19 -159 20 -213
1 -31 4 -44 11 -37 6 6 10 101 10 242 l0 232 27 55 c16 30 60 93 99 139 39 47
76 92 82 101 7 9 47 42 89 74 95 71 154 136 260 286 44 63 78 104 74 90 -33
-122 -45 -212 -51 -390 -3 -74 -8 -178 -11 -230 -4 -52 -7 -103 -7 -112 -2
-37 -98 -50 -264 -35 -78 7 -124 -5 -161 -43 -24 -24 -72 -107 -72 -125 0 -2
24 13 52 35 55 42 109 63 145 56 12 -3 52 -18 90 -35 73 -32 148 -52 158 -43
3 3 5 -2 5 -12 0 -23 -63 -146 -107 -209 -29 -42 -130 -165 -153 -187 -17 -16
-203 -224 -241 -270 -112 -135 -166 -238 -193 -375 -4 -18 8 -2 29 40 45 91
99 162 233 304 60 64 144 157 188 206 43 50 96 108 116 130 37 38 38 38 39 15
1 -14 2 -41 3 -60 3 -50 -8 -79 -89 -214 -39 -67 -81 -144 -93 -172 -20 -49
-41 -145 -29 -134 7 7 127 247 127 254 0 3 29 53 65 112 36 59 66 119 66 133
1 14 2 60 3 102 2 70 5 80 35 117 28 36 79 132 108 202 9 23 11 19 21 -36 13
-76 8 -144 -18 -225 -10 -35 -18 -65 -16 -66 9 -9 61 101 72 152 6 24 5 138 0
180 -2 17 -7 62 -11 100 -4 39 -12 81 -17 95 -15 40 -39 217 -45 336 -4 86 -1
130 12 189 9 42 18 75 20 73 2 -2 6 -38 9 -80 3 -42 17 -112 31 -155 14 -42
25 -83 25 -90 0 -7 4 -13 8 -13 9 0 1 76 -18 155 -12 52 -14 151 -5 195 21
102 38 171 44 174 3 2 5 -30 5 -72 -2 -64 5 -98 37 -200 57 -181 69 -261 64
-437 -2 -82 -6 -166 -10 -185 -9 -53 11 -18 35 60 54 182 40 366 -45 576 l-32
82 41 -26 c40 -25 41 -27 43 -83 1 -57 21 -115 69 -197 40 -67 38 -44 -2 31
-19 36 -36 83 -38 103 -4 47 13 104 32 104 8 0 37 -16 65 -36 l50 -36 -55 78
c-41 59 -71 89 -119 121 -85 55 -109 80 -109 115 0 20 -4 27 -12 22 -7 -4 -1
8 12 27 64 90 106 136 144 156 56 30 68 30 56 -3 -16 -42 -16 -249 0 -239 4 2
7 22 8 43 1 21 14 79 28 128 14 49 28 96 31 105 5 16 110 55 120 45 3 -3 1
-18 -6 -33 -13 -33 -20 -63 -26 -118 -3 -22 -7 -56 -10 -76 -2 -19 -5 -125 -6
-235 -1 -183 -8 -268 -25 -334 -7 -30 36 42 71 119 64 139 75 232 41 357 -17
66 -17 152 0 187 8 15 16 27 17 27 2 0 4 -17 5 -37 3 -32 44 -123 57 -123 2 0
0 14 -5 31 -11 38 -5 172 10 228 11 43 36 61 81 61 16 0 18 -4 10 -17 -21 -41
-45 -213 -29 -213 4 0 8 8 8 17 0 10 11 52 25 93 26 77 57 122 100 144 22 12
41 13 130 7 l30 -2 -25 -17 c-47 -32 -85 -70 -119 -117 l-34 -47 49 35 c27 19
88 55 136 79 l87 46 56 -16 55 -15 -52 -30 c-140 -79 -295 -227 -352 -337 -19
-36 -44 -105 -56 -155 -44 -176 -99 -331 -139 -392 -22 -32 -90 -108 -153
-169 -119 -116 -206 -214 -190 -214 19 0 155 103 213 162 99 100 168 216 214
358 10 30 22 60 27 65 6 6 7 5 4 -5 -2 -8 -7 -55 -10 -105 -18 -263 -61 -369
-212 -522 -50 -51 -97 -93 -105 -94 -8 0 -49 -2 -91 -4 -89 -3 -119 -18 -189
-92 -64 -68 -71 -84 -18 -41 75 62 161 92 196 70 8 -5 -31 -39 -109 -97 -210
-156 -319 -281 -413 -475 -66 -138 -132 -346 -160 -509 -3 -19 -8 -38 -11 -43
-3 -4 -2 -8 3 -8 4 0 21 39 36 88 41 125 144 324 211 407 l24 29 12 -56 c14
-62 15 -55 -46 -245 -13 -40 -25 -89 -28 -110 l-6 -38 10 33 c6 18 34 72 63
120 l52 87 5 -45 c8 -72 0 -260 -15 -340 -6 -32 -15 -118 -19 -185 l-5 -70 24
90 c83 307 91 385 59 540 -24 116 -20 211 12 324 18 63 54 119 114 176 l42 40
-4 -70 c-4 -54 -13 -87 -41 -142 -39 -80 -30 -86 24 -15 58 75 63 90 62 182
l-1 85 57 49 c31 26 103 83 160 125 264 193 294 245 316 551 12 161 42 283 91
376 14 27 27 50 27 51 1 1 1 -44 0 -100 0 -56 5 -138 12 -182 l13 -80 2 105
c3 114 3 108 13 162 8 36 56 163 97 253 11 25 40 63 64 86 93 85 260 199 273
185 3 -3 -2 -8 -11 -12 -26 -10 -101 -122 -129 -194 -29 -73 -42 -127 -52
-210 -4 -30 -11 -56 -15 -58 -5 -2 -27 -16 -49 -32 -59 -43 -86 -103 -105
-235 -12 -80 -38 -147 -82 -216 -39 -60 -149 -309 -137 -309 2 0 24 42 48 94
24 52 66 125 93 163 65 89 78 116 97 199 18 80 62 174 105 224 l30 34 0 -28
c0 -58 -32 -242 -52 -301 -12 -33 -32 -78 -46 -100 -24 -39 -24 -40 -2 -20 31
27 93 111 118 160 24 47 60 165 66 215 3 19 8 109 11 200 l7 165 35 34 c19 18
57 64 85 102 47 65 82 94 57 48 -17 -32 -25 -179 -10 -179 7 0 10 4 6 9 -3 6
4 38 15 73 22 66 83 162 148 236 34 39 42 43 79 41 38 -3 40 -4 32 -26 -20
-52 -54 -110 -101 -169 -47 -61 -88 -144 -88 -181 0 -9 13 3 28 28 16 24 49
62 73 85 25 22 55 54 67 69 l23 29 -6 -32 c-3 -18 -4 -32 -2 -32 2 0 30 51 61
114 51 102 61 114 87 118 16 3 31 3 32 1 2 -2 -10 -31 -28 -65 -17 -35 -53
-124 -79 -199 l-49 -135 -56 -36 c-31 -19 -84 -50 -118 -68 -111 -58 -170
-124 -161 -180 3 -21 3 -21 37 4 19 14 36 24 38 23 2 -2 -4 -28 -13 -57 -12
-40 -27 -63 -62 -94 -119 -106 -172 -168 -193 -223 -9 -25 -7 -24 22 10 38 46
94 99 170 160 61 50 80 82 100 169 12 56 13 58 58 72 51 17 101 27 101 21 0
-3 -25 -72 -56 -155 -67 -179 -60 -171 -335 -364 -199 -140 -281 -207 -372
-304 -33 -34 -68 -62 -79 -62 -46 0 -157 -37 -242 -80 -132 -67 -215 -114
-211 -118 13 -13 235 75 293 117 15 10 53 26 85 34 53 14 56 14 48 -2 -23 -41
-267 -265 -375 -341 -150 -107 -200 -151 -230 -203 -28 -47 -45 -128 -21 -92
8 11 21 29 30 40 14 19 14 18 5 -10 -7 -18 -9 -75 -5 -155 6 -107 4 -139 -14
-217 -12 -51 -21 -96 -20 -100 1 -18 63 126 74 173 13 53 13 83 0 204 -8 72
-9 105 -6 142 2 36 219 229 410 367 82 59 82 55 1 -39 -142 -163 -176 -235
-195 -410 -12 -112 -37 -226 -60 -275 -19 -40 -20 -46 -5 -27 23 28 57 115 64
168 4 22 8 49 10 60 2 12 7 45 11 74 10 78 41 171 72 217 16 23 88 102 160
177 114 116 134 141 139 175 4 25 15 46 28 55 11 7 46 37 76 65 74 68 163 127
295 195 61 31 120 64 132 73 38 26 26 -1 -39 -89 -65 -88 -158 -186 -247 -259
-29 -24 -59 -49 -65 -54 -6 -6 -49 -41 -96 -79 -115 -94 -233 -209 -286 -280
-71 -94 -140 -252 -159 -366 -3 -19 -10 -51 -15 -70 -4 -19 -11 -57 -15 -85
-13 -98 -65 -161 -190 -231 -135 -76 -208 -165 -249 -303 -14 -47 -23 -131
-10 -91 44 132 156 271 273 337 25 14 68 38 94 54 50 30 61 35 54 22 -3 -5 -8
-30 -11 -58 -4 -27 -17 -95 -31 -150 -22 -93 -40 -149 -124 -375 -31 -84 -31
-85 -6 -55 99 118 171 312 235 635 65 327 133 503 250 644 32 38 40 44 35 25
-38 -156 -19 -419 45 -605 23 -65 19 -113 -15 -194 -12 -30 -39 -93 -59 -140
-27 -66 -36 -104 -40 -164 -2 -43 -2 -76 0 -73 2 2 11 30 19 61 17 65 74 190
100 221 9 11 14 15 11 9 -3 -6 -8 -33 -12 -60 -3 -27 -8 -52 -10 -56 -2 -4 -1
-9 4 -12 4 -2 21 47 37 110 15 63 33 113 38 111 5 -1 36 -54 68 -116 l58 -112
-16 -52 c-8 -29 -46 -118 -84 -199 -37 -81 -75 -172 -84 -202 -20 -68 -21
-151 -3 -196 l15 -35 7 80 c10 122 51 256 121 403 69 146 74 147 81 28 4 -67
-17 -182 -47 -260 -26 -68 -2 -42 50 54 48 91 71 168 76 254 6 97 -18 176 -89
306 -90 163 -100 185 -130 280 -30 94 -43 231 -31 325 7 62 11 66 18 20 15
-93 49 -167 96 -210 l22 -19 -22 54 c-85 212 -104 396 -57 553 6 21 23 47 37
58 14 12 42 36 63 54 l36 34 20 -67 c29 -95 51 -183 54 -212 3 -19 -4 -29 -26
-40 -44 -22 -64 -65 -70 -150 -4 -61 -3 -68 5 -35 16 68 31 95 60 110 15 8 30
15 34 15 20 0 -17 -238 -50 -316 -8 -20 -14 -39 -12 -40 7 -7 96 191 111 246
16 57 15 148 -3 205 -60 194 -68 228 -67 281 1 36 6 59 14 61 6 3 12 -2 12
-11 0 -16 157 -326 165 -326 1 0 1 19 -1 43 -2 23 -24 84 -49 135 -25 52 -45
107 -45 123 0 51 33 152 60 179 50 53 76 86 122 155 27 38 48 65 48 59 0 -6
-17 -58 -39 -115 -53 -143 -73 -230 -70 -302 3 -76 13 -114 50 -194 22 -45 29
-71 25 -100 -2 -21 -5 -53 -5 -70 -1 -28 -10 -39 -65 -80 -75 -56 -106 -103
-139 -210 -28 -88 -43 -167 -27 -143 5 8 10 22 10 31 0 34 83 180 132 234 28
31 53 53 56 51 2 -3 -12 -40 -33 -83 -89 -184 -117 -295 -130 -518 -6 -99 9
-64 40 91 29 150 59 218 141 319 69 86 95 134 109 204 l11 54 24 -57 c19 -49
22 -67 16 -127 -10 -113 -30 -150 -121 -221 -48 -39 -99 -98 -91 -106 2 -2 18
4 35 13 30 15 31 15 31 -4 0 -11 -13 -56 -28 -98 -26 -71 -37 -112 -49 -183
-5 -35 -5 -220 1 -248 13 -60 47 -141 78 -185 18 -25 19 -32 7 -60 -26 -67
-110 -229 -160 -309 -29 -46 -58 -94 -66 -108 l-15 -25 18 24 c10 13 50 63 88
110 76 94 149 203 170 252 l13 32 26 -44 c13 -24 29 -53 35 -64 24 -43 10 0
-21 68 -27 58 -32 78 -25 102 4 17 10 64 14 105 10 139 12 156 24 200 14 53
49 117 79 144 l21 19 1 -124 c2 -140 3 -154 13 -224 12 -84 29 -155 37 -155
12 0 57 100 74 165 18 73 26 149 29 277 1 53 4 99 7 102 9 9 55 -39 68 -72 10
-23 12 -62 8 -135 -3 -56 -1 -111 3 -122 l9 -20 2 20 c2 23 3 26 13 82 4 24 8
74 8 111 0 81 -20 133 -82 216 -40 53 -42 59 -46 142 -8 149 -18 186 -168 609
-25 72 -50 155 -56 185 -13 65 -13 181 -1 230 l8 35 8 -30 c11 -40 27 -65 112
-167 97 -118 154 -246 179 -402 3 -21 7 -48 10 -59 2 -11 6 -59 10 -106 4 -47
8 -88 10 -90 2 -2 4 34 5 80 3 258 -7 362 -41 429 -10 20 -49 74 -85 121 -37
46 -78 106 -91 132 l-25 48 38 -25 c40 -26 133 -46 133 -28 0 5 -12 18 -27 27
-47 30 -84 68 -105 110 -39 74 -28 217 22 302 36 61 125 193 130 193 12 0 58
-153 54 -178 -3 -15 -16 -62 -29 -105 -29 -89 -27 -162 4 -232 19 -43 29 -87
51 -215 6 -36 25 -111 41 -167 30 -99 30 -103 15 -154 -9 -29 -16 -73 -16 -98
0 -56 18 -124 30 -116 9 5 26 92 22 108 -1 5 2 6 7 3 9 -6 7 -207 -2 -251 -3
-11 -8 -47 -11 -80 -4 -33 -9 -76 -12 -95 -3 -32 -3 -33 7 -10 34 81 52 218
54 402 1 177 3 189 26 235 44 84 49 69 51 -147 2 -172 -2 -211 -34 -383 l-22
-119 -50 -41 c-67 -56 -89 -109 -93 -219 -1 -49 1 -88 6 -88 8 0 19 41 26 90
8 56 29 101 55 120 38 27 38 27 0 -142 -61 -272 -127 -428 -276 -658 -49 -74
-91 -137 -94 -140 -3 -3 -48 -68 -99 -145 l-92 -140 65 70 c37 39 83 91 104
117 20 26 40 47 43 48 4 0 9 -13 12 -28 3 -15 26 -55 51 -89 56 -77 70 -105
85 -174 6 -31 18 -65 26 -75 13 -17 14 -14 9 31 -9 92 -24 145 -65 242 -22 53
-42 116 -44 141 -2 41 2 53 47 117 28 38 64 91 80 118 16 26 33 45 38 42 4 -3
7 -31 6 -63 -3 -75 4 -92 48 -122 41 -29 63 -76 72 -157 12 -106 22 -89 21 34
l-2 121 -36 53 c-89 130 -89 168 -5 336 60 119 122 273 151 371 17 58 19 61
36 46 9 -8 22 -28 29 -43 15 -38 -8 -137 -60 -251 -65 -146 -78 -198 -71 -295
2 -24 6 -16 21 36 11 37 47 135 80 218 33 83 63 165 67 182 7 38 25 32 38 -13
21 -76 27 -44 10 61 -9 54 -40 150 -70 210 -22 45 -26 63 -20 100 9 63 14 98
20 151 6 53 7 334 1 370 -2 14 -7 52 -11 85 -3 33 -8 69 -11 80 -3 11 11 -10
30 -47 20 -37 64 -107 99 -155 34 -49 66 -93 70 -100 4 -6 -4 -50 -17 -96 -30
-103 -28 -155 9 -297 46 -171 31 -328 -45 -481 -39 -77 -14 -58 30 24 68 124
94 276 68 390 -5 23 -12 53 -14 67 -3 14 -9 41 -14 60 -19 70 -12 132 21 185
l30 48 18 -29 c45 -75 67 -168 76 -314 13 -222 18 -266 27 -275 3 -3 4 106 3
242 -3 276 -12 335 -67 456 -18 40 -57 105 -85 145 l-53 73 26 9 c89 34 134
16 178 -72 25 -51 31 -48 26 12 -5 66 -68 112 -167 124 -29 3 -76 15 -105 26
-45 17 -58 28 -89 77 -114 180 -165 370 -184 689 -3 62 6 47 44 -74 31 -96 32
-107 22 -164 -6 -34 -9 -64 -6 -66 2 -2 7 12 10 32 14 74 14 75 108 -251 26
-89 33 -89 13 1 -9 36 -18 81 -21 99 -5 25 -25 107 -56 222 -1 6 3 28 9 50 22
73 15 119 -32 223 -42 93 -57 137 -62 192 -12 114 5 297 32 334 13 19 14 17
30 -20 8 -21 33 -77 54 -124 54 -120 67 -171 75 -314 2 -37 6 -70 8 -72 2 -2
4 2 4 9 0 6 4 55 8 107 14 168 9 243 -21 346 -22 76 -43 226 -34 244 16 31 69
90 73 83 3 -4 8 -30 12 -58 4 -27 9 -61 11 -75 4 -23 14 -100 19 -145 1 -11 3
-51 4 -90 l2 -70 15 45 c25 80 27 139 6 225 -11 44 -18 82 -16 83 1 2 16 -4
33 -14 42 -25 49 -11 15 32 -49 61 -64 88 -64 114 0 16 32 68 86 140 93 124
154 215 154 229 0 5 8 15 18 22 15 12 16 12 6 -1 -16 -21 -50 -132 -66 -210
-23 -116 -17 -385 13 -554 10 -61 10 -66 -24 -147 -20 -46 -51 -116 -70 -155
-76 -154 -99 -256 -113 -509 -7 -121 0 -140 10 -30 15 152 65 302 126 375 19
23 21 23 15 4 -5 -20 -9 -167 -5 -189 1 -5 10 39 21 98 18 102 71 283 88 300
5 5 13 -12 20 -37 6 -24 31 -108 56 -185 l46 -141 -23 -32 c-13 -18 -52 -69
-88 -113 -36 -44 -75 -96 -87 -115 -35 -58 -60 -150 -66 -240 l-6 -85 19 95
c22 109 73 220 121 265 31 30 31 30 24 5 -10 -32 -15 -190 -6 -190 4 0 13 35
20 78 16 93 26 114 84 170 l45 44 10 -69 c6 -37 9 -120 7 -183 -2 -97 -9 -140
-45 -275 -83 -314 -92 -401 -57 -565 30 -140 26 -247 -15 -379 -53 -172 -143
-294 -321 -436 -119 -95 -173 -179 -200 -313 -14 -67 -15 -211 -2 -287 15 -84
93 -323 94 -289 1 6 -3 34 -9 62 -5 28 -12 73 -15 99 -3 26 -8 64 -11 83 -13
96 -5 267 17 353 8 31 13 36 27 28 48 -26 86 -98 99 -186 21 -143 20 -142 23
-105 2 19 5 49 7 65 8 66 3 156 -10 187 -16 38 -60 84 -88 93 -15 5 -17 10 -9
24 19 36 103 116 200 191 119 91 222 206 275 305 l26 50 -5 -55 c-8 -87 -36
-164 -126 -355 -96 -203 -126 -301 -128 -430 l-1 -70 28 95 c67 224 132 377
250 585 28 50 59 113 68 140 26 79 21 188 -17 340 -34 140 -46 315 -21 315 7
0 55 -89 75 -140 12 -33 -7 89 -24 150 -35 122 -47 189 -45 247 4 76 8 97 49
228 22 73 35 103 39 90 34 -113 102 -400 113 -473 2 -20 9 -59 14 -87 5 -27
12 -70 15 -95 3 -25 10 -74 14 -110 15 -117 10 -145 -57 -280 -96 -195 -136
-388 -103 -495 8 -26 9 -21 10 35 3 139 71 344 146 435 l25 30 1 -60 c7 -259
-12 -533 -39 -576 -10 -15 -65 -77 -123 -138 -158 -167 -214 -273 -258 -490
-31 -153 -25 -160 24 -29 77 208 160 345 294 488 l61 65 -6 -35 c-19 -112 -49
-249 -75 -350 -17 -63 -45 -172 -64 -243 -18 -70 -29 -125 -24 -121 5 3 9 10
9 16 0 21 71 188 153 359 122 254 171 394 193 549 3 23 7 49 9 58 2 9 4 29 4
45 1 35 21 36 21 0 0 -14 3 -24 6 -20 9 9 9 102 0 171 -4 32 -9 172 -11 310
-2 138 -6 269 -10 291 -3 22 -13 81 -21 130 -16 97 -81 404 -91 433 -11 30 45
-27 72 -75 24 -40 28 -56 39 -163 3 -25 10 -72 16 -105 6 -33 12 -147 15 -254
l4 -194 66 -98 c79 -117 117 -212 140 -354 1 -5 3 -39 3 -74 2 -68 7 -75 17
-26 7 33 7 153 1 164 -3 3 -7 26 -11 49 -10 72 -43 162 -102 282 -61 123 -60
121 -48 250 13 139 6 249 -22 340 -3 8 4 4 16 -10 11 -14 32 -61 47 -105 41
-125 51 -125 49 -3 -4 171 -29 259 -103 356 -34 46 -42 65 -52 135 -6 45 -27
140 -45 212 -50 195 -57 270 -40 407 10 79 18 80 31 3 7 -39 15 -83 18 -100 3
-16 8 -43 11 -60 19 -107 70 -322 78 -330 7 -7 8 -6 3 2 -4 7 -9 84 -11 170
-4 158 -12 285 -20 313 -2 8 -6 35 -9 60 -3 25 -8 56 -11 70 -10 51 -19 177
-18 251 1 82 17 165 59 299 14 47 32 112 39 145 13 57 13 54 9 -80 -14 -445
-14 -457 6 -540 10 -45 34 -123 53 -175 37 -107 38 -87 -9 -329 -31 -158 -29
-278 7 -411 5 -19 9 -48 9 -64 0 -16 3 -27 6 -24 3 3 7 75 9 159 4 145 13 274
20 267 2 -2 6 -19 9 -38 14 -87 27 -145 60 -256 54 -183 53 -229 -8 -458 -14
-54 -26 -110 -25 -125 0 -14 3 -19 5 -11 13 39 67 140 75 140 20 0 15 -152 -8
-250 -9 -41 -17 -77 -18 -80 0 -3 -7 -30 -15 -60 -7 -30 -13 -93 -13 -140 1
-100 20 -159 94 -287 60 -103 131 -250 169 -350 32 -84 80 -243 80 -267 0 -8
4 -18 10 -21 9 -6 7 126 -3 170 -15 63 -22 87 -47 150 -16 39 -49 114 -74 169
-93 197 -115 262 -122 351 l-4 50 16 -35 c40 -88 153 -216 284 -320 124 -100
179 -151 201 -192 7 -13 4 -18 -11 -23 -10 -3 -35 -22 -54 -41 -49 -49 -58
-109 -40 -274 8 -78 14 -89 15 -29 0 24 2 52 4 61 2 9 5 34 8 55 6 41 37 117
59 144 7 9 23 21 34 27 20 11 22 8 33 -31 18 -67 22 -106 22 -192 1 -118 -15
-265 -41 -379 -14 -64 7 -27 39 69 88 263 91 443 11 610 -40 84 -57 102 -222
245 -152 132 -236 270 -273 445 -25 125 -28 185 -11 253 25 94 30 138 29 238
0 98 -5 121 -65 349 -21 83 -42 168 -46 190 -9 54 -8 268 2 329 l8 49 45 -44
c64 -63 70 -76 89 -206 4 -24 10 -43 14 -43 9 0 4 160 -5 192 -7 21 -5 20 24
-7 48 -45 99 -156 120 -265 l19 -95 -5 85 c-5 90 -31 182 -66 240 -12 19 -48
66 -80 104 -78 91 -130 173 -129 205 0 14 1 62 2 106 1 44 1 107 0 140 0 33 2
71 5 85 3 14 5 81 6 149 0 128 8 142 28 56 7 -27 37 -102 66 -165 30 -63 63
-147 75 -187 24 -81 22 -71 40 -175 12 -76 31 -110 25 -46 -2 18 -6 61 -9 96
l-6 63 24 -28 c50 -60 98 -190 112 -301 2 -20 6 -52 8 -70 2 -18 7 -36 10 -40
6 -5 2 92 -8 224 -10 113 -49 249 -108 369 -50 100 -93 207 -125 308 -28 90
-26 112 29 352 49 209 53 226 62 226 17 0 155 -196 156 -221 0 -26 -15 -53
-64 -114 -34 -43 -29 -54 15 -32 18 9 33 15 35 14 1 -2 -7 -34 -17 -73 -24
-89 -24 -134 0 -215 l19 -65 1 70 c0 39 2 79 5 90 2 11 7 47 10 80 4 33 9 71
11 85 14 79 17 96 18 108 1 22 13 13 46 -33 37 -52 41 -66 30 -115 -4 -19 -10
-53 -12 -75 -3 -22 -15 -78 -27 -125 -22 -80 -29 -215 -16 -300 2 -14 4 -47 5
-74 2 -72 10 -51 17 40 7 108 25 176 83 307 27 62 51 119 53 127 3 11 9 8 20
-10 21 -32 27 -69 35 -197 7 -129 -6 -200 -62 -323 -24 -52 -45 -108 -46 -125
-3 -37 10 -113 21 -120 4 -3 -1 -37 -12 -77 -29 -110 -77 -322 -73 -326 3 -4
39 109 86 270 13 42 26 75 30 73 3 -3 9 -19 13 -36 11 -55 14 -27 4 33 -9 52
-7 67 22 160 36 117 51 142 45 77 -2 -24 -6 -78 -10 -120 -3 -42 -8 -87 -10
-100 -19 -113 -29 -158 -55 -240 -29 -93 -101 -232 -142 -276 -24 -26 -90 -50
-163 -59 -67 -9 -133 -41 -149 -73 -15 -29 -27 -101 -17 -101 3 0 17 20 30 44
13 25 31 52 41 61 21 19 74 27 103 15 12 -5 30 -11 39 -14 15 -4 10 -17 -35
-78 -28 -40 -67 -105 -85 -145 -56 -121 -64 -180 -67 -451 -3 -245 8 -314 20
-127 11 183 16 250 21 284 9 56 42 154 63 185 l19 29 29 -43 c37 -57 39 -122
6 -265 -40 -179 -22 -304 69 -462 16 -29 31 -53 34 -53 2 0 -8 26 -22 58 -34
74 -42 102 -58 188 -18 99 -12 184 20 289 35 115 36 202 4 308 l-23 77 20 23
c40 44 134 186 159 241 14 31 28 56 30 56 3 0 3 -4 0 -8 -2 -4 -8 -39 -12 -77
-3 -39 -8 -83 -10 -100 -5 -42 -5 -324 0 -360 2 -16 8 -57 12 -90 12 -92 10
-126 -15 -175 -32 -63 -67 -184 -75 -254 -3 -33 -3 -56 1 -52 4 3 8 12 9 19 4
27 24 67 33 67 4 0 11 -14 15 -32 3 -17 35 -105 71 -195 36 -89 70 -185 76
-213 6 -28 13 -49 16 -47 2 3 4 34 4 69 0 70 -16 125 -67 235 -36 77 -62 158
-69 218 -4 30 0 45 21 73 l27 34 37 -113 c40 -121 98 -257 158 -367 31 -57 36
-76 36 -133 0 -60 -3 -70 -38 -119 -21 -29 -44 -67 -51 -84 -16 -39 -21 -226
-6 -226 6 0 10 3 9 7 -10 40 38 203 60 203 4 0 20 11 37 25 27 24 29 30 29
100 0 41 4 75 8 75 4 0 14 -12 22 -27 8 -16 44 -70 81 -122 63 -89 66 -96 60
-135 -4 -23 -27 -92 -51 -153 -42 -107 -48 -129 -58 -233 -5 -40 -4 -43 9 -26
8 10 19 44 26 75 14 68 27 95 85 174 25 34 48 74 51 89 3 15 8 28 12 28 3 -1
23 -23 45 -50 21 -27 67 -79 103 -117 l65 -68 -119 175 c-181 269 -233 349
-233 359 0 5 -4 11 -9 13 -20 7 -122 240 -155 353 -39 134 -80 319 -74 336 6
17 66 -47 72 -78 3 -15 10 -54 16 -85 6 -32 15 -58 20 -58 15 0 4 172 -14 215
-9 21 -41 62 -71 91 l-55 51 -26 149 c-20 111 -26 185 -27 289 -1 185 4 256
17 252 6 -2 23 -28 38 -58 24 -47 27 -62 22 -115 -11 -133 -4 -265 23 -384 7
-36 16 -80 20 -98 3 -18 10 -35 16 -39 6 -4 8 3 4 18 -3 13 -9 53 -13 89 -3
36 -8 68 -11 73 -10 16 -12 258 -3 252 6 -3 10 -17 10 -30 0 -13 5 -36 11 -52
l11 -28 12 30 c19 45 19 131 0 191 -17 54 -17 54 15 162 17 59 36 134 41 167
5 33 12 78 16 100 3 22 13 56 21 75 43 102 48 174 19 261 -37 108 -37 128 -8
211 15 43 29 78 32 78 11 -1 143 -212 157 -252 9 -24 16 -79 17 -124 1 -73 -2
-85 -29 -129 -27 -44 -75 -88 -131 -121 -16 -9 -11 -11 26 -9 56 2 87 12 125
39 l29 21 -32 -59 c-18 -32 -61 -92 -94 -134 -95 -120 -115 -177 -118 -332 -2
-114 0 -263 4 -259 2 2 6 31 9 64 14 134 20 173 37 240 39 152 86 241 185 350
25 28 58 76 74 108 25 53 29 56 33 33 3 -13 6 -60 7 -103 3 -103 -24 -212 -98
-411 -103 -272 -124 -355 -136 -521 -6 -82 -7 -86 -55 -150 -71 -94 -83 -147
-66 -296 4 -38 8 -78 8 -87 -1 -21 14 -24 21 -5 2 6 2 58 -1 114 -4 115 7 163
43 187 14 9 28 15 32 14 4 -2 8 -48 9 -103 3 -179 24 -296 70 -387 36 -70 39
-67 60 49 2 13 7 35 10 50 3 16 8 98 11 183 2 85 5 159 7 164 1 5 17 -10 35
-32 42 -53 69 -133 76 -219 3 -37 7 -84 10 -103 18 -146 18 -145 -8 -196 -34
-68 -44 -111 -12 -49 43 81 44 81 76 17 26 -53 145 -218 235 -327 18 -23 26
-36 -68 122 -50 85 -121 225 -147 289 -11 29 -10 36 13 72 32 51 54 105 67
161 10 44 13 216 5 256 -2 11 -7 40 -11 65 -4 25 -14 61 -22 80 -8 19 -23 65
-33 102 l-18 67 31 -20 c18 -10 35 -19 39 -19 20 0 -20 50 -75 95 -108 89
-125 119 -134 240 -4 60 -2 79 18 124 l23 54 11 -54 c14 -69 40 -118 105 -199
81 -101 119 -179 135 -272 16 -97 30 -156 42 -183 14 -33 14 -26 -3 160 -10
110 -48 243 -103 362 -28 60 -51 114 -51 118 0 14 69 -56 103 -105 17 -24 45
-77 63 -118 41 -94 46 -98 28 -22 -35 149 -77 219 -180 298 -40 31 -42 34 -48
104 -7 70 -6 76 30 153 33 70 38 91 40 165 3 93 -11 155 -80 343 -20 53 -34
97 -32 97 3 0 15 -17 27 -37 29 -48 97 -137 140 -183 33 -35 69 -135 69 -189
0 -14 -20 -68 -44 -120 -37 -80 -72 -200 -52 -180 21 20 166 307 166 327 0 7
6 12 13 9 27 -9 16 -116 -26 -247 -56 -178 -56 -261 0 -392 28 -63 91 -180 78
-143 -24 65 -43 135 -49 170 -3 22 -7 49 -10 61 -4 22 -9 81 -7 102 1 6 7 12
14 12 25 0 66 -55 81 -110 l15 -55 -6 70 c-6 92 -23 131 -66 151 -31 15 -34
20 -30 48 4 33 21 96 55 208 l20 67 34 -31 c19 -17 47 -43 63 -57 26 -23 42
-61 57 -136 6 -26 6 -184 0 -211 -2 -12 -7 -37 -10 -55 -7 -43 -37 -138 -66
-209 l-22 -55 27 25 c37 35 71 105 87 180 16 80 24 54 25 -81 2 -152 -31 -276
-114 -428 -25 -47 -61 -113 -79 -146 -84 -155 -81 -311 11 -495 18 -36 42 -76
53 -89 17 -21 15 -12 -10 65 -32 96 -44 231 -27 292 l10 33 48 -98 c85 -170
140 -358 142 -487 l0 -41 15 40 c36 95 16 184 -94 420 -33 72 -67 154 -76 183
l-15 53 55 107 c31 59 59 111 64 115 12 13 20 -6 50 -126 27 -106 41 -105 21
0 -5 24 -4 40 0 37 22 -13 130 -273 117 -281 -2 -1 0 -4 3 -7 7 -7 3 94 -6
142 -3 18 -22 70 -42 115 -86 201 -90 220 -63 309 28 91 49 191 57 262 12 121
6 299 -13 352 -8 21 42 -37 88 -104 71 -103 145 -298 175 -462 14 -81 77 -355
94 -412 30 -103 77 -206 126 -281 25 -37 47 -66 50 -63 2 2 -20 71 -50 153
-58 157 -94 266 -103 317 -17 93 -30 186 -26 186 2 0 16 -8 30 -18 15 -11 56
-34 92 -53 89 -47 204 -163 253 -255 20 -40 37 -79 37 -88 0 -9 4 -16 9 -16
16 0 -18 122 -53 195 -51 103 -114 160 -257 234 -71 36 -133 122 -144 202 -3
24 -13 78 -21 119 -52 246 -125 383 -291 541 -77 73 -101 93 -278 239 -116 95
-239 220 -298 303 -68 95 -69 104 -7 67 30 -17 90 -50 134 -72 109 -55 197
-116 281 -193 39 -35 73 -65 78 -65 4 0 7 -12 7 -26 0 -30 28 -79 62 -110 72
-65 228 -235 250 -274 29 -51 54 -131 63 -205 4 -27 8 -61 11 -75 2 -14 7 -41
10 -60 8 -47 40 -132 59 -156 14 -16 14 -14 0 14 -20 41 -51 184 -60 275 -7
79 -28 163 -54 221 -19 44 -98 152 -157 216 -73 79 -64 79 38 4 215 -161 387
-319 390 -358 2 -36 1 -59 -8 -131 -16 -129 -10 -202 26 -288 18 -42 36 -77
40 -77 5 0 1 28 -8 62 -12 46 -17 108 -17 228 0 91 -4 172 -8 180 -7 14 -1 6
37 -45 28 -38 -2 66 -32 108 -33 49 -75 85 -220 188 -72 51 -169 135 -252 217
l-135 133 40 -5 c22 -2 89 -30 150 -61 91 -46 242 -102 251 -92 2 1 -25 18
-59 36 -201 110 -281 144 -368 156 -41 6 -55 16 -130 92 -82 84 -215 187 -421
330 -184 127 -198 142 -256 295 -68 182 -68 181 -45 175 10 -3 43 -12 74 -21
l56 -16 11 -55 c18 -88 39 -121 123 -190 74 -61 106 -93 158 -155 l21 -25 -10
29 c-19 52 -68 109 -197 227 -41 38 -53 56 -61 95 -6 27 -9 50 -8 51 1 2 18
-9 37 -23 33 -24 34 -24 37 -5 5 31 -27 88 -67 120 -20 16 -77 51 -127 78
-141 77 -137 73 -185 208 -23 66 -57 153 -75 194 -19 40 -34 77 -34 81 0 3 13
5 28 2 25 -3 35 -17 81 -108 28 -57 56 -104 61 -104 5 0 7 8 3 18 -9 26 124
-106 159 -158 l30 -45 -7 40 c-9 51 -24 79 -86 160 -28 37 -64 95 -79 129
l-28 61 41 3 c37 3 44 -1 79 -40 92 -104 180 -273 164 -314 -3 -8 -1 -14 5
-14 14 0 9 123 -7 178 -6 23 -11 42 -9 42 1 0 28 -35 60 -77 31 -43 72 -91 90
-108 l34 -30 5 -165 c3 -91 8 -181 11 -200 22 -135 74 -252 150 -335 l45 -50
-29 60 c-30 62 -44 106 -60 191 -16 81 -24 194 -15 194 11 -1 65 -73 88 -118
9 -18 26 -69 37 -114 24 -95 36 -120 97 -207 25 -35 67 -108 93 -162 27 -54
51 -99 53 -99 4 0 -34 96 -77 195 -12 28 -40 79 -62 115 -48 75 -60 105 -74
180 -6 30 -15 79 -21 108 -14 74 -44 128 -91 162 -22 16 -44 30 -49 32 -5 2
-12 27 -15 56 -16 144 -79 300 -154 381 -21 23 -34 41 -30 41 18 0 196 -127
254 -181 58 -55 65 -67 114 -189 64 -160 62 -152 67 -280 1 -58 3 -111 3 -119
1 -8 3 -12 6 -10 9 10 19 128 20 236 0 62 1 113 1 113 1 0 14 -26 29 -57 34
-73 61 -157 70 -219 4 -27 9 -57 11 -66 1 -9 6 -59 9 -110 19 -266 61 -345
263 -490 101 -72 217 -165 249 -200 20 -21 22 -33 19 -90 -2 -36 2 -82 9 -102
12 -34 93 -145 107 -146 3 0 -9 31 -28 70 -38 76 -53 139 -44 184 l5 28 54
-58 c58 -62 96 -135 106 -199 3 -23 7 -51 10 -65 10 -51 6 -138 -9 -205 -15
-68 -17 -278 -3 -331 3 -12 15 -54 27 -94 12 -40 30 -109 40 -154 l19 -81 -5
80 c-4 74 -7 103 -19 195 -20 152 -26 352 -11 367 8 9 13 3 73 -106 24 -42 43
-69 43 -60 0 8 -18 70 -40 137 -22 66 -40 134 -40 149 0 28 28 129 29 106 1
-6 7 -18 14 -25 53 -54 181 -305 218 -425 13 -40 27 -73 31 -73 5 0 6 5 3 11
-4 5 -9 25 -12 42 -8 60 -62 263 -89 338 -14 41 -46 115 -69 164 -98 203 -201
323 -410 476 -63 46 -113 89 -111 94 9 35 114 2 194 -62 l47 -38 -44 53 c-79
96 -114 114 -227 117 -80 2 -90 7 -178 93 -99 97 -176 233 -191 338 -3 22 -8
45 -10 51 -2 7 -7 57 -10 110 -3 54 -8 109 -11 123 -10 43 4 17 41 -80 60
-158 111 -238 218 -343 59 -58 187 -151 195 -142 8 8 -61 86 -195 220 -72 72
-143 152 -158 178 -33 57 -74 178 -116 337 -47 181 -84 249 -197 359 -66 63
-136 117 -215 165 l-59 35 40 10 c21 6 50 12 63 13 27 2 169 -73 242 -126 l47
-35 -40 52 c-34 46 -69 80 -128 123 -13 9 -11 12 12 16 15 3 49 4 77 3 73 -4
120 -51 154 -156 14 -43 25 -85 25 -93 0 -8 5 -18 10 -21 7 -4 9 2 6 17 -3 12
-8 49 -11 81 -3 32 -12 76 -19 98 l-14 41 30 -6 c17 -3 36 -6 43 -6 32 0 55
-259 26 -294 -7 -9 -10 -16 -5 -16 24 0 77 117 67 148 -9 23 7 12 22 -18 20
-38 19 -86 -4 -190 -32 -145 -20 -222 61 -385 50 -103 57 -108 43 -38 -7 32
-13 150 -14 263 -1 113 -4 223 -6 245 -11 114 -18 153 -35 198 l-19 49 27 -7
c105 -25 97 -18 122 -102 31 -105 47 -184 43 -214 -2 -15 0 -19 5 -11 5 7 9
35 11 62 1 27 4 58 6 69 2 10 -2 47 -9 80 -12 60 -12 61 8 55 53 -17 89 -44
136 -108 48 -63 52 -72 47 -112 -5 -49 -13 -59 -78 -96 -59 -35 -110 -82 -146
-138 -46 -71 -50 -78 -27 -59 23 20 79 49 93 49 12 0 27 -72 23 -115 -1 -16
-21 -62 -43 -103 -22 -41 -39 -75 -37 -77 6 -6 80 125 95 168 9 23 15 65 16
93 0 49 1 52 41 76 l42 25 -33 -83 c-80 -199 -96 -413 -42 -579 24 -74 44
-107 34 -55 -4 19 -9 103 -11 185 -4 175 9 261 63 428 30 92 37 127 37 199 1
48 4 84 7 80 3 -4 14 -38 24 -77 23 -91 29 -244 11 -315 -18 -70 -27 -150 -18
-150 4 0 8 10 10 23 1 12 13 59 28 102 14 44 27 111 29 149 6 101 10 99 36
-13 11 -49 8 -236 -4 -296 -3 -11 -8 -47 -11 -80 -4 -33 -14 -82 -22 -110 -7
-27 -16 -77 -19 -110 -4 -33 -10 -86 -14 -117 -9 -67 -4 -149 11 -198 10 -34
56 -120 63 -120 2 0 -3 21 -11 48 -32 103 -38 200 -16 277 l9 30 12 -40 c17
-51 74 -155 108 -196 24 -28 27 -40 28 -118 2 -47 3 -93 4 -102 0 -9 24 -54
52 -100 28 -46 86 -153 128 -238 42 -86 78 -147 79 -137 8 39 -55 187 -123
291 -80 121 -100 182 -87 258 l7 38 95 -107 c125 -141 119 -134 238 -261 156
-168 224 -261 252 -346 20 -65 21 -35 1 45 -23 90 -57 159 -119 248 -42 59
-149 186 -212 250 -69 71 -171 189 -222 258 -64 85 -132 216 -124 238 3 8 18
14 33 14 15 0 55 12 88 26 33 14 81 32 108 41 59 18 97 8 167 -48 28 -22 50
-37 50 -33 0 3 -14 33 -31 65 -54 100 -84 110 -294 97 -98 -5 -167 10 -171 37
-5 32 -14 191 -19 317 -6 176 -15 260 -35 346 -10 42 -17 78 -15 80 2 2 16
-16 32 -40 109 -169 228 -301 336 -371 26 -16 47 -33 47 -37 0 -3 32 -44 71
-90 145 -171 149 -183 145 -449 -1 -108 1 -209 5 -226 l7 -30 2 35 c3 44 7 83
15 140 3 25 8 79 12 120 3 41 7 76 8 78 2 2 18 -41 35 -95 43 -128 53 -148
151 -283 46 -63 93 -140 107 -170 l23 -55 -5 79 c-8 107 -56 205 -172 351
-124 155 -132 168 -139 233 -15 127 -27 164 -77 225 l-30 39 43 -27 c87 -55
264 -170 283 -185 95 -75 134 -124 254 -315 44 -72 93 -144 108 -160 l27 -30
-21 35 c-11 19 -41 85 -67 145 -91 215 -121 265 -208 348 -59 57 -222 172
-279 198 -41 18 -35 24 25 24 77 1 96 8 191 80 48 36 92 65 97 65 5 0 20 -17
33 -37 25 -40 58 -72 143 -142 l52 -42 -10 30 c-6 16 -29 47 -52 68 -22 21
-56 53 -74 71 -95 96 26 102 201 11 80 -41 111 -52 160 -55 l61 -5 -50 25
c-27 13 -97 58 -155 100 -118 85 -186 116 -263 117 l-52 1 34 14 c45 20 115
31 236 38 109 6 160 17 190 42 19 15 19 15 1 10 -19 -6 -73 -11 -261 -21 -180
-10 -276 -40 -354 -111 -40 -35 -81 -108 -81 -143 0 -41 -91 -38 -206 5 -62
23 -98 32 -142 33 -28 1 -106 76 -96 92 4 7 3 9 -4 6 -11 -7 -58 54 -107 138
-15 28 -35 60 -43 73 -14 22 -14 22 47 22 60 0 61 0 61 -29 0 -24 8 -32 58
-59 97 -51 239 -83 227 -49 -9 21 -74 60 -122 72 l-46 12 35 26 c118 91 205
90 438 -2 l55 -22 -30 26 c-141 120 -240 148 -430 118 -125 -19 -212 -22 -265
-8 -65 17 -140 59 -180 100 -49 51 -181 137 -280 184 -45 21 -78 40 -74 43 14
7 316 -6 403 -18 43 -5 119 -13 143 -13 17 -1 51 -32 125 -113 23 -25 47 -49
55 -53 7 -5 1 5 -13 21 -24 27 -89 121 -89 128 0 5 125 -20 217 -43 164 -42
295 -98 404 -172 59 -39 152 -127 181 -169 l18 -25 -6 34 c-15 103 -148 241
-296 309 -26 12 -56 22 -65 23 -16 0 -15 2 2 9 27 12 185 12 267 0 36 -5 90
-13 120 -16 29 -4 61 -10 70 -15 10 -5 36 -41 59 -79 23 -38 57 -83 76 -100
34 -30 172 -105 179 -97 2 2 -20 24 -49 49 -29 25 -81 86 -114 135 l-60 89
169 -1 c93 -1 164 2 156 6 -14 7 -148 38 -194 44 -16 2 -58 7 -94 10 -36 4
-76 9 -90 11 -14 2 -108 6 -210 9 -153 5 -364 13 -418 17 -12 1 -7 12 6 14 4
0 25 3 47 7 83 14 187 20 420 21 242 2 287 8 342 43 12 8 24 21 27 29 5 12 0
14 -22 10 -52 -12 -75 -15 -131 -21 -31 -3 -73 -8 -93 -11 -20 -3 -92 -7 -159
-9 -67 -2 -163 -7 -213 -10 -73 -5 -110 -2 -181 14 -120 27 -141 30 -296 36
-137 5 -276 14 -339 20 -19 2 -57 5 -83 6 -37 1 -47 5 -43 16 5 11 2 11 -17 1
-12 -7 -29 -13 -37 -15 -30 -6 -462 -16 -700 -16 -277 0 -392 7 -540 30 -19 3
-44 6 -55 8 -135 18 -336 80 -465 145 -359 179 -635 562 -668 927 -17 190 43
412 136 497 96 88 208 163 288 192 69 25 213 27 296 4 111 -31 157 -58 373
-225 33 -26 68 -51 78 -56 17 -10 17 -8 3 25 -8 20 -29 56 -45 80 l-31 45 58
-24 c71 -29 142 -49 255 -74 86 -19 109 -17 64 5 -12 6 -69 35 -126 64 -272
136 -576 223 -814 231 -32 2 -60 6 -62 10 -7 10 72 42 264 108 91 32 189 70
216 85 28 15 41 24 30 20 -119 -40 -195 -60 -344 -90 -153 -30 -223 -47 -306
-71 -13 -4 -2 14 34 56 29 33 50 61 46 61 -4 0 -36 -16 -71 -35 -35 -18 -64
-32 -64 -30 0 7 64 145 110 238 41 83 47 89 103 119 64 35 160 125 191 179 18
32 16 30 -29 -14 -47 -47 -105 -91 -153 -116 l-23 -12 23 41 c82 146 317 408
480 535 42 33 72 62 67 66 -16 9 -117 -10 -173 -33 -62 -26 -145 -86 -207
-150 -42 -44 -69 -63 -54 -38 3 5 8 44 10 87 9 171 16 269 20 283 2 8 6 31 9
50 6 41 28 105 50 149 27 51 10 35 -23 -21 -45 -80 -89 -216 -90 -282 -1 -28
-2 -29 -16 -10 -13 17 -14 16 -9 -20 2 -22 6 -98 9 -170 l5 -131 -91 -120
c-50 -66 -97 -127 -106 -135 -8 -8 4 36 26 100 22 63 39 116 36 118 -2 2 -24
-23 -49 -55 -51 -65 -139 -237 -181 -356 -28 -79 -42 -99 -25 -36 10 35 79
363 106 497 18 93 23 134 29 235 10 176 17 262 23 272 3 7 1 7 -6 0 -6 -5 -13
-32 -16 -60 -9 -91 -17 -129 -37 -195 -20 -66 -47 -123 -49 -105 -11 86 -20
108 -31 70 -14 -48 -39 -174 -45 -224 -3 -25 -7 -53 -9 -61 -4 -15 -11 -56
-20 -115 -9 -68 -55 -228 -85 -292 l-31 -68 5 145 c3 80 8 156 10 170 2 14 7
45 10 70 6 44 8 67 21 185 4 33 8 74 10 90 18 145 20 282 12 655 -7 282 14
426 73 516 25 38 26 41 8 36 -17 -4 -19 -1 -13 19 37 132 142 248 310 341 l50
28 -56 -1 c-31 -1 -73 -8 -95 -14z m-1318 -1272 c2 -27 6 -67 8 -91 9 -75 20
-216 20 -242 -1 -21 -23 -132 -51 -250 -6 -25 -6 -25 -13 5 -3 17 -7 86 -8
155 -2 132 -10 210 -21 210 -3 0 -6 -35 -7 -78 0 -90 -23 -272 -34 -272 -13 0
-18 253 -6 357 9 85 43 190 73 230 14 19 28 31 31 28 3 -2 6 -26 8 -52z m388
-3946 c0 -78 -4 -167 -9 -197 -4 -30 -10 -66 -12 -80 -2 -14 -7 -56 -12 -95
-4 -38 -21 -110 -36 -160 -23 -74 -28 -112 -31 -215 -1 -81 3 -148 12 -190 8
-36 16 -75 19 -88 2 -13 9 -38 14 -55 11 -33 45 -186 56 -246 l6 -35 -53 50
c-29 27 -63 59 -76 70 -13 12 -25 37 -28 60 -2 21 -7 50 -9 64 -3 14 -7 52
-11 85 -3 33 -7 66 -9 73 -16 47 -22 438 -12 647 8 149 11 173 29 275 7 36 11
69 10 73 -1 5 2 6 7 3 32 -20 37 -128 12 -293 -4 -29 -4 -50 1 -47 4 3 8 16 8
30 0 30 20 116 29 126 4 4 5 -23 3 -60 -2 -37 -1 -65 2 -62 6 6 11 30 37 180
28 159 26 151 34 193 14 71 20 36 19 -106z m-1134 -567 c28 -66 52 -190 37
-190 -3 0 -13 24 -22 53 -9 28 -20 61 -25 72 -45 103 -47 113 -40 185 2 21 3
20 10 -10 5 -19 23 -69 40 -110z m2252 90 c2 -40 -29 -139 -82 -265 -18 -43
-9 71 10 120 10 28 29 82 42 122 13 39 24 70 25 69 1 -1 3 -22 5 -46z m-2391
-453 c16 -43 40 -122 53 -175 48 -190 47 -169 8 -244 -33 -66 -52 -84 -52 -53
0 8 -23 86 -52 173 -44 137 -52 169 -54 252 -3 83 5 147 23 200 6 17 27 -28
74 -153z m2564 111 c4 -24 8 -90 8 -148 0 -100 -2 -112 -51 -261 -29 -85 -52
-163 -52 -172 0 -32 -16 -17 -53 49 -29 53 -34 70 -27 90 5 13 8 24 6 24 -3 0
11 58 29 130 36 136 112 343 125 335 4 -2 11 -24 15 -47z m-4541 -630 c-7 -46
-10 -86 -8 -90 2 -4 1 -9 -4 -12 -5 -3 -9 0 -9 7 -1 16 -13 78 -19 98 -3 13
38 79 50 79 1 0 -3 -37 -10 -82z m6471 10 c-5 -16 -16 -68 -17 -85 -2 -28 -18
-11 -19 20 -1 42 -8 108 -14 127 -3 8 8 0 25 -17 16 -18 27 -38 25 -45z
m-4879 -519 c3 -35 6 -112 8 -172 l1 -107 -36 -25 c-85 -56 -115 -134 -125
-324 -3 -64 -7 -129 -9 -146 -2 -16 -4 -38 -4 -47 -2 -54 -39 18 -61 116 -17
77 -14 258 7 396 18 123 38 165 120 248 44 45 74 84 78 103 9 42 14 33 21 -42z
m3349 -62 c62 -63 74 -81 93 -142 31 -101 41 -190 38 -360 -2 -126 -6 -160
-24 -209 -22 -61 -29 -73 -37 -65 -6 6 -13 79 -20 199 -8 139 -14 180 -36 230
-23 53 -60 94 -99 110 l-27 11 4 142 c2 78 5 151 7 162 3 11 5 29 6 40 2 14 5
10 13 -13 6 -19 42 -65 82 -105z"/>
<path d="M3678 8995 c-63 -23 -88 -35 -88 -40 0 -10 145 -74 191 -84 100 -22
231 -42 237 -36 8 8 -57 101 -85 121 -68 50 -179 66 -255 39z"/>
<path d="M6226 8973 c-51 -27 -105 -85 -132 -140 -23 -46 -26 -63 -22 -121 3
-39 13 -83 25 -106 l20 -39 50 99 c64 126 84 181 100 287 6 41 1 43 -41 20z"/>
<path d="M2180 8904 c-8 -2 -37 -6 -63 -9 -49 -6 -49 -7 -43 -39 18 -94 104
-267 168 -338 90 -99 258 -165 438 -172 l35 -1 -3 70 c-6 138 -57 268 -140
357 -50 53 -157 111 -227 123 -48 7 -144 13 -165 9z"/>
<path d="M7651 8898 c-30 -4 -87 -24 -127 -43 -153 -74 -247 -236 -256 -445
l-3 -65 35 1 c107 2 254 41 338 90 57 34 126 106 166 174 38 64 92 196 102
244 6 33 5 34 -33 40 -68 11 -167 13 -222 4z"/>
<path d="M3640 8739 c0 -26 110 -130 167 -159 65 -33 343 -110 343 -95 0 35
-101 140 -169 175 -65 33 -341 97 -341 79z"/>
<path d="M5948 8607 c-81 -129 -113 -254 -113 -447 0 -80 4 -158 8 -174 l8
-30 34 60 c35 63 81 187 90 248 13 78 20 174 18 241 -1 39 -2 87 -2 108 -1 20
-4 37 -8 37 -5 0 -20 -19 -35 -43z"/>
<path d="M1854 8520 c-39 -10 -102 -33 -140 -50 l-69 -32 50 -14 c55 -15 128
-23 250 -29 44 -2 112 -10 151 -19 38 -8 92 -18 120 -22 l49 -6 -25 28 c-55
64 -98 98 -158 126 -76 37 -135 41 -228 18z"/>
<path d="M7946 8524 c-78 -24 -153 -77 -203 -142 l-26 -34 39 6 c22 3 75 13
119 21 44 9 121 18 170 21 152 7 275 26 275 43 0 10 -119 63 -175 77 -85 22
-147 24 -199 8z"/>
<path d="M6541 8418 c-73 -97 -154 -284 -175 -402 -18 -99 -26 -196 -16 -196
12 0 77 83 120 154 48 79 76 148 96 241 15 70 29 255 20 255 -3 0 -23 -24 -45
-52z"/>
<path d="M3061 8353 c-26 -63 -16 -139 24 -183 28 -31 106 -65 115 -51 12 21
3 116 -15 152 -17 31 -92 109 -106 109 -4 0 -12 -12 -18 -27z"/>
<path d="M6853 8343 c-52 -49 -74 -93 -78 -155 -5 -80 1 -85 64 -55 84 40 115
127 79 220 -6 15 -14 27 -18 27 -4 0 -25 -17 -47 -37z"/>
<path d="M3307 8296 c-10 -24 3 -199 18 -258 20 -77 66 -169 128 -251 41 -54
53 -64 58 -50 9 25 3 122 -12 190 -7 32 -13 60 -14 63 -11 52 -60 163 -99 220
-49 75 -74 101 -79 86z"/>
<path d="M3745 8254 c23 -210 114 -422 231 -539 l27 -27 -6 74 c-17 189 -67
333 -158 449 -45 57 -53 65 -82 88 -17 14 -18 12 -12 -45z"/>
<path d="M1507 8282 c-21 -3 -27 -8 -23 -20 2 -9 7 -39 11 -67 28 -225 138
-401 283 -455 72 -27 98 -32 197 -34 107 -3 118 0 110 33 -4 14 -8 34 -10 44
-40 199 -123 354 -224 418 -94 60 -235 93 -344 81z"/>
<path d="M8355 8279 c-203 -19 -334 -128 -406 -338 -25 -73 -61 -223 -54 -229
11 -12 173 -8 227 4 194 45 316 194 354 429 7 44 11 70 20 108 4 19 1 27 -8
28 -7 0 -24 1 -38 2 -14 1 -56 -1 -95 -4z"/>
<path d="M2112 8201 c-24 -6 -23 -6 18 -68 83 -124 232 -229 360 -252 54 -9
167 -8 225 4 70 14 175 57 175 73 0 9 -107 80 -190 125 -80 44 -222 92 -315
107 -81 13 -239 19 -273 11z"/>
<path d="M7680 8202 c-85 -8 -235 -45 -311 -77 -78 -34 -216 -113 -267 -153
l-24 -18 61 -28 c129 -58 297 -69 416 -27 116 41 246 149 311 259 l25 42 -28
2 c-57 3 -149 3 -183 0z"/>
<path d="M1120 8046 c0 -26 46 -92 84 -121 39 -29 131 -44 174 -28 l23 9 -32
48 c-47 71 -97 100 -180 104 -59 4 -69 2 -69 -12z"/>
<path d="M8705 8041 c-42 -19 -85 -62 -110 -112 l-15 -28 45 -7 c87 -13 153
15 205 87 47 65 42 79 -27 79 -35 0 -75 -8 -98 -19z"/>
<path d="M5942 7970 c0 -14 2 -19 5 -12 2 6 2 18 0 25 -3 6 -5 1 -5 -13z"/>
<path d="M4022 7950 c0 -14 2 -19 5 -12 2 6 2 18 0 25 -3 6 -5 1 -5 -13z"/>
<path d="M5932 7915 c0 -16 2 -22 5 -12 2 9 2 23 0 30 -3 6 -5 -1 -5 -18z"/>
<path d="M6817 7929 c-55 -13 -126 -51 -177 -97 l-45 -40 45 -6 c95 -14 115
-15 164 -4 66 14 140 47 196 89 l45 33 -33 13 c-40 16 -145 23 -195 12z"/>
<path d="M4037 7870 c3 -25 7 -47 9 -49 8 -9 2 55 -6 74 -6 13 -7 5 -3 -25z"/>
<path d="M2872 7852 c-29 -8 -51 -20 -49 -25 7 -23 142 -87 212 -103 6 -1 59
-14 119 -28 60 -14 111 -24 113 -22 2 2 -3 20 -11 39 -19 47 -80 106 -135 130
-56 25 -176 29 -249 9z"/>
<path d="M1243 7749 c-86 -21 -157 -51 -238 -98 l-60 -36 35 -5 c57 -9 272 0
355 16 11 2 47 6 80 10 33 3 74 7 90 9 17 1 65 3 108 4 42 0 77 4 77 9 0 16
-109 72 -176 90 -87 24 -178 25 -271 1z"/>
<path d="M8480 7754 c-61 -16 -142 -54 -180 -84 l-25 -20 70 -1 c39 0 88 -2
110 -4 22 -2 76 -6 120 -10 43 -3 82 -8 86 -11 22 -13 322 -25 355 -14 15 6
10 11 -26 33 -68 40 -174 85 -238 103 -79 22 -205 26 -272 8z"/>
<path d="M2540 7721 c-125 -39 -285 -136 -360 -218 -51 -55 -122 -188 -135
-251 -7 -32 0 -28 157 98 215 174 287 243 377 363 15 19 6 21 -39 8z"/>
<path d="M7412 7698 c66 -94 168 -193 322 -313 22 -16 75 -60 120 -97 44 -37
82 -65 84 -63 9 8 -41 136 -74 191 -61 102 -150 178 -286 246 -60 29 -162 68
-180 68 -5 0 1 -15 14 -32z"/>
<path d="M7330 7675 c-8 -10 -64 -55 -125 -100 -121 -90 -225 -181 -225 -197
0 -7 29 -9 83 -6 133 9 214 59 264 165 18 39 23 65 21 104 -3 48 -4 51 -18 34z"/>
<path d="M2648 7609 c-10 -169 95 -286 269 -297 109 -7 116 0 57 53 -27 25
-101 84 -164 132 -63 48 -125 98 -137 112 l-23 24 -2 -24z"/>
<path d="M3134 7544 c88 -116 183 -191 266 -210 30 -7 91 -6 98 0 6 6 -49 76
-112 144 -64 67 -136 103 -223 110 l-66 5 37 -49z"/>
<path d="M6690 7513 c-73 -25 -148 -88 -225 -188 -41 -52 -38 -60 15 -56 118
8 219 77 320 217 l31 44 -48 0 c-26 -1 -68 -8 -93 -17z"/>
<path d="M1407 7424 c-1 -1 -42 -5 -91 -8 -49 -4 -109 -11 -135 -16 -25 -4
-66 -11 -91 -15 -51 -7 -305 -69 -364 -89 l-39 -13 24 -16 c38 -25 173 -76
253 -97 146 -37 346 -43 471 -14 11 2 34 6 50 8 102 12 465 134 465 156 0 12
-149 59 -235 74 -16 3 -40 8 -52 10 -49 10 -249 25 -256 20z"/>
<path d="M8527 7424 c-1 -1 -45 -4 -98 -8 -132 -8 -399 -72 -399 -95 0 -12
244 -106 326 -126 304 -75 476 -77 708 -10 82 24 211 78 220 94 3 4 -45 22
-107 38 -174 48 -237 62 -352 79 -16 2 -41 6 -55 9 -58 10 -237 24 -243 19z"/>
<path d="M6871 7235 c-61 -14 -170 -59 -220 -92 -22 -14 -12 -19 260 -109 242
-80 395 -127 459 -139 65 -12 125 -21 195 -29 28 -3 69 -8 93 -12 25 -3 42 -1
42 5 0 15 -91 121 -146 171 -97 86 -271 183 -369 206 -63 14 -250 13 -314 -1z"/>
<path d="M938 6995 c-3 -3 -198 -32 -278 -42 -67 -8 -69 -9 -75 -15 -8 -7 103
-64 150 -77 56 -15 141 -19 189 -10 23 4 57 10 76 13 40 6 55 10 160 32 108
23 109 23 80 40 -48 27 -156 54 -227 58 -40 2 -74 2 -75 1z"/>
<path d="M8884 6985 c-101 -22 -206 -74 -146 -74 9 0 82 -13 162 -30 180 -38
227 -42 315 -24 67 14 191 70 180 81 -6 7 -9 7 -87 16 -31 4 -64 8 -74 10 -11
2 -41 7 -69 10 -27 4 -57 9 -65 11 -40 12 -162 11 -216 0z"/>
<path d="M6326 6980 c-37 -13 194 -118 374 -170 41 -12 124 -40 183 -62 60
-22 111 -37 114 -34 9 9 -44 76 -101 129 -70 65 -170 112 -281 132 -89 15
-252 19 -289 5z"/>
<path d="M1822 6939 c-188 -48 -290 -98 -372 -184 l-35 -37 88 6 c120 8 235
40 305 85 56 37 120 100 141 138 13 26 4 26 -127 -8z"/>
<path d="M8030 6957 c0 -23 96 -121 151 -154 71 -42 183 -72 294 -79 l90 -6
-35 37 c-80 83 -181 135 -354 179 -148 38 -146 38 -146 23z"/>
<path d="M3645 6830 c-9 -14 16 -80 42 -111 50 -59 140 -76 215 -41 36 16 36
18 20 37 -29 34 -86 74 -130 89 -56 20 -141 35 -147 26z"/>
<path d="M755 6744 c-90 -21 -117 -30 -167 -55 -117 -56 -207 -135 -281 -244
-41 -60 -107 -198 -107 -224 0 -11 19 -13 103 -8 56 4 127 11 157 16 30 6 69
13 86 16 139 23 279 92 459 226 167 124 200 151 200 163 0 15 -86 60 -165 86
-63 21 -237 36 -285 24z"/>
<path d="M9035 6743 c-85 -15 -221 -68 -257 -100 -17 -15 -17 -17 1 -27 11 -6
80 -57 153 -113 73 -55 169 -122 212 -148 138 -81 319 -129 534 -142 l103 -6
-7 29 c-20 81 -106 229 -176 304 -92 97 -237 178 -356 200 -57 10 -156 11
-207 3z"/>
<path d="M2300 6719 c-106 -18 -171 -24 -258 -24 -50 0 -92 -3 -92 -7 0 -15
82 -67 135 -87 114 -43 258 -33 399 27 60 25 166 87 166 97 0 7 -300 2 -350
-6z"/>
<path d="M7340 6722 c0 -15 87 -67 159 -96 147 -59 282 -68 395 -25 54 20 136
72 136 87 0 4 -42 7 -92 7 -91 0 -158 6 -268 24 -76 12 -330 14 -330 3z"/>
<path d="M1560 6624 c-83 -15 -183 -46 -245 -76 -65 -33 -198 -124 -230 -158
l-30 -32 64 6 c36 4 67 9 71 11 3 2 17 6 31 8 111 21 262 76 369 134 72 40
180 111 180 119 0 9 -131 1 -210 -12z"/>
<path d="M8214 6632 c8 -13 125 -89 191 -124 124 -66 330 -129 460 -143 l60
-6 -45 42 c-96 90 -255 176 -385 208 -99 25 -292 41 -281 23z"/>
<path d="M6670 6619 c-67 -10 -165 -51 -165 -69 0 -23 75 -59 137 -66 47 -5
64 -3 105 17 54 26 125 100 110 115 -8 9 -140 11 -187 3z"/>
<path d="M2721 6575 c-188 -53 -343 -243 -367 -450 l-7 -55 69 25 c201 74 310
157 488 374 67 82 75 96 60 104 -30 17 -184 18 -243 2z"/>
<path d="M7035 6582 c-11 -2 -24 -7 -28 -12 -9 -8 163 -218 235 -286 56 -53
135 -107 212 -143 85 -41 164 -67 172 -58 11 10 -13 121 -39 182 -88 210 -259
330 -462 323 -38 -1 -79 -4 -90 -6z"/>
<path d="M3498 6554 c-2 -1 -19 -5 -38 -8 -127 -20 -295 -114 -387 -215 -144
-159 -241 -381 -260 -595 l-6 -71 64 55 c121 104 312 305 412 435 56 71 103
132 106 135 4 3 28 32 55 65 27 33 54 65 60 71 6 5 38 38 71 73 l60 62 -67 -2
c-37 -1 -69 -3 -70 -5z"/>
<path d="M1925 6493 c-334 -44 -574 -159 -806 -384 -77 -75 -169 -183 -169
-198 0 -15 202 27 334 70 286 93 583 288 768 505 17 19 16 20 -10 19 -15 0
-68 -5 -117 -12z"/>
<path d="M7920 6499 c0 -12 128 -140 200 -200 147 -122 332 -230 502 -293 151
-56 408 -116 408 -95 0 24 -166 204 -260 281 -208 172 -471 280 -736 304 -38
3 -79 7 -91 9 -13 2 -23 -1 -23 -6z"/>
<path d="M6105 6213 c16 -165 67 -340 126 -440 71 -117 225 -245 374 -308 56
-24 68 -26 76 -14 9 14 12 80 9 172 -6 169 -66 334 -161 441 -42 47 -173 146
-193 146 -3 0 -25 9 -49 19 -55 25 -108 41 -153 47 l-36 4 7 -67z"/>
<path d="M3733 6240 c-23 -5 -67 -21 -98 -35 l-56 -27 25 -19 c89 -70 214 -68
294 5 22 19 52 67 52 81 0 8 -169 4 -217 -5z"/>
<path d="M821 6168 c-107 -12 -191 -37 -296 -88 -119 -57 -271 -168 -254 -184
5 -6 191 29 254 47 74 21 171 60 245 97 80 40 200 117 200 128 0 10 -62 10
-149 0z"/>
<path d="M9011 6163 c19 -22 149 -100 239 -142 109 -51 191 -78 304 -101 143
-28 156 -30 156 -20 0 14 -111 101 -187 146 -141 83 -271 120 -450 128 -61 2
-71 1 -62 -11z"/>
<path d="M4129 6109 c-155 -161 -250 -366 -265 -574 l-5 -70 26 30 c48 54 155
222 191 300 50 109 123 349 110 362 -3 3 -28 -19 -57 -48z"/>
<path d="M5787 6140 c-10 -39 1 -186 18 -245 20 -69 45 -122 87 -183 44 -64
53 -46 53 101 0 118 -1 125 -32 187 -30 61 -100 158 -114 160 -4 0 -9 -9 -12
-20z"/>
<path d="M6864 6020 c8 -101 32 -158 96 -222 46 -45 69 -60 121 -76 35 -11 66
-16 67 -11 2 5 -20 53 -50 107 -39 71 -75 119 -134 180 -44 45 -86 82 -93 82
-8 0 -11 -17 -7 -60z"/>
<path d="M2645 6041 c-32 -13 -120 -104 -148 -152 -75 -130 -75 -328 0 -516
29 -72 37 -70 47 12 4 28 9 61 11 75 3 23 8 67 21 190 11 108 16 148 25 186
11 53 58 185 71 202 12 14 3 15 -27 3z"/>
<path d="M7320 6013 c28 -56 69 -205 75 -276 7 -85 25 -247 30 -277 2 -14 6
-47 10 -74 10 -82 19 -84 48 -9 52 131 70 286 46 394 -21 94 -96 204 -176 258
-46 31 -55 26 -33 -16z"/>
<path d="M1995 5988 c-100 -50 -351 -155 -470 -196 -49 -17 -166 -51 -260 -76
-256 -68 -332 -97 -443 -168 -34 -22 -62 -42 -62 -43 0 -2 24 3 53 11 76 20
172 36 292 49 131 14 269 35 328 51 194 50 415 178 583 338 43 41 75 75 69 75
-5 -1 -46 -19 -90 -41z"/>
<path d="M7935 5980 c202 -209 500 -361 770 -395 28 -3 64 -8 80 -10 17 -2 57
-7 90 -10 33 -4 76 -8 95 -11 53 -6 192 -35 217 -45 47 -18 20 9 -55 54 -69
42 -229 108 -294 121 -237 49 -584 173 -864 308 -87 42 -91 41 -39 -12z"/>
<path d="M3562 5969 c-138 -35 -241 -113 -291 -218 -23 -50 -26 -68 -25 -161
0 -94 4 -114 33 -188 18 -46 39 -86 46 -88 29 -11 173 76 243 147 95 97 122
225 88 424 -10 55 -18 100 -19 101 -1 1 -35 -6 -75 -17z"/>
<path d="M447 5796 c-37 -12 -91 -39 -121 -60 -66 -46 -141 -125 -130 -136 23
-22 239 -35 304 -18 62 16 127 45 177 77 65 43 140 108 132 115 -2 3 -36 13
-75 24 -97 27 -203 26 -287 -2z"/>
<path d="M9252 5800 c-35 -10 -68 -22 -74 -28 -6 -6 10 -25 48 -56 115 -94
214 -136 338 -142 80 -4 204 10 220 26 8 8 -73 96 -119 130 -112 82 -272 110
-413 70z"/>
<path d="M2097 5675 c-1 -2 -24 -5 -52 -8 -63 -8 -92 -16 -298 -84 -189 -62
-287 -118 -411 -234 -74 -69 -198 -218 -191 -229 8 -12 154 -32 245 -33 157
-2 283 23 410 81 149 68 232 156 339 359 40 74 71 136 69 138 -4 3 -107 12
-111 10z"/>
<path d="M7810 5672 c-33 -5 -46 -18 -32 -34 5 -7 34 -58 63 -113 69 -131 101
-178 173 -248 114 -112 331 -189 536 -190 88 -1 207 10 253 23 l37 11 -32 47
c-63 89 -220 237 -318 301 -79 51 -123 70 -260 115 -243 80 -336 99 -420 88z"/>
<path d="M2900 5476 c-73 -27 -144 -69 -181 -107 -42 -42 -90 -129 -107 -192
-14 -49 -3 -54 89 -40 116 18 183 63 229 153 33 65 44 201 17 199 -7 0 -28 -6
-47 -13z"/>
<path d="M7019 5459 c-5 -157 64 -268 192 -307 35 -11 86 -19 114 -18 47 1 50
2 47 26 -8 51 -70 167 -113 210 -42 41 -152 101 -211 116 -26 6 -28 4 -29 -27z"/>
<path d="M9496 5468 c-61 -8 -186 -59 -186 -76 0 -16 133 -53 204 -57 76 -3
163 14 232 47 41 19 44 23 30 34 -23 16 -143 53 -186 57 -19 2 -62 -1 -94 -5z"/>
<path d="M271 5445 c-84 -31 -91 -39 -52 -60 123 -63 328 -64 439 -2 22 13 21
15 -50 48 -66 31 -82 34 -173 36 -83 1 -111 -2 -164 -22z"/>
<path d="M1077 5354 c-1 -1 -31 -5 -66 -8 -135 -14 -234 -42 -337 -94 -82 -42
-208 -132 -198 -142 32 -31 223 -51 323 -34 53 8 140 44 186 75 74 50 175 164
175 197 0 7 -75 12 -83 6z"/>
<path d="M8832 5318 c32 -57 120 -142 186 -181 76 -44 161 -67 257 -68 113 -1
244 28 230 51 -9 14 -163 114 -220 143 -102 51 -235 81 -408 91 l-67 4 22 -40z"/>
<path d="M243 5173 c-27 -5 -72 -48 -93 -87 -17 -34 -8 -42 60 -51 64 -9 124
16 161 69 l30 40 -27 14 c-28 15 -95 22 -131 15z"/>
<path d="M9620 5165 c-38 -14 -39 -24 -8 -68 30 -41 96 -69 150 -62 70 9 80
14 72 38 -8 27 -38 66 -65 85 -27 19 -106 23 -149 7z"/>
<path d="M2620 4315 c-7 -9 -11 -17 -9 -20 3 -2 10 5 17 15 14 24 10 26 -8 5z"/>
<path d="M7356 4307 c3 -10 9 -15 12 -12 3 3 0 11 -7 18 -10 9 -11 8 -5 -6z"/>
<path d="M1060 3158 c-30 -39 -74 -96 -98 -127 -97 -125 -143 -232 -141 -330
l0 -56 15 39 c17 48 46 95 102 169 71 93 120 182 148 264 25 74 35 113 31 113
-2 0 -27 -32 -57 -72z"/>
<path d="M4131 2794 c0 -11 3 -14 6 -6 3 7 2 16 -1 19 -3 4 -6 -2 -5 -13z"/>
<path d="M4393 2685 c0 -8 4 -12 9 -9 5 3 6 10 3 15 -9 13 -12 11 -12 -6z"/>
<path d="M8351 1924 c0 -11 3 -14 6 -6 3 7 2 16 -1 19 -3 4 -6 -2 -5 -13z"/>
<path d="M7170 1881 c0 -6 4 -13 10 -16 6 -3 7 1 4 9 -7 18 -14 21 -14 7z"/>
<path d="M7051 1854 c0 -11 3 -14 6 -6 3 7 2 16 -1 19 -3 4 -6 -2 -5 -13z"/>
<path d="M2766 1818 c-13 -24 -27 -61 -30 -83 l-6 -40 14 41 c7 22 23 59 35
82 28 55 19 54 -13 0z"/>
<path d="M7195 1835 c45 -116 54 -138 54 -124 1 24 -26 96 -45 122 -14 19 -16
20 -9 2z"/>
<path d="M1412 1800 c0 -14 2 -19 5 -12 2 6 2 18 0 25 -3 6 -5 1 -5 -13z"/>
<path d="M8561 1804 c0 -11 3 -14 6 -6 3 7 2 16 -1 19 -3 4 -6 -2 -5 -13z"/>
<path d="M8572 1750 c0 -14 2 -19 5 -12 2 6 2 18 0 25 -3 6 -5 1 -5 -13z"/>
<path d="M2443 1105 c0 -22 2 -30 4 -17 2 12 2 30 0 40 -3 9 -5 -1 -4 -23z"/>
<path d="M5067 1010 c9 -93 35 -138 153 -270 36 -40 84 -98 108 -129 55 -72
143 -249 186 -374 18 -54 37 -101 40 -105 4 -3 5 0 2 8 -3 8 -8 33 -11 55 -37
263 -100 401 -255 565 -149 157 -208 233 -223 285 -3 11 -3 -5 0 -35z"/>
</g>
</svg>
