<?xml version="1.0" standalone="no"?>
<!DOCTYPE svg PUBLIC "-//W3C//DTD SVG 20010904//EN"
 "http://www.w3.org/TR/2001/REC-SVG-20010904/DTD/svg10.dtd">
<svg version="1.0" xmlns="http://www.w3.org/2000/svg"
 width="1155.000000pt" height="1155.000000pt" viewBox="0 0 1155.000000 1155.000000"
 preserveAspectRatio="xMidYMid meet">
<metadata>
Created by potrace 1.11, written by Peter Selinger 2001-2013
</metadata>
<g transform="translate(0.000000,1155.000000) scale(0.100000,-0.100000)"
fill="#000000" stroke="none">
<path d="M5488 11545 c-2 -2 -56 -6 -122 -10 -65 -4 -126 -8 -135 -10 -9 -2
-48 -6 -86 -9 -39 -4 -83 -9 -100 -11 -16 -3 -48 -7 -70 -10 -88 -12 -292 -46
-325 -55 -19 -5 -51 -11 -70 -14 -19 -3 -123 -28 -230 -55 -479 -122 -926
-298 -1369 -541 -111 -60 -427 -254 -441 -269 -3 -3 -34 -26 -70 -50 -151
-104 -383 -287 -545 -431 -79 -70 -394 -387 -467 -470 -201 -227 -438 -543
-575 -765 -143 -233 -313 -554 -401 -756 -191 -440 -342 -955 -408 -1389 -3
-19 -9 -60 -14 -90 -5 -30 -14 -102 -20 -160 -6 -58 -13 -118 -15 -135 -20
-140 -27 -746 -12 -945 11 -143 17 -202 23 -238 3 -17 7 -49 9 -70 3 -20 7
-59 11 -87 19 -166 72 -428 130 -655 215 -834 623 -1617 1193 -2290 114 -135
463 -490 576 -586 70 -60 151 -129 180 -153 11 -9 49 -39 85 -66 36 -28 67
-52 70 -56 37 -41 581 -399 607 -399 3 0 14 -6 22 -14 26 -23 376 -201 516
-262 217 -94 522 -208 670 -249 169 -47 313 -86 335 -90 14 -3 34 -7 45 -9 55
-13 265 -55 300 -60 22 -4 63 -10 90 -16 28 -5 73 -12 100 -15 28 -4 62 -8 76
-10 23 -3 61 -7 189 -21 248 -26 813 -26 1075 0 53 6 159 17 185 21 14 2 48 6
75 10 28 3 57 8 65 10 8 2 38 6 65 10 28 3 118 20 200 36 596 120 1177 334
1694 625 258 146 521 323 756 508 50 39 92 73 95 76 3 3 48 41 100 85 110 92
457 436 551 545 35 41 70 81 77 88 31 34 175 216 246 312 298 401 560 880 752
1375 127 328 258 830 309 1185 9 63 18 125 20 138 2 12 7 57 10 100 4 42 9 85
11 95 25 132 25 811 0 1067 -13 132 -30 269 -41 330 -2 14 -7 43 -10 65 -3 22
-15 90 -26 150 -17 93 -30 149 -64 295 -43 182 -116 419 -192 625 -150 405
-355 811 -591 1170 -117 178 -347 485 -427 571 -5 6 -35 40 -65 75 -30 35
-149 159 -265 274 -176 176 -274 265 -489 442 -51 42 -290 216 -371 269 -320
213 -670 400 -1025 546 -354 146 -800 275 -1167 338 -67 11 -130 22 -140 24
-10 2 -61 9 -113 15 -52 7 -108 14 -125 16 -16 2 -66 7 -110 10 -44 4 -96 9
-115 12 -41 5 -697 13 -702 8z"/>
</g>
</svg>
