<!DOCTYPE svg PUBLIC "-//W3C//DTD SVG 20010904//EN" "http://www.w3.org/TR/2001/REC-SVG-20010904/DTD/svg10.dtd">
<svg version="1.0" xmlns="http://www.w3.org/2000/svg" width="1000px" height="1000px" viewBox="0 0 10000 10000" preserveAspectRatio="xMidYMid meet">
<g id="layer101" fill="#000000" stroke="none">
 <path d="M4651 9950 c-1 -19 46 -213 93 -383 39 -141 91 -386 83 -393 -7 -7 -111 110 -162 181 -66 91 -120 199 -176 346 -27 73 -53 136 -56 139 -20 18 43 -282 77 -368 43 -106 85 -165 219 -310 89 -97 121 -139 125 -163 13 -73 26 -299 26 -438 l0 -146 -25 30 c-73 90 -135 274 -138 412 -1 46 -5 83 -9 83 -4 0 -12 -24 -18 -54 -23 -111 21 -309 107 -481 72 -143 72 -143 57 -280 -25 -219 -60 -398 -126 -649 l-31 -119 -34 114 c-52 174 -54 250 -9 422 35 136 49 244 24 187 -39 -87 -62 -130 -71 -130 -18 0 0 209 27 310 55 203 46 299 -41 457 -133 241 -228 467 -263 626 -21 94 -33 81 -28 -29 6 -121 35 -213 136 -430 70 -149 105 -251 116 -329 l5 -40 -26 53 c-41 82 -125 175 -241 270 -110 89 -232 205 -232 219 1 4 15 17 33 28 77 49 96 124 74 305 l-13 115 -12 -110 c-6 -60 -19 -131 -28 -157 -16 -47 -62 -108 -82 -108 -38 0 -49 321 -18 505 9 55 20 110 23 124 4 15 2 22 -5 17 -17 -10 -70 -169 -92 -275 -24 -117 -26 -251 -5 -339 32 -135 91 -216 249 -342 179 -144 275 -325 305 -575 6 -57 4 -82 -13 -145 -16 -60 -20 -103 -20 -215 0 -136 2 -145 53 -338 66 -253 76 -329 60 -470 l-12 -109 -48 48 c-55 54 -63 72 -83 203 -9 52 -18 97 -22 100 -3 3 -4 -53 -2 -126 3 -128 2 -131 -16 -115 -53 49 -102 175 -121 312 l-13 95 -1 -90 c-1 -173 32 -266 145 -400 93 -112 117 -150 111 -177 -3 -13 -28 -95 -55 -183 l-50 -159 -17 39 c-25 59 -73 256 -81 330 -4 36 -11 65 -17 65 -7 0 -8 -39 -4 -112 7 -125 3 -127 -49 -26 -44 87 -64 182 -87 418 -2 19 -4 -21 -5 -90 -3 -242 27 -396 113 -580 104 -223 105 -227 88 -311 -7 -41 -16 -159 -19 -264 -5 -168 -4 -202 15 -292 12 -56 24 -110 27 -120 4 -10 -15 14 -42 52 -27 39 -80 110 -117 159 -37 49 -67 97 -67 106 0 18 35 73 76 123 34 40 30 50 -13 32 -20 -8 -38 -13 -40 -11 -2 2 3 32 12 67 19 70 16 151 -8 254 l-14 60 -6 -110 c-8 -122 -35 -332 -47 -354 -5 -10 -16 0 -40 34 l-33 47 13 92 c7 50 21 120 33 156 23 75 27 185 13 380 -11 164 -25 187 -26 42 0 -147 -21 -243 -79 -372 -27 -58 -51 -114 -55 -124 -12 -35 -27 -2 -43 95 -27 166 -10 280 68 443 35 74 42 152 20 209 -9 23 -7 45 10 110 34 133 78 341 74 346 -6 6 -12 -10 -70 -207 -50 -169 -53 -174 -63 -141 -6 19 -13 45 -15 59 -2 14 -5 5 -5 -20 -1 -25 3 -63 8 -84 7 -34 4 -55 -25 -140 l-35 -101 6 100 c13 236 75 447 175 602 46 70 70 83 204 108 90 17 122 36 147 86 18 34 25 109 10 109 -4 0 -13 -15 -20 -32 -6 -18 -26 -50 -44 -72 -31 -38 -32 -38 -86 -33 -30 3 -59 10 -63 14 -5 5 12 37 38 73 25 36 60 97 79 135 61 128 67 163 71 460 6 328 -9 349 -32 45 -16 -214 -27 -278 -66 -354 -26 -53 -36 -50 -70 20 -24 51 -22 87 12 228 35 148 22 279 -42 416 -30 65 -77 135 -85 127 -3 -2 14 -42 36 -88 77 -161 88 -289 40 -472 -36 -140 -38 -203 -6 -301 l24 -75 -70 -98 c-39 -54 -83 -123 -99 -153 -18 -32 -28 -44 -25 -29 3 14 10 89 16 167 11 143 2 356 -19 468 -9 44 -7 55 20 114 42 90 79 239 79 316 0 35 -3 64 -7 64 -5 0 -8 -17 -8 -38 -1 -43 -24 -107 -35 -95 -4 4 -13 26 -20 48 -7 22 -39 106 -71 188 -33 81 -65 173 -72 205 l-14 57 -8 -49 c-11 -67 6 -148 50 -249 55 -124 76 -187 82 -242 4 -41 1 -55 -17 -78 l-22 -28 -39 118 c-22 65 -73 188 -114 273 -64 133 -75 163 -75 208 0 59 5 72 59 151 l36 53 3 137 c2 75 0 133 -4 129 -3 -4 -13 -46 -20 -93 -15 -92 -33 -138 -62 -155 -52 -30 -57 -39 -62 -117 l-5 -75 -77 115 c-93 137 -95 151 -42 277 51 121 62 161 70 248 7 70 6 76 -9 64 -9 -8 -21 -39 -28 -70 -16 -78 -33 -118 -79 -177 -22 -28 -47 -69 -56 -90 -15 -37 -17 -38 -30 -21 -21 29 -186 216 -190 216 -14 0 9 -40 113 -193 202 -297 236 -349 289 -454 58 -113 101 -236 139 -393 34 -144 44 -200 35 -200 -19 0 -59 63 -65 102 -25 157 -49 171 -43 26 5 -121 17 -151 91 -219 l50 -47 24 -118 c27 -130 42 -448 26 -534 l-9 -45 -27 56 c-25 54 -27 65 -31 255 -4 192 -11 251 -47 374 -21 71 -23 14 -5 -126 9 -65 15 -152 15 -194 l-1 -75 -10 48 c-6 26 -14 47 -18 47 -29 0 -40 -168 -16 -238 14 -38 13 -46 -15 -139 -16 -54 -38 -147 -49 -208 -10 -60 -30 -140 -44 -178 -33 -85 -33 -141 -1 -247 14 -46 25 -92 25 -103 0 -23 -43 -157 -50 -157 -3 0 -38 50 -77 110 -46 69 -77 127 -83 157 -17 75 -14 156 8 205 19 44 84 110 128 130 13 6 24 15 24 20 0 16 -96 8 -133 -11 -20 -10 -37 -16 -37 -12 0 13 56 95 110 161 109 134 126 223 111 595 -5 136 -8 174 -9 109 -4 -237 -45 -461 -107 -589 -19 -38 -67 -108 -106 -155 -40 -47 -82 -107 -95 -134 l-22 -48 -7 68 c-14 125 9 224 125 533 78 212 109 345 110 482 0 38 7 55 39 95 47 60 76 117 85 168 9 45 -13 276 -26 276 -15 0 -20 -53 -14 -146 6 -81 5 -99 -12 -138 -11 -24 -29 -49 -40 -55 -18 -10 -19 -5 -25 127 -3 75 -13 171 -22 212 -16 79 -67 200 -84 200 -22 0 -44 -147 -49 -323 l-5 -178 -23 22 c-45 42 -73 117 -84 224 -6 55 -15 133 -20 173 -9 67 -8 76 14 120 27 53 48 122 37 122 -4 0 -12 -15 -19 -32 -6 -18 -21 -48 -33 -67 l-21 -34 -18 41 c-25 56 -66 114 -176 255 -51 64 -97 125 -103 134 -5 10 -12 16 -14 13 -3 -3 29 -59 70 -125 72 -116 172 -305 188 -354 5 -18 -3 -44 -34 -105 -33 -65 -44 -98 -52 -168 -15 -127 1 -266 45 -393 20 -55 36 -105 36 -112 0 -8 -12 -5 -35 8 -33 20 -35 20 -35 3 0 -10 42 -59 94 -108 101 -97 107 -110 121 -226 6 -46 3 -64 -18 -110 l-25 -55 -1 35 c-2 50 -38 122 -116 224 -92 123 -103 150 -135 307 -33 163 -49 201 -50 119 0 -165 41 -352 111 -499 27 -57 48 -106 46 -108 -2 -2 -24 18 -49 45 -51 54 -114 175 -134 254 l-12 53 -1 -45 c-1 -77 49 -234 96 -297 13 -18 48 -49 77 -70 58 -40 66 -57 66 -141 0 -28 -13 -78 -37 -136 -32 -80 -36 -102 -36 -176 0 -76 5 -100 50 -232 28 -82 50 -148 49 -148 -2 0 -19 24 -39 53 -19 30 -60 80 -90 113 -48 52 -56 68 -72 135 l-18 76 48 103 c31 66 50 122 53 154 3 34 1 48 -6 41 -18 -18 -162 -302 -162 -319 0 -10 -6 -16 -12 -13 -24 8 -12 109 27 233 71 222 64 278 -72 548 -42 83 -84 174 -94 201 l-19 50 4 -47 c2 -33 17 -70 49 -125 25 -43 55 -107 66 -143 21 -66 51 -223 51 -267 0 -23 -1 -23 -31 -8 -34 18 -51 52 -69 137 -6 32 -16 61 -22 64 -8 5 -9 1 -4 -12 4 -10 12 -59 17 -107 10 -103 27 -140 70 -159 29 -12 30 -15 25 -53 -4 -22 -21 -88 -38 -147 l-32 -107 -60 53 c-70 61 -83 94 -93 221 -7 105 9 204 57 345 21 63 37 117 34 119 -6 7 -43 -30 -65 -65 -10 -18 -28 -65 -38 -105 l-19 -73 -7 70 c-4 40 -2 106 5 154 19 142 54 229 188 470 60 108 77 237 47 355 -17 66 -83 206 -116 245 -24 29 -25 30 15 -104 26 -89 36 -235 18 -264 -12 -18 -115 202 -147 313 -14 50 -31 133 -38 185 -13 92 -14 94 -27 65 -20 -44 -18 -160 4 -225 10 -30 49 -120 87 -200 37 -80 73 -166 79 -192 12 -47 12 -48 -46 -162 -36 -70 -61 -110 -66 -103 -4 7 -20 63 -35 124 -34 139 -59 156 -33 23 4 -25 7 -47 5 -48 -2 -2 -22 34 -44 80 -52 107 -74 203 -68 291 2 37 0 67 -4 67 -5 0 -9 -60 -9 -133 0 -157 12 -210 77 -352 57 -123 61 -174 21 -315 -45 -164 -60 -353 -38 -485 4 -27 7 -51 6 -52 -6 -7 -99 132 -130 193 -52 101 -88 222 -141 469 -57 269 -85 368 -131 465 -51 110 -134 229 -134 193 0 -5 27 -78 59 -165 68 -180 94 -267 116 -392 8 -49 15 -90 15 -92 0 -2 -37 17 -82 41 -149 78 -269 209 -321 349 -27 76 -35 48 -12 -49 21 -91 77 -195 134 -248 25 -23 81 -62 124 -86 84 -46 137 -93 162 -141 9 -17 24 -79 35 -138 69 -377 143 -486 568 -836 143 -117 245 -220 316 -321 25 -35 46 -66 46 -68 0 -5 -157 79 -275 147 -44 26 -120 83 -170 127 -72 65 -91 88 -96 116 -6 36 -13 44 -196 234 -128 132 -144 165 -179 369 -26 153 -59 256 -92 282 -14 11 -15 10 -7 -7 33 -78 56 -170 74 -296 33 -230 50 -264 235 -478 46 -53 -274 199 -358 282 l-89 88 7 82 c3 45 9 114 12 154 4 44 2 90 -5 119 -15 60 -72 183 -78 168 -2 -7 5 -57 17 -113 17 -86 19 -121 14 -223 -6 -98 -9 -118 -19 -104 -30 41 -34 -8 -5 -71 27 -60 96 -126 230 -218 79 -54 159 -122 255 -218 129 -128 137 -138 105 -131 -19 3 -86 33 -150 65 -104 54 -260 108 -260 91 0 -4 60 -39 133 -79 135 -73 262 -123 315 -123 24 0 45 -16 108 -81 89 -91 185 -169 354 -284 63 -43 152 -108 197 -144 l82 -65 57 -149 c31 -81 54 -151 50 -154 -5 -6 -114 21 -123 31 -3 3 -14 37 -25 77 -23 87 -30 97 -139 187 -46 39 -100 91 -119 117 -41 54 -51 44 -20 -20 13 -28 60 -81 121 -138 95 -90 134 -147 127 -184 -2 -13 -9 -11 -34 11 -18 14 -35 26 -38 26 -13 0 -5 -46 15 -86 24 -51 57 -77 178 -143 139 -75 138 -75 192 -222 26 -71 61 -159 78 -195 l31 -65 -27 3 c-23 3 -35 19 -87 123 -49 97 -61 116 -66 97 -5 -22 -11 -18 -78 51 -39 41 -79 90 -87 108 l-14 34 0 -40 c-1 -52 24 -104 88 -188 29 -38 63 -92 77 -120 l24 -52 -31 -8 c-26 -7 -36 -4 -56 15 -46 43 -116 143 -151 216 -30 62 -34 80 -30 127 3 30 1 55 -3 55 -14 0 -22 -69 -17 -156 2 -46 4 -84 3 -84 -1 0 -17 21 -35 48 -19 26 -55 70 -81 97 l-46 50 -6 180 c-6 202 -25 296 -77 393 -33 62 -116 172 -130 172 -5 0 7 -33 26 -74 36 -75 69 -213 77 -320 l4 -59 -28 34 c-46 56 -76 119 -99 208 -25 99 -38 127 -92 200 -23 29 -65 102 -95 162 -30 60 -58 109 -63 109 -13 0 95 -254 128 -303 53 -77 73 -128 93 -235 28 -148 55 -204 117 -243 48 -30 49 -31 56 -90 14 -140 67 -272 140 -357 l41 -46 -40 23 c-61 36 -175 123 -226 172 -38 37 -53 64 -97 174 -54 138 -71 217 -73 350 -2 122 -18 44 -27 -130 l-7 -140 -28 59 c-39 82 -64 198 -77 356 -25 293 -55 350 -269 508 -64 47 -151 114 -193 150 l-78 65 6 67 c4 43 2 80 -6 104 -12 38 -108 162 -117 152 -3 -2 12 -41 32 -85 35 -79 57 -181 39 -181 -6 0 -31 21 -56 48 -64 65 -95 136 -109 255 -11 87 -10 110 6 195 31 159 25 248 -28 462 -25 102 -48 194 -50 205 -14 61 -4 -135 13 -271 20 -164 26 -349 12 -358 -10 -6 -87 125 -104 175 -22 68 -28 74 -22 24 4 -27 23 -104 44 -170 21 -66 40 -131 43 -144 6 -24 -12 -111 -23 -111 -9 0 -105 160 -148 245 -73 147 -130 340 -132 445 -1 25 -5 54 -10 65 -12 27 -3 -92 17 -215 46 -294 136 -552 261 -746 63 -97 191 -224 335 -329 89 -66 104 -81 88 -87 -31 -11 -80 8 -154 58 -37 26 -70 45 -72 42 -10 -10 124 -139 158 -153 22 -9 67 -15 111 -15 75 0 75 0 128 -46 121 -107 201 -229 233 -359 14 -58 39 -284 32 -291 -2 -2 -14 27 -27 64 -66 189 -194 354 -359 461 -121 78 -91 31 109 -174 86 -88 168 -180 183 -205 28 -48 106 -285 126 -381 36 -174 195 -360 413 -484 l41 -23 -56 -12 -56 -11 -103 56 c-104 58 -163 104 -174 137 -5 18 -24 25 -24 10 0 -19 121 -170 154 -192 19 -14 32 -28 30 -32 -3 -4 -32 -8 -65 -8 -55 0 -61 2 -99 40 -31 31 -44 57 -64 122 -14 46 -30 114 -35 152 -5 37 -13 71 -17 75 -11 11 18 -267 35 -327 7 -22 6 -30 -2 -27 -7 2 -24 6 -38 9 -23 5 -28 13 -38 66 -15 77 -16 193 -1 220 17 31 7 34 -20 6 -12 -14 -30 -49 -40 -78 l-17 -53 -13 41 c-11 36 -10 56 9 145 35 174 27 239 -54 399 -44 87 -83 146 -70 106 20 -64 27 -139 35 -395 8 -270 15 -334 45 -403 7 -16 4 -17 -47 -2 -29 9 -56 19 -60 22 -16 16 -68 230 -69 286 -1 53 -2 57 -10 31 -16 -52 -22 -197 -11 -239 7 -22 9 -42 7 -45 -3 -2 -23 4 -46 15 -47 21 -149 146 -149 182 0 42 21 73 67 100 70 40 137 106 182 178 40 63 42 84 5 43 -21 -24 -93 -63 -101 -55 -3 2 -7 31 -10 63 -5 55 -2 65 37 141 54 105 48 127 -9 28 -49 -86 -71 -151 -71 -212 0 -37 -4 -44 -30 -58 -16 -8 -30 -13 -30 -12 0 1 14 40 30 86 46 124 62 212 63 335 0 115 -16 200 -53 278 l-19 42 7 -100 c9 -129 6 -290 -8 -364 -6 -32 -28 -117 -50 -190 -29 -97 -40 -152 -41 -204 l-1 -72 -19 75 c-33 128 -34 185 -9 318 19 97 21 127 13 163 l-11 44 -1 -46 c0 -26 -15 -90 -31 -144 -18 -59 -30 -122 -31 -159 l-1 -61 -14 45 c-25 78 -27 168 -9 315 9 77 23 163 30 190 22 79 47 323 39 379 -9 66 -27 117 -58 163 -31 45 -32 35 -6 -59 20 -73 25 -180 10 -228 -7 -24 -8 -24 -15 -5 -28 72 -50 114 -90 171 -45 65 -45 65 -45 152 0 96 -10 125 -76 228 -21 33 -73 129 -114 212 -41 84 -78 152 -83 152 -4 0 -5 -17 -1 -37 12 -69 51 -157 116 -268 36 -61 73 -124 82 -142 17 -34 22 -143 7 -143 -5 0 -56 53 -113 117 -57 65 -149 166 -206 226 -164 173 -220 250 -258 352 -19 51 -23 55 -23 30 -1 -49 26 -139 63 -214 47 -93 129 -198 297 -381 172 -188 249 -289 300 -394 l39 -80 -73 -21 c-39 -12 -94 -32 -120 -43 -85 -38 -138 -27 -218 45 -42 38 -49 30 -24 -30 21 -50 64 -98 103 -114 28 -11 62 -13 167 -7 91 4 143 3 167 -5 44 -15 45 -15 58 -327 9 -202 29 -389 46 -415 3 -5 3 -9 1 -9 -3 0 -33 41 -67 91 -95 138 -151 201 -242 269 -84 63 -223 219 -272 303 -36 63 -40 93 -40 334 -1 164 -4 225 -14 234 -10 10 -12 1 -12 -47 0 -32 -7 -115 -15 -184 -8 -69 -15 -127 -15 -130 -1 -3 -16 43 -35 101 -26 77 -50 127 -89 185 -30 43 -76 110 -102 147 -25 38 -54 89 -64 115 -18 46 -18 46 -24 16 -21 -98 48 -252 198 -441 57 -73 107 -145 110 -160 3 -16 8 -53 12 -83 7 -64 36 -144 60 -171 9 -11 14 -19 10 -19 -4 0 -67 37 -139 83 -173 108 -277 210 -367 361 -77 129 -161 248 -176 253 -7 2 5 -29 27 -69 21 -41 58 -122 83 -182 99 -235 160 -300 462 -493 16 -10 10 -12 -36 -13 -60 0 -110 -25 -205 -100 -27 -22 -55 -40 -61 -40 -6 0 -24 18 -39 41 -30 43 -183 175 -192 165 -14 -13 25 -71 79 -119 70 -61 98 -104 73 -113 -37 -15 -110 6 -216 60 -99 50 -117 56 -172 56 l-62 0 56 -28 c30 -15 100 -60 156 -99 119 -86 175 -113 242 -116 115 -5 -6 -35 -185 -46 -95 -6 -141 -13 -175 -28 -45 -20 -86 -56 -43 -38 10 4 71 11 134 16 343 26 396 37 482 103 45 35 98 118 98 155 0 27 41 44 84 36 17 -4 70 -20 118 -36 47 -16 102 -29 122 -29 27 0 46 -9 77 -37 37 -33 40 -40 35 -72 -6 -34 -5 -35 7 -13 13 22 14 22 29 5 17 -20 86 -131 112 -181 l17 -32 -56 0 -55 0 0 34 c0 32 -3 35 -82 71 -83 37 -208 61 -208 38 0 -25 91 -83 130 -83 33 0 23 -18 -27 -50 -98 -63 -173 -64 -324 -5 -136 52 -141 53 -84 0 113 -104 227 -131 431 -100 205 31 309 8 420 -94 70 -64 169 -129 274 -181 l85 -42 -163 7 c-90 3 -218 12 -285 20 l-121 13 -91 96 c-94 101 -135 130 -67 49 22 -27 52 -67 66 -91 l27 -43 -38 6 c-92 16 -277 66 -355 98 -146 57 -235 114 -330 209 -72 72 -88 84 -88 65 1 -96 159 -262 308 -323 l54 -22 -51 -7 c-90 -12 -383 25 -413 52 -10 9 -34 44 -53 79 -41 73 -75 104 -164 148 -113 57 -123 54 -50 -13 53 -48 169 -197 169 -216 0 -3 -78 -5 -172 -5 -104 0 -167 -4 -158 -9 21 -13 199 -49 300 -61 47 -6 219 -15 382 -20 164 -4 303 -12 310 -17 25 -15 -75 -23 -392 -31 -333 -9 -353 -12 -402 -60 -37 -35 -35 -41 10 -31 88 19 300 38 502 44 197 6 222 5 301 -14 63 -15 144 -24 305 -31 348 -15 416 -23 407 -45 -7 -19 2 -19 30 -1 78 50 971 57 1285 10 459 -68 750 -230 984 -550 131 -180 201 -381 202 -579 1 -185 -41 -307 -153 -448 -114 -144 -278 -243 -551 -332 -149 -49 -300 -112 -300 -125 0 -4 38 6 85 22 47 16 183 49 303 73 121 24 232 49 247 55 15 6 30 9 32 7 2 -3 -19 -31 -46 -63 -28 -32 -48 -60 -46 -62 2 -2 35 15 74 37 39 22 71 37 71 34 0 -14 -130 -274 -163 -326 l-37 -57 -82 0 c-154 0 -261 45 -412 172 -150 127 -196 162 -202 155 -8 -8 22 -83 47 -118 26 -37 24 -42 -8 -25 -37 18 -175 62 -260 81 -37 8 -78 17 -90 20 -47 11 -20 -12 80 -67 276 -154 551 -251 785 -277 46 -5 86 -12 90 -16 10 -10 -33 -42 -102 -77 -95 -48 -192 -68 -330 -68 -201 0 -347 34 -411 95 -40 37 -46 28 -13 -18 15 -20 17 -29 7 -25 -7 3 -44 15 -81 27 -126 42 -270 155 -329 259 -13 23 -27 42 -32 42 -19 0 55 -139 103 -194 l29 -33 -128 44 c-141 48 -263 77 -416 98 -114 17 -185 19 -185 7 0 -5 29 -43 64 -84 117 -137 306 -257 461 -294 106 -24 286 -16 384 19 l73 26 89 -30 c48 -16 124 -34 167 -41 l80 -11 -62 -30 c-80 -40 -184 -143 -225 -224 -17 -34 -31 -70 -31 -80 0 -10 11 5 24 32 28 61 94 129 179 184 57 38 63 40 75 24 10 -15 7 -23 -26 -58 -58 -60 -112 -130 -112 -145 0 -9 14 -11 57 -5 92 11 155 40 215 98 77 74 141 158 130 169 -16 16 -121 -3 -180 -33 -31 -15 -58 -26 -60 -24 -24 24 85 95 145 95 60 0 187 27 255 54 l57 23 -52 -60 c-60 -69 -203 -198 -288 -260 -32 -23 -59 -45 -59 -49 0 -13 72 -9 135 7 89 23 169 71 252 150 47 45 72 63 69 51 -3 -12 -13 -113 -21 -226 -16 -230 -30 -294 -80 -394 -19 -38 -33 -71 -31 -73 2 -2 25 30 51 71 52 84 93 191 102 267 5 41 8 46 18 33 9 -13 11 27 7 187 l-5 204 69 90 c38 50 81 107 97 125 l27 35 -34 -95 c-19 -52 -37 -103 -41 -113 -4 -9 -3 -17 3 -17 17 0 108 128 152 213 63 119 73 103 39 -60 -53 -246 -57 -276 -69 -438 -15 -214 -28 -328 -46 -399 -8 -32 -13 -60 -10 -63 10 -10 37 105 57 237 22 150 40 230 65 287 l17 38 10 -52 c5 -29 13 -53 17 -53 9 0 44 163 76 354 26 164 56 273 99 367 22 49 24 51 24 24 1 -53 -18 -264 -44 -480 -13 -115 -29 -289 -34 -385 -11 -208 -26 -268 -82 -323 l-38 -38 30 6 c29 7 31 5 24 -16 -36 -116 -173 -248 -315 -305 -29 -12 -38 -20 -31 -27 18 -18 164 8 222 40 86 46 145 134 179 262 l17 64 6 -124 c4 -68 10 -214 14 -324 l7 -200 18 60 c52 167 64 407 38 786 -13 204 -6 345 31 557 10 63 19 118 19 124 0 5 5 6 10 3 16 -10 12 -105 -11 -285 -15 -117 -19 -196 -16 -270 5 -98 27 -193 48 -205 5 -4 6 83 2 202 -6 200 2 391 15 378 4 -4 9 -88 12 -188 6 -169 8 -186 32 -239 18 -39 39 -66 67 -85 38 -26 40 -31 41 -78 1 -89 20 -228 44 -320 25 -94 72 -212 81 -203 3 3 -4 43 -15 90 -48 201 -61 404 -39 580 12 91 22 104 34 42 3 -20 31 -111 62 -203 72 -216 75 -265 38 -530 -30 -214 -31 -384 -4 -450 l15 -35 12 91 c7 50 30 153 52 229 72 248 75 393 15 713 -25 136 -44 360 -26 311 5 -14 33 -101 62 -195 l53 -170 6 -182 c5 -170 13 -226 24 -172 3 13 8 105 11 204 6 179 21 303 35 288 15 -16 40 -202 40 -295 0 -56 -10 -150 -24 -231 -30 -164 -44 -313 -29 -304 6 4 13 26 16 49 3 24 28 115 55 203 44 141 85 341 122 595 l6 45 9 -70 c15 -129 -4 -334 -49 -529 -9 -38 -14 -71 -12 -74 9 -9 58 113 81 203 47 184 55 339 29 581 -15 146 -15 151 6 254 12 58 25 114 29 125 4 10 11 -59 14 -155 4 -96 10 -185 13 -197 13 -48 24 -19 24 65 0 48 5 125 12 170 9 68 13 80 22 65 7 -12 11 -116 11 -305 0 -159 3 -288 6 -288 3 0 14 24 24 53 25 75 30 237 11 382 -26 200 -29 276 -16 353 6 39 15 74 20 77 14 9 74 -332 89 -505 l8 -104 -58 -165 c-33 -90 -59 -169 -59 -175 1 -6 11 2 24 18 l23 28 6 -53 c26 -223 15 -467 -24 -596 -17 -55 -31 -77 -70 -115 -27 -27 -47 -48 -44 -48 3 0 23 9 44 20 74 37 112 103 137 235 l7 40 8 -58 c5 -33 19 -96 31 -140 l23 -82 5 105 5 105 7 -71 c11 -98 53 -238 91 -303 65 -108 166 -164 286 -159 l66 3 -47 23 c-133 65 -245 171 -294 277 -30 64 -32 90 -5 75 36 -19 43 -10 13 15 -38 32 -68 102 -88 211 -14 72 -16 132 -13 309 7 407 2 563 -30 840 -16 143 -32 310 -36 370 -6 107 -5 109 11 80 39 -69 77 -212 115 -430 58 -336 66 -362 87 -255 l8 45 23 -60 c23 -59 32 -106 70 -340 18 -112 37 -183 45 -174 2 2 -5 45 -15 94 -10 50 -26 189 -34 310 -14 184 -24 260 -66 465 -28 135 -52 259 -55 275 -3 17 15 -16 39 -72 53 -121 85 -178 144 -255 43 -56 73 -77 58 -40 -32 79 -74 205 -66 197 5 -5 49 -62 97 -125 l86 -115 -5 -178 c-5 -140 -3 -176 6 -168 10 7 16 -6 25 -55 7 -36 24 -93 37 -127 25 -61 104 -191 112 -183 2 2 -12 32 -31 67 -46 85 -64 161 -76 321 -5 73 -12 162 -15 197 l-4 63 75 -72 c91 -86 184 -134 292 -151 41 -6 77 -8 80 -4 4 4 -7 16 -23 28 -76 55 -209 174 -285 254 -112 118 -301 372 -259 348 101 -58 176 -130 217 -210 12 -22 21 -34 22 -27 0 7 -14 40 -31 74 -41 81 -134 177 -211 218 l-60 32 -74 152 c-41 83 -74 155 -74 159 0 5 17 -1 38 -14 20 -12 52 -31 70 -41 44 -26 40 -13 -13 52 -24 30 -43 55 -41 57 1 2 25 -4 52 -12 27 -7 137 -32 246 -54 108 -22 235 -53 282 -69 47 -16 86 -26 86 -22 0 12 -151 77 -290 123 -74 25 -160 56 -190 69 l-55 25 80 7 c189 17 333 48 516 111 104 36 449 198 449 211 0 16 -260 -44 -352 -81 l-58 -24 25 33 c27 35 59 105 51 113 -8 8 -43 -15 -148 -99 -168 -134 -253 -178 -389 -199 -145 -22 -275 23 -441 155 -88 70 -101 84 -132 149 -134 280 -83 617 142 930 247 345 603 521 1145 566 149 13 607 14 884 2 172 -7 195 -10 227 -30 34 -22 49 -18 25 6 -18 18 88 29 408 43 162 7 245 15 310 31 81 19 106 20 303 14 209 -6 429 -26 499 -45 45 -12 50 -6 20 26 -49 54 -69 57 -409 66 -317 8 -417 16 -392 31 7 5 146 13 310 17 163 5 335 14 382 20 101 12 279 48 300 61 9 5 -56 9 -162 9 l-177 0 55 79 c30 44 85 108 122 141 74 68 64 71 -49 14 -89 -44 -120 -72 -167 -152 -23 -38 -47 -74 -55 -80 -28 -23 -328 -58 -408 -47 l-51 7 54 22 c113 46 235 153 282 247 25 51 34 100 19 98 -5 0 -25 -22 -45 -49 -110 -144 -356 -269 -647 -329 -57 -12 -105 -20 -107 -18 -5 5 66 109 99 145 17 17 26 32 20 32 -6 0 -51 -43 -100 -95 l-88 -95 -75 -10 c-102 -13 -339 -30 -424 -30 l-70 0 81 39 c102 50 209 120 278 182 109 100 220 126 411 95 132 -21 199 -20 272 2 64 20 153 75 192 118 30 32 29 32 -106 -20 -152 -59 -229 -58 -327 4 -50 32 -60 50 -27 50 39 0 130 58 130 83 0 22 -125 -1 -207 -38 -75 -34 -82 -40 -85 -69 -3 -30 -5 -31 -55 -34 -29 -2 -53 -1 -53 2 0 8 88 155 118 196 l27 38 12 -26 c13 -27 13 -27 7 7 -5 29 -1 38 32 72 32 33 45 39 79 39 22 0 72 12 110 25 159 57 199 56 216 -8 15 -55 59 -117 107 -151 86 -59 137 -70 472 -95 63 -5 124 -12 135 -16 17 -6 17 -4 -3 14 -34 30 -115 51 -196 51 -86 0 -195 15 -237 32 -30 13 -29 13 25 15 73 2 128 28 249 116 56 39 126 84 156 99 l56 28 -62 0 c-55 0 -73 -6 -174 -57 -96 -49 -121 -58 -168 -58 -36 0 -56 4 -59 13 -2 8 32 48 76 90 72 70 103 114 88 129 -10 10 -169 -131 -196 -174 l-27 -42 -39 26 c-21 15 -57 41 -79 58 -63 51 -99 65 -162 65 l-58 0 69 40 c97 57 161 105 239 179 83 79 117 135 193 311 32 74 70 156 86 183 15 26 23 47 18 47 -14 0 -79 -90 -169 -237 -89 -144 -156 -224 -238 -284 -56 -42 -270 -179 -279 -179 -3 0 4 13 16 29 27 39 46 94 54 161 4 30 9 67 12 83 3 15 55 91 116 170 144 184 181 259 185 376 l3 86 -20 -48 c-24 -57 -33 -72 -131 -208 -77 -108 -105 -165 -138 -279 -18 -64 -19 -64 -24 -30 -11 65 -27 225 -29 283 0 31 -4 57 -9 57 -14 0 -20 -96 -17 -285 3 -242 0 -252 -127 -409 -67 -84 -117 -135 -178 -181 -92 -70 -143 -125 -237 -260 -70 -101 -86 -120 -76 -91 20 56 37 215 46 417 5 125 12 246 16 268 9 57 40 66 208 57 140 -8 172 -2 214 37 28 25 72 108 72 134 0 14 -5 12 -27 -9 -53 -50 -105 -78 -142 -78 -20 0 -75 15 -121 34 -47 19 -102 38 -122 41 l-37 7 20 52 c42 106 141 235 368 481 178 193 266 329 297 461 20 90 14 126 -9 55 -33 -98 -99 -188 -272 -371 -49 -53 -137 -148 -194 -213 -57 -64 -107 -117 -112 -117 -5 0 -9 25 -9 55 0 59 21 110 86 212 68 107 114 211 128 291 11 62 -12 31 -84 -115 -39 -82 -92 -180 -116 -220 -66 -106 -74 -131 -74 -229 0 -82 -2 -88 -32 -126 -34 -43 -107 -183 -109 -208 -1 -8 -5 -4 -9 10 -15 48 -10 164 10 239 12 40 19 79 17 85 -7 20 -57 -81 -74 -149 -16 -65 -16 -78 1 -222 9 -85 21 -166 27 -181 6 -15 19 -97 30 -182 21 -164 20 -262 -5 -341 l-14 -44 -1 62 c-1 40 -12 97 -31 156 -16 52 -30 116 -31 143 0 37 -3 44 -9 29 -14 -33 -11 -87 11 -201 23 -119 22 -167 -8 -294 l-18 -75 -6 80 c-3 50 -19 121 -41 190 -60 185 -74 325 -55 555 8 103 1 104 -33 4 -62 -178 -43 -389 56 -638 7 -17 5 -17 -25 -2 -27 15 -31 21 -31 60 0 61 -22 125 -72 213 -56 98 -62 70 -7 -33 39 -74 41 -83 35 -138 -3 -33 -8 -61 -10 -63 -7 -7 -70 28 -98 55 -44 40 -41 21 6 -49 49 -72 110 -131 179 -171 46 -27 67 -58 67 -99 0 -35 -105 -163 -150 -184 -22 -10 -42 -16 -45 -14 -2 3 1 25 7 49 10 46 4 181 -10 235 -7 25 -10 16 -15 -50 -5 -71 -49 -249 -66 -267 -3 -3 -30 -13 -59 -22 -51 -15 -54 -14 -47 2 30 73 37 133 45 412 7 213 13 309 24 345 28 90 7 68 -57 -60 -83 -164 -93 -245 -52 -426 14 -64 14 -84 4 -120 l-12 -44 -17 54 c-10 29 -30 65 -45 80 -23 21 -26 22 -19 6 5 -11 9 -69 9 -130 -1 -131 -13 -166 -62 -176 -18 -3 -33 -5 -33 -3 0 1 5 15 11 30 8 24 39 267 39 314 0 13 -1 13 -10 0 -5 -8 -10 -31 -10 -50 0 -33 -36 -175 -58 -231 -6 -15 -27 -43 -48 -63 -35 -34 -41 -36 -104 -36 l-68 0 72 73 c78 79 133 153 122 165 -4 4 -12 -2 -18 -13 -23 -41 -87 -92 -183 -143 l-100 -54 -53 12 -53 12 58 35 c88 53 154 107 235 191 84 89 129 168 153 267 35 143 105 352 136 400 17 28 100 120 184 205 139 142 184 195 172 206 -9 9 -135 -82 -200 -145 -110 -105 -164 -188 -224 -341 l-33 -85 6 90 c17 264 91 425 262 570 53 45 54 45 128 45 43 0 90 6 110 15 34 14 168 144 159 153 -2 3 -35 -16 -72 -42 -73 -50 -134 -72 -158 -59 -11 7 11 28 93 88 144 108 265 224 324 315 153 232 257 565 292 938 3 30 1 52 -4 52 -6 0 -10 -24 -10 -54 0 -175 -97 -441 -240 -659 l-44 -67 -13 53 c-13 52 -13 57 26 178 38 120 65 238 57 246 -2 3 -11 -18 -19 -46 -16 -55 -95 -201 -109 -201 -15 0 -8 204 12 366 11 87 19 188 19 224 l-1 65 -10 -45 c-6 -25 -27 -112 -49 -195 -50 -198 -56 -264 -32 -390 10 -57 17 -138 16 -188 -3 -158 -36 -248 -123 -332 l-52 -50 4 55 c3 35 18 86 42 138 21 46 36 86 33 88 -9 9 -90 -91 -110 -135 -16 -36 -19 -58 -14 -116 l5 -72 -61 -53 c-34 -29 -120 -97 -192 -150 -71 -53 -147 -115 -167 -138 -70 -78 -102 -168 -113 -322 -15 -210 -45 -348 -94 -439 l-18 -34 -7 139 c-3 77 -9 154 -12 171 -12 64 -23 20 -22 -90 0 -131 -7 -160 -74 -323 -45 -111 -54 -125 -107 -172 -54 -47 -144 -113 -216 -158 -29 -18 -28 -17 9 25 72 82 146 279 146 390 0 24 8 34 45 55 64 38 92 92 120 235 24 121 44 171 97 249 34 49 140 302 127 302 -5 0 -34 -50 -65 -112 -31 -61 -73 -134 -94 -162 -52 -71 -68 -104 -91 -198 -11 -45 -27 -96 -36 -112 -18 -36 -84 -128 -88 -124 -2 2 1 44 6 93 12 113 41 219 79 295 17 33 26 60 21 60 -17 0 -101 -111 -133 -173 -51 -101 -68 -192 -76 -394 l-7 -183 -46 -47 c-25 -27 -63 -72 -83 -100 -21 -29 -39 -53 -41 -53 -2 0 1 17 7 37 12 45 7 188 -8 203 -7 7 -9 -7 -6 -47 3 -52 0 -66 -37 -138 -22 -44 -68 -113 -102 -153 -57 -69 -62 -73 -92 -66 -18 3 -33 8 -35 9 -8 7 54 114 104 180 63 83 84 130 84 182 l-1 38 -14 -34 c-8 -18 -48 -67 -87 -108 -68 -69 -73 -73 -79 -51 -4 19 -17 1 -67 -99 -54 -107 -65 -123 -86 -123 l-25 0 34 73 c18 39 52 126 75 192 49 138 51 141 192 217 137 73 198 139 198 216 0 17 -7 15 -46 -14 -27 -21 -34 -23 -34 -10 0 44 36 97 115 170 91 83 140 145 151 192 6 28 5 28 -27 -11 -44 -53 -102 -107 -166 -157 -65 -50 -82 -75 -104 -161 -9 -38 -19 -71 -22 -73 -10 -10 -118 -37 -124 -31 -3 4 18 71 48 149 67 180 48 161 460 448 52 36 143 113 203 173 88 86 116 107 139 107 52 0 180 50 314 123 73 40 133 75 133 79 0 16 -155 -37 -265 -91 -198 -99 -202 -93 -40 67 77 76 178 165 225 197 195 135 259 201 275 281 8 43 0 55 -19 29 -11 -15 -14 -1 -20 107 -6 107 -4 139 14 222 12 53 19 102 17 109 -6 17 -52 -78 -72 -148 -18 -60 -18 -78 1 -292 6 -70 6 -73 -26 -113 -40 -50 -189 -180 -330 -286 -107 -80 -108 -77 -8 38 105 120 133 192 163 413 14 103 37 192 70 270 8 17 7 18 -7 7 -32 -26 -67 -129 -88 -257 -36 -225 -50 -254 -195 -405 -162 -169 -185 -197 -185 -227 0 -23 -17 -42 -85 -102 -47 -41 -103 -87 -124 -102 -35 -26 -315 -179 -327 -179 -12 0 86 128 151 198 38 41 148 140 245 221 225 187 261 220 332 309 101 127 159 272 198 498 27 160 55 197 214 285 144 81 231 214 251 384 4 43 4 46 -6 25 -69 -152 -85 -177 -163 -255 -58 -57 -105 -94 -166 -126 -47 -26 -86 -45 -88 -44 -6 5 28 175 50 255 11 41 47 146 80 234 32 87 56 161 54 164 -14 13 -100 -121 -140 -217 -39 -92 -74 -218 -111 -397 -56 -268 -92 -390 -145 -499 -42 -84 -129 -219 -137 -211 -1 1 2 29 7 62 22 134 4 336 -46 509 -33 116 -29 154 29 283 26 56 54 127 62 159 16 62 21 308 7 317 -5 3 -8 -36 -8 -87 0 -71 -5 -108 -23 -162 -21 -64 -80 -189 -87 -183 -1 2 2 23 6 48 26 132 2 116 -34 -22 -16 -62 -32 -119 -35 -125 -4 -7 -32 37 -66 102 l-59 115 12 47 c7 26 44 112 81 192 37 80 76 171 86 201 24 71 25 184 2 225 -9 17 -16 23 -17 15 -1 -58 -25 -194 -46 -267 -28 -98 -133 -328 -145 -316 -26 29 -12 187 27 306 14 43 24 81 21 84 -8 7 -55 -70 -93 -152 -81 -178 -72 -330 32 -510 71 -124 102 -188 128 -267 31 -93 49 -229 40 -314 l-7 -66 -16 63 c-22 88 -88 196 -107 176 -3 -3 6 -35 21 -72 68 -171 89 -337 60 -473 -18 -81 -19 -83 -80 -137 l-62 -54 -33 111 c-18 61 -34 127 -37 147 -4 32 -2 37 24 48 44 20 62 61 72 167 5 52 12 100 16 106 3 5 2 10 -3 10 -5 0 -15 -28 -22 -62 -17 -86 -37 -126 -71 -144 -29 -14 -29 -14 -29 13 0 47 30 205 52 268 11 33 40 95 65 138 29 49 47 95 51 123 2 24 2 44 -1 44 -2 0 -12 -23 -22 -52 -9 -28 -52 -122 -95 -208 -43 -86 -86 -183 -96 -215 -23 -83 -14 -181 31 -325 37 -118 50 -219 28 -227 -6 -2 -14 9 -18 25 -3 16 -37 86 -75 156 -39 71 -70 132 -70 136 0 5 -5 12 -12 16 -26 16 0 -103 40 -182 52 -106 55 -120 33 -202 -16 -60 -27 -81 -71 -129 -29 -32 -69 -82 -88 -110 -19 -29 -36 -53 -38 -53 -1 0 17 57 42 128 73 211 75 310 10 447 -31 67 -32 73 -25 144 6 56 13 77 28 87 72 51 109 85 128 119 35 63 75 190 79 258 l5 62 -23 -75 c-30 -95 -85 -194 -137 -245 -23 -21 -41 -36 -41 -32 0 4 16 40 36 80 74 145 109 285 119 474 8 140 -6 121 -45 -62 -36 -165 -49 -197 -134 -308 -76 -99 -115 -176 -117 -227 l-1 -35 -25 55 c-25 53 -25 58 -14 134 13 97 37 138 119 205 64 53 96 93 90 111 -2 6 -14 4 -32 -5 -16 -9 -31 -13 -33 -11 -2 2 12 50 31 107 43 123 60 262 46 390 -9 86 -29 146 -74 217 l-25 40 69 139 c38 76 100 188 139 248 38 61 67 112 65 114 -3 3 -12 -6 -21 -18 -8 -13 -55 -74 -104 -136 -92 -118 -164 -224 -174 -256 -11 -32 -25 -21 -53 41 -15 32 -31 59 -35 60 -11 0 -1 -32 35 -112 17 -36 28 -70 25 -75 -3 -5 -11 -67 -17 -139 -14 -161 -38 -247 -84 -299 l-35 -40 -1 140 c0 77 -5 167 -10 200 -18 113 -31 165 -41 165 -17 0 -69 -123 -85 -201 -9 -41 -19 -137 -22 -214 l-7 -140 -31 32 c-39 41 -46 74 -38 193 5 74 3 99 -8 114 -13 17 -16 6 -28 -103 -17 -161 -8 -204 66 -305 48 -65 54 -80 54 -123 0 -98 30 -249 76 -378 162 -459 171 -494 159 -623 l-7 -74 -22 49 c-13 26 -53 84 -90 128 -85 101 -112 147 -147 248 -38 114 -60 255 -68 442 l-6 160 -8 -230 c-12 -374 2 -437 127 -594 59 -74 96 -130 96 -144 0 -3 -17 4 -37 14 -37 19 -133 27 -133 11 0 -5 11 -14 24 -20 42 -19 108 -85 127 -127 23 -49 25 -153 5 -219 -13 -43 -143 -255 -157 -256 -9 0 -53 144 -50 165 1 11 13 55 27 98 31 100 31 159 -2 244 -14 38 -34 118 -45 178 -10 61 -32 154 -48 208 -27 92 -28 100 -15 144 24 78 13 233 -16 233 -4 0 -12 -21 -18 -47 -9 -47 -10 -45 -11 37 0 47 6 132 14 190 26 190 15 210 -24 44 -26 -111 -40 -291 -32 -399 6 -74 4 -84 -23 -140 l-29 -60 -9 35 c-17 62 -4 381 21 520 l23 125 58 57 c46 44 62 68 74 109 17 57 22 209 7 209 -11 0 -16 -16 -30 -90 -5 -30 -14 -66 -19 -80 -10 -27 -49 -66 -57 -59 -9 9 63 305 100 408 62 178 115 271 335 591 132 191 155 229 147 236 -4 5 -102 -103 -174 -190 l-32 -39 -16 39 c-8 21 -33 61 -54 88 -50 66 -67 101 -76 156 -4 25 -15 59 -24 75 l-16 30 -3 -34 c-6 -60 18 -163 60 -261 24 -54 43 -116 45 -145 4 -48 2 -54 -64 -146 -37 -53 -73 -105 -80 -115 -10 -16 -12 -7 -12 50 -1 69 -1 70 -44 110 -58 54 -66 72 -83 174 -7 46 -16 88 -20 91 -3 3 -4 -55 -2 -130 l3 -137 36 -53 c54 -80 59 -92 59 -153 0 -45 -7 -69 -41 -133 -56 -106 -121 -260 -155 -368 -15 -49 -29 -92 -31 -94 -1 -2 -12 7 -23 20 -36 41 -23 122 44 277 31 72 61 154 67 182 12 54 4 160 -11 160 -5 0 -8 -8 -8 -17 3 -40 -17 -105 -77 -255 -35 -86 -69 -176 -75 -199 -14 -52 -24 -41 -46 54 l-14 62 4 -95 c5 -99 30 -195 79 -298 20 -43 23 -59 16 -95 -22 -115 -31 -339 -20 -487 7 -83 14 -158 17 -168 3 -9 -11 12 -30 48 -20 36 -65 104 -101 152 l-64 87 20 58 c35 101 36 184 3 299 -25 85 -29 115 -28 214 0 98 5 127 28 195 15 44 39 99 53 123 13 24 23 46 20 48 -9 9 -55 -59 -86 -126 -68 -145 -76 -268 -32 -471 25 -119 21 -160 -22 -213 l-24 -29 -22 46 c-39 80 -51 145 -67 357 -8 113 -19 209 -25 215 -16 16 -11 -439 6 -541 18 -102 69 -219 140 -318 28 -40 42 -67 35 -71 -6 -4 -34 -9 -64 -12 -51 -5 -53 -5 -84 33 -18 22 -38 54 -44 72 -18 48 -31 39 -26 -19 9 -89 57 -129 181 -149 128 -20 171 -56 245 -205 56 -114 107 -334 117 -510 l5 -90 -35 100 c-32 89 -35 105 -25 142 5 23 9 61 9 85 -1 26 -3 33 -6 18 -2 -14 -9 -41 -15 -60 -11 -33 -13 -28 -65 150 -30 102 -59 190 -65 195 -6 7 -8 1 -4 -15 3 -14 19 -88 36 -165 17 -77 37 -162 45 -188 13 -42 12 -56 -1 -109 -18 -71 -11 -116 35 -207 64 -126 84 -266 58 -413 -9 -49 -20 -96 -26 -105 -9 -16 -11 -15 -20 9 -5 14 -31 72 -56 128 -52 113 -71 197 -82 365 l-7 110 -9 -110 c-17 -217 -14 -352 11 -435 12 -42 27 -113 33 -157 l11 -82 -33 -46 c-22 -31 -35 -41 -40 -33 -11 22 -39 234 -46 352 l-6 111 -14 -60 c-24 -105 -27 -190 -8 -256 9 -34 15 -63 12 -65 -2 -2 -20 3 -40 11 -21 8 -37 11 -37 6 0 -5 18 -32 41 -61 70 -88 70 -98 5 -188 -31 -42 -66 -90 -79 -106 l-23 -29 -27 99 c-36 135 -78 340 -78 389 -1 52 56 213 136 384 95 204 126 357 124 608 l-1 118 -13 -117 c-21 -196 -62 -333 -119 -403 -16 -19 -16 -14 -10 76 8 116 -9 171 -20 65 -12 -118 -61 -288 -120 -413 -30 -65 -61 -140 -67 -168 -21 -81 -28 -74 -27 21 1 49 -1 187 -4 306 l-6 218 33 55 c19 30 63 90 100 132 36 42 77 100 90 128 35 70 55 174 54 275 l-1 85 -14 -94 c-16 -113 -44 -202 -83 -262 -54 -85 -56 -82 -53 64 2 73 1 129 -3 125 -4 -4 -14 -49 -21 -100 -19 -128 -27 -147 -83 -202 l-49 -48 -9 68 c-21 172 -7 279 73 574 34 123 37 147 38 270 0 106 -4 153 -21 220 -17 72 -19 96 -12 160 29 231 124 410 293 549 45 36 104 89 133 118 123 122 169 314 128 544 -19 109 -88 320 -100 307 -3 -2 5 -56 16 -119 36 -196 28 -529 -13 -529 -20 0 -67 62 -83 110 -9 27 -22 98 -29 157 l-12 108 -13 -132 c-17 -165 -8 -216 49 -266 20 -19 43 -36 51 -39 21 -7 -30 -68 -118 -141 -223 -183 -297 -260 -349 -362 l-25 -50 6 40 c13 84 50 186 125 350 43 94 88 202 100 240 25 80 40 265 21 265 -6 0 -11 -9 -11 -19 0 -36 -68 -246 -119 -367 -28 -65 -81 -171 -117 -234 -101 -176 -108 -197 -108 -320 -1 -85 5 -126 28 -215 28 -108 45 -258 32 -291 -6 -16 -8 -15 -22 5 -9 12 -26 48 -39 79 l-24 57 -1 -38 c0 -21 16 -102 36 -179 45 -174 44 -235 -9 -415 -20 -68 -42 -153 -49 -190 l-12 -68 -7 45 c-4 25 -8 106 -9 180 -3 195 -12 211 -38 70 -23 -121 -29 -280 -13 -338 6 -18 19 -90 31 -158 l21 -125 -48 -142 -48 -142 2 -294 c1 -161 1 -292 -1 -290 -2 2 -23 69 -46 149 -57 198 -62 296 -26 550 14 103 31 281 36 400 6 118 12 231 15 250 2 19 -7 -8 -20 -60 -29 -109 -105 -482 -105 -511 0 -10 -4 -19 -9 -19 -14 0 -24 151 -16 232 4 40 22 132 41 203 18 72 40 169 48 217 13 75 21 94 60 148 64 87 86 164 93 330 6 125 5 134 -10 121 -10 -7 -28 -50 -42 -95 -26 -85 -63 -153 -50 -91 25 117 27 144 15 285 l-13 145 62 126 c92 189 134 388 107 507 -13 54 -21 36 -23 -51 -4 -146 -58 -304 -144 -417 -64 -84 -67 -97 -67 -275 -1 -102 -9 -218 -22 -320 -22 -164 -37 -210 -87 -270 l-25 -30 7 30 c89 388 106 511 116 860 5 171 13 351 17 400 10 127 20 142 248 388 118 126 175 242 214 432 42 209 35 236 -19 75 -72 -211 -158 -357 -306 -520 -99 -109 -131 -167 -144 -264 -14 -96 -27 -102 -35 -18 -17 168 -68 320 -213 624 -53 112 -113 250 -134 308 -21 58 -38 98 -38 90z m-1431 -1231 c11 -199 27 -256 87 -316 23 -24 49 -43 58 -43 13 0 15 -19 14 -122 -1 -68 -4 -148 -8 -178 -6 -48 -7 -51 -13 -25 -4 19 -31 54 -71 93 -36 34 -74 82 -85 106 -37 78 -55 198 -56 371 -1 144 1 167 23 228 13 40 27 65 32 60 5 -5 13 -83 19 -174z m3631 25 c7 -44 9 -109 5 -183 -15 -253 -38 -323 -143 -433 -40 -42 -74 -85 -74 -95 -4 -56 -18 91 -18 197 l-1 125 37 20 c81 43 110 126 123 348 5 87 12 163 16 169 10 16 41 -68 55 -148z m-5068 -1197 l6 -58 -21 26 c-17 21 -19 34 -13 73 8 57 20 40 28 -41z m6448 -30 l-22 -22 6 45 c13 92 17 100 28 47 9 -44 7 -51 -12 -70z m-4396 -86 c15 -30 15 -38 0 -113 -32 -156 -135 -447 -148 -416 -3 8 -11 49 -17 91 -19 113 -4 185 106 516 5 15 23 -9 59 -78z m2434 -70 c67 -203 76 -258 61 -364 -6 -46 -15 -89 -19 -95 -16 -25 -120 279 -151 438 l-12 65 33 57 c18 32 34 56 35 55 2 -1 26 -72 53 -156z m-1269 -57 c-71 -299 -72 -310 -67 -454 3 -109 9 -150 30 -215 14 -44 28 -105 32 -135 3 -30 13 -100 21 -155 9 -61 14 -151 12 -230 l-3 -130 -18 95 c-9 52 -27 147 -40 210 l-22 115 -5 -65 -5 -65 -18 94 c-11 54 -16 110 -12 130 4 26 3 32 -4 21 -15 -22 -14 -89 5 -225 14 -97 15 -128 5 -163 -7 -23 -16 -40 -20 -38 -23 15 -51 334 -51 580 0 190 11 350 36 534 l17 123 66 60 c36 32 67 56 69 51 1 -4 -11 -66 -28 -138z m-1065 -491 c-4 -27 -22 -86 -40 -133 -18 -47 -35 -92 -38 -100 -3 -8 -6 0 -6 19 -1 28 77 260 88 261 2 0 0 -21 -4 -47z m2212 -208 l4 -50 -26 70 c-45 118 -65 186 -65 213 1 43 82 -176 87 -233z m-1503 -3975 c31 -137 31 -130 9 -344 l-17 -168 -22 25 c-31 37 -61 121 -73 211 -13 91 -14 315 -2 334 11 19 31 -134 31 -242 0 -71 3 -87 12 -78 11 11 25 180 27 341 1 24 3 42 5 40 2 -2 16 -56 30 -119z"/>
 <path d="M180 4923 c-8 -2 -20 -6 -27 -8 -20 -6 3 -57 42 -95 26 -25 45 -34 82 -37 58 -6 133 12 133 32 0 20 -57 83 -91 101 -27 13 -107 18 -139 7z"/>
 <path d="M9675 4911 c-36 -22 -85 -77 -85 -96 0 -21 66 -38 128 -33 51 5 60 9 94 48 48 54 50 85 7 94 -57 11 -114 6 -144 -13z"/>
 <path d="M630 4894 c-50 -8 -150 -37 -155 -45 -8 -12 129 -106 221 -151 45 -22 115 -48 155 -59 77 -20 314 -47 325 -37 11 11 -26 67 -87 133 -113 121 -294 183 -459 159z"/>
 <path d="M9195 4890 c-112 -20 -209 -74 -291 -162 -53 -55 -90 -115 -80 -126 11 -10 248 17 326 38 41 10 116 39 165 64 99 50 220 135 208 147 -33 31 -236 55 -328 39z"/>
 <path d="M1305 4873 c-49 -5 -149 -25 -158 -30 -17 -11 158 -212 247 -282 124 -99 201 -139 380 -196 214 -69 310 -89 389 -81 33 3 62 8 64 10 2 2 -9 25 -25 52 -16 27 -50 91 -76 142 -57 109 -155 220 -240 271 -147 88 -394 137 -581 114z"/>
 <path d="M8441 4870 c-222 -31 -426 -148 -519 -298 -41 -67 -152 -275 -149 -279 2 -2 31 -6 64 -9 79 -8 175 12 389 81 189 61 275 107 404 218 69 58 227 238 224 255 -4 26 -295 48 -413 32z"/>
 <path d="M2614 4798 c3 -18 20 -63 38 -100 39 -86 105 -149 201 -193 108 -49 115 -49 123 -11 8 48 -12 140 -43 198 -47 86 -146 138 -266 138 l-59 0 6 -32z"/>
 <path d="M7222 4815 c-59 -18 -115 -59 -146 -106 -41 -61 -68 -186 -50 -232 5 -13 12 -13 60 3 84 29 151 69 195 118 42 45 94 143 105 200 l7 32 -64 -1 c-35 0 -83 -6 -107 -14z"/>
 <path d="M2512 4613 c-51 -124 -57 -153 -57 -298 0 -172 17 -224 102 -315 53 -57 119 -107 129 -98 2 3 -5 27 -16 54 -40 92 -61 190 -85 399 -32 275 -36 305 -45 305 -4 0 -17 -21 -28 -47z"/>
 <path d="M3311 4623 c-63 -125 -80 -292 -39 -400 29 -78 101 -153 189 -197 64 -32 175 -64 185 -53 16 16 36 184 32 281 -3 100 -6 116 -33 165 -39 70 -128 150 -225 200 -43 23 -81 41 -84 41 -3 0 -14 -17 -25 -37z"/>
 <path d="M7436 4538 c-9 -68 -23 -184 -31 -258 -16 -147 -34 -223 -72 -314 -13 -32 -22 -60 -19 -63 16 -17 144 99 184 167 52 88 68 265 37 397 -17 71 -64 193 -75 193 -4 0 -14 -55 -24 -122z"/>
 <path d="M335 4617 c-27 -8 -72 -24 -100 -36 -47 -21 -49 -23 -31 -36 28 -21 134 -54 196 -61 36 -4 79 0 123 10 76 18 171 62 162 76 -3 5 -31 19 -63 31 -71 27 -214 35 -287 16z"/>
 <path d="M9455 4623 c-43 -9 -145 -47 -145 -54 0 -11 41 -34 105 -59 84 -32 205 -33 296 -2 36 13 75 29 85 37 18 13 16 15 -27 34 -96 43 -232 62 -314 44z"/>
 <path d="M6627 4506 c-118 -49 -249 -140 -326 -228 -84 -97 -148 -254 -176 -436 -27 -176 -27 -162 2 -162 45 0 146 31 220 68 208 102 330 289 352 535 8 95 4 247 -8 247 -3 0 -32 -11 -64 -24z"/>
 <path d="M3865 4448 c12 -105 37 -214 67 -291 38 -100 128 -234 209 -312 l61 -60 -5 45 c-16 122 -96 336 -174 462 -58 95 -142 208 -154 208 -6 0 -7 -22 -4 -52z"/>
 <path d="M800 4429 c60 -52 206 -116 365 -159 377 -103 483 -141 772 -271 83 -38 157 -69 164 -69 17 0 -29 47 -126 129 -106 89 -185 142 -303 201 -165 82 -255 104 -598 145 -72 9 -168 25 -213 35 -45 11 -85 20 -89 20 -4 -1 9 -14 28 -31z"/>
 <path d="M9130 4439 c-41 -10 -136 -26 -210 -35 -389 -46 -525 -87 -735 -224 -129 -85 -318 -250 -285 -250 7 0 72 27 143 60 260 121 443 187 756 270 85 23 182 52 215 66 105 43 250 137 205 133 -8 -1 -48 -10 -89 -20z"/>
 <path d="M251 4379 c-25 -5 -49 -13 -54 -18 -17 -17 117 -137 200 -178 76 -38 78 -38 197 -38 90 0 137 5 181 19 l60 18 -62 58 c-72 66 -155 113 -238 135 -64 16 -211 19 -284 4z"/>
 <path d="M9461 4374 c-72 -19 -158 -66 -223 -121 -78 -66 -78 -69 -11 -90 42 -13 91 -18 179 -18 119 0 121 0 197 38 79 39 217 161 200 177 -32 30 -250 39 -342 14z"/>
 <path d="M5902 4258 c-76 -112 -112 -228 -112 -365 0 -50 4 -94 9 -97 14 -9 83 75 120 144 41 77 54 162 41 266 -6 43 -14 82 -19 87 -5 5 -21 -9 -39 -35z"/>
 <path d="M2820 4240 c0 -174 104 -432 237 -587 130 -153 333 -252 516 -253 37 0 67 3 67 6 0 4 -19 25 -42 48 -66 66 -208 233 -293 347 -76 101 -416 453 -463 478 -21 11 -22 10 -22 -39z"/>
 <path d="M7090 4243 c-139 -48 -220 -165 -220 -315 0 -32 3 -58 8 -58 4 0 34 24 68 54 79 71 176 212 214 311 12 30 -2 32 -70 8z"/>
 <path d="M270 4061 c0 -11 76 -75 140 -118 67 -45 176 -98 250 -121 81 -24 228 -45 295 -40 l50 3 -50 37 c-130 97 -348 188 -542 227 -111 23 -143 26 -143 12z"/>
 <path d="M9585 4050 c-184 -37 -412 -133 -540 -228 l-50 -37 60 -3 c70 -4 233 21 310 48 87 30 204 95 288 160 42 34 77 65 77 71 0 13 -41 10 -145 -11z"/>
 <path d="M950 4053 c0 -16 90 -119 183 -209 242 -236 512 -357 870 -389 47 -5 77 -4 77 2 0 17 -201 206 -280 265 -217 160 -449 263 -717 317 -107 22 -133 25 -133 14z"/>
 <path d="M8920 4041 c-289 -62 -519 -165 -733 -328 -73 -55 -267 -242 -267 -256 0 -6 30 -7 78 -2 354 32 622 151 865 384 88 84 187 199 187 215 0 10 -40 6 -130 -13z"/>
 <path d="M2350 3881 c0 -7 7 -44 16 -84 38 -173 143 -316 282 -385 75 -37 77 -37 196 -37 67 0 129 3 139 7 16 7 7 22 -63 108 -170 207 -275 293 -440 359 -97 38 -130 46 -130 32z"/>
 <path d="M7595 3878 c-182 -64 -303 -144 -424 -281 -140 -159 -173 -204 -159 -213 23 -14 189 -17 247 -4 118 26 236 116 304 232 30 52 72 173 81 236 7 46 3 48 -49 30z"/>
 <path d="M3682 3841 c-28 -10 -61 -26 -73 -37 l-21 -19 22 -17 c43 -35 145 -58 256 -58 57 0 104 4 104 8 0 25 -67 94 -112 116 -61 30 -103 32 -176 7z"/>
 <path d="M214 3718 c10 -50 61 -154 110 -222 82 -114 188 -198 321 -251 99 -40 255 -47 375 -16 79 20 201 77 206 97 3 8 -222 182 -329 254 -65 43 -198 103 -272 124 -91 24 -250 46 -339 46 l-78 0 6 -32z"/>
 <path d="M9585 3743 c-219 -28 -350 -75 -514 -185 -121 -82 -300 -222 -297 -233 4 -19 125 -76 202 -95 94 -24 236 -26 318 -5 197 51 379 216 467 423 44 103 44 102 -58 101 -49 -1 -101 -4 -118 -6z"/>
 <path d="M1060 3601 c0 -16 141 -125 213 -165 136 -76 303 -119 444 -114 l78 3 -80 53 c-149 100 -326 173 -501 206 -135 25 -154 28 -154 17z"/>
 <path d="M8835 3594 c-192 -32 -383 -106 -536 -207 l-94 -62 78 -3 c141 -5 308 38 444 114 71 39 213 149 213 164 0 12 -3 12 -105 -6z"/>
 <path d="M6559 3452 c-29 -15 -54 -33 -57 -40 -5 -16 88 -59 158 -72 58 -11 170 -13 194 -4 23 9 20 25 -15 67 -67 82 -179 102 -280 49z"/>
 <path d="M2137 3379 c-65 -15 -187 -87 -187 -110 0 -5 48 -9 108 -9 59 0 134 -5 167 -10 94 -16 292 -27 375 -21 l75 6 -56 37 c-145 95 -344 140 -482 107z"/>
 <path d="M7625 3375 c-82 -18 -170 -55 -241 -101 l-59 -39 70 -6 c77 -7 286 5 380 21 33 5 109 10 168 10 123 0 128 5 53 57 -97 67 -234 88 -371 58z"/>
 <path d="M3728 3275 c-58 -39 -103 -155 -60 -155 31 0 142 30 173 46 36 18 109 83 109 96 0 17 -69 38 -127 38 -46 0 -66 -5 -95 -25z"/>
 <path d="M6760 3174 c-257 -87 -464 -179 -439 -195 8 -5 70 -9 139 -9 248 0 405 66 521 220 37 50 47 72 32 69 -5 -1 -118 -39 -253 -85z"/>
 <path d="M1475 3184 c78 -72 190 -126 338 -164 117 -30 157 -36 157 -24 0 4 -16 28 -35 55 -40 54 -111 110 -177 138 -63 28 -186 51 -270 51 l-73 -1 60 -55z"/>
 <path d="M8381 3229 c-140 -27 -243 -84 -312 -171 -44 -56 -47 -68 -20 -68 48 0 264 64 336 100 75 37 185 120 185 141 0 11 -129 10 -189 -2z"/>
 <path d="M770 3109 c-47 -9 -190 -75 -190 -87 0 -9 390 -63 445 -62 22 0 60 5 85 10 54 12 170 59 170 69 0 12 -363 81 -416 80 -27 -1 -69 -5 -94 -10z"/>
 <path d="M8898 3083 c-98 -20 -178 -39 -178 -43 0 -12 111 -57 168 -69 77 -16 135 -13 345 18 176 25 187 28 170 44 -29 25 -124 66 -183 77 -82 16 -132 11 -322 -27z"/>
 <path d="M7530 3094 c-58 -8 -143 -23 -190 -34 -111 -26 -700 -221 -700 -231 0 -14 162 -88 230 -106 86 -22 245 -22 329 0 159 42 342 160 457 295 35 41 64 79 64 84 0 11 -66 9 -190 -8z"/>
 <path d="M1106 2819 c-131 -17 -322 -78 -396 -126 l-24 -16 39 -14 c62 -21 259 -70 375 -92 240 -45 392 -49 594 -15 103 17 276 70 276 84 0 6 -1 10 -3 10 -2 0 -48 18 -102 41 -135 55 -325 106 -463 124 -123 16 -191 17 -296 4z"/>
 <path d="M8588 2815 c-128 -18 -308 -67 -441 -120 -60 -24 -112 -46 -115 -49 -9 -10 3 -16 76 -41 173 -59 387 -83 566 -66 176 18 369 56 564 113 86 25 84 33 -22 77 -106 44 -229 77 -331 90 -111 14 -173 13 -297 -4z"/>
 <path d="M2053 2703 c9 -53 67 -170 116 -230 69 -88 232 -189 379 -238 29 -9 55 -15 58 -12 7 6 -68 101 -135 170 -31 33 -131 120 -223 194 -92 74 -170 138 -173 144 -15 23 -27 7 -22 -28z"/>
 <path d="M7770 2604 c-91 -74 -193 -163 -228 -197 -67 -65 -156 -177 -148 -184 8 -8 107 28 191 69 168 83 256 167 322 304 34 72 53 145 37 143 -5 0 -83 -61 -174 -135z"/>
 <path d="M6430 2695 c0 -17 74 -107 139 -168 49 -46 83 -69 117 -80 65 -20 142 -29 149 -17 8 14 -72 116 -139 177 -32 30 -75 58 -103 67 -54 19 -163 33 -163 21z"/>
 <path d="M2882 2650 c-60 -13 -139 -58 -173 -100 -44 -52 -77 -189 -53 -213 4 -3 30 13 58 36 28 24 76 61 106 82 81 58 225 183 218 190 -9 9 -119 12 -156 5z"/>
 <path d="M6980 2581 c0 -13 143 -139 205 -181 28 -18 76 -55 107 -82 31 -26 59 -48 62 -48 11 0 6 102 -6 141 -17 57 -70 113 -140 148 -54 27 -72 31 -145 31 -45 0 -83 -4 -83 -9z"/>
 <path d="M961 2352 c-26 -19 161 -112 295 -147 73 -19 192 -19 263 0 68 18 154 61 182 91 l22 24 -124 0 c-68 0 -169 7 -224 15 -126 19 -395 30 -414 17z"/>
 <path d="M8775 2353 c-22 -2 -89 -10 -148 -18 -59 -8 -162 -15 -227 -15 -66 0 -120 -3 -120 -7 0 -13 93 -71 150 -94 38 -15 86 -23 151 -27 84 -4 109 -1 188 22 83 23 199 75 259 114 18 11 20 17 10 23 -13 8 -182 9 -263 2z"/>
 <path d="M3122 2259 c-90 -22 -177 -51 -210 -69 -67 -36 -97 -58 -91 -65 18 -18 142 -37 210 -32 88 6 137 27 191 84 31 31 68 96 68 118 0 7 3 8 -168 -36z"/>
 <path d="M3968 2232 c-50 -56 -95 -124 -129 -195 -37 -79 -77 -238 -85 -331 l-5 -71 64 67 c66 69 115 149 147 242 34 99 69 326 50 326 -4 0 -23 -17 -42 -38z"/>
 <path d="M1855 2246 c-197 -49 -305 -191 -351 -464 -14 -80 -14 -96 -3 -104 8 -5 50 -7 94 -4 264 19 395 134 470 416 14 52 30 108 35 124 5 16 7 32 4 35 -11 12 -201 10 -249 -3z"/>
 <path d="M7907 2253 c-12 -3 -16 -10 -13 -20 4 -8 18 -61 32 -116 59 -235 148 -355 302 -409 69 -24 216 -44 255 -34 27 6 27 8 21 59 -12 92 -51 232 -84 297 -58 115 -159 192 -288 219 -52 11 -189 13 -225 4z"/>
 <path d="M3489 2213 c-77 -85 -141 -209 -163 -316 -18 -85 -22 -247 -6 -247 16 0 97 115 129 184 16 33 39 95 50 136 23 83 40 270 24 270 -5 0 -20 -12 -34 -27z"/>
 <path d="M6652 2181 c-50 -13 -51 -20 -7 -57 68 -59 156 -96 238 -101 72 -4 165 13 169 32 4 15 -99 82 -161 106 -61 23 -186 33 -239 20z"/>
 <path d="M6354 2073 c18 -205 109 -441 216 -563 l31 -35 -5 120 c-5 137 -27 227 -82 338 -39 77 -139 217 -156 217 -7 0 -8 -26 -4 -77z"/>
 <path d="M2462 2074 c-66 -17 -101 -35 -179 -91 -90 -63 -194 -196 -177 -225 10 -15 236 -4 339 17 138 28 337 122 438 206 l31 26 -43 22 c-109 56 -294 76 -409 45z"/>
 <path d="M7275 2080 c-52 -11 -146 -46 -170 -63 -17 -13 -16 -15 17 -41 125 -94 292 -172 438 -202 97 -20 331 -26 337 -8 2 5 -11 32 -28 58 -69 103 -181 195 -290 238 -60 23 -232 34 -304 18z"/>
 <path d="M1235 2054 c-16 -8 -40 -24 -52 -36 -27 -25 -70 -105 -61 -114 4 -3 37 -6 73 -6 95 1 156 40 204 131 11 19 11 25 0 32 -23 15 -132 10 -164 -7z"/>
 <path d="M8595 2060 c-14 -22 47 -104 102 -137 33 -19 57 -25 108 -25 36 0 68 2 71 4 8 8 -16 61 -42 96 -38 49 -92 72 -168 72 -36 0 -68 -4 -71 -10z"/>
 <path d="M5847 1959 c-10 -82 -8 -256 4 -328 5 -36 19 -92 30 -125 21 -64 97 -206 110 -206 15 0 22 159 11 280 -15 164 -69 337 -129 409 l-20 24 -6 -54z"/>
 <path d="M3140 1827 c-79 -42 -110 -137 -72 -222 l18 -39 49 44 c60 56 84 108 85 183 0 67 -10 71 -80 34z"/>
 <path d="M6780 1793 c1 -75 25 -127 85 -182 l48 -44 13 24 c20 37 27 104 15 141 -13 40 -64 92 -104 107 -52 20 -57 16 -57 -46z"/>
 <path d="M4522 1698 c-107 -286 -121 -565 -42 -821 11 -37 24 -67 28 -67 14 0 92 116 127 188 103 209 100 444 -6 641 -41 77 -66 111 -80 111 -4 0 -16 -24 -27 -52z"/>
 <path d="M5317 1630 c-3 -8 -13 -71 -22 -140 -9 -69 -25 -170 -36 -225 -23 -126 -69 -405 -69 -424 0 -35 100 90 148 185 49 97 67 174 67 294 0 100 -4 127 -29 202 -31 97 -51 133 -59 108z"/>
 <path d="M2570 1605 c-83 -17 -170 -47 -224 -79 -68 -40 -148 -134 -193 -227 -41 -86 -89 -217 -81 -225 10 -9 115 -24 172 -24 276 1 459 185 483 487 l6 83 -49 -1 c-27 0 -78 -7 -114 -14z"/>
 <path d="M7273 1537 c24 -302 206 -486 483 -487 56 0 162 15 171 24 2 2 -8 39 -22 82 -66 199 -162 328 -288 388 -84 40 -180 65 -279 73 l-71 6 6 -86z"/>
 <path d="M2095 1589 c-55 -9 -158 -22 -230 -28 -131 -11 -205 -25 -205 -40 0 -14 132 -69 205 -87 138 -32 247 2 356 112 l63 64 -44 -1 c-25 -1 -90 -10 -145 -20z"/>
 <path d="M7756 1568 c57 -63 86 -85 151 -115 73 -34 139 -39 225 -19 72 17 208 74 208 87 0 15 -74 29 -205 40 -71 5 -180 19 -241 29 -61 11 -125 20 -143 20 l-33 0 38 -42z"/>
 <path d="M3074 1475 c-127 -67 -219 -156 -274 -270 -49 -101 -69 -176 -77 -289 l-6 -88 24 7 c85 27 217 120 279 197 77 98 128 242 145 411 8 81 5 82 -91 32z"/>
 <path d="M6835 1434 c15 -160 67 -305 144 -402 61 -76 194 -170 279 -196 21 -7 22 -5 22 46 0 85 -35 231 -76 315 -61 128 -233 280 -347 309 l-29 7 7 -79z"/>
 <path d="M3484 1471 c-94 -54 -183 -168 -219 -279 -24 -75 -17 -245 13 -322 27 -68 83 -162 100 -168 17 -5 95 162 127 274 14 48 30 125 35 173 12 104 13 338 2 345 -5 3 -30 -8 -58 -23z"/>
 <path d="M6450 1363 c0 -185 15 -298 55 -420 41 -122 101 -246 118 -240 17 5 73 101 98 167 31 79 37 230 14 316 -21 78 -74 163 -142 226 -42 39 -119 88 -138 88 -3 0 -5 -62 -5 -137z"/>
 <path d="M4000 1446 c-80 -23 -165 -53 -189 -65 -53 -27 -137 -104 -157 -144 l-15 -28 48 7 c84 12 268 61 311 83 57 29 105 73 141 130 17 26 31 51 31 54 0 12 -20 7 -170 -37z"/>
 <path d="M6098 1343 c-45 -101 -21 -220 61 -302 33 -33 107 -81 125 -81 6 0 -3 62 -20 135 -16 65 -122 295 -136 295 -5 0 -19 -21 -30 -47z"/>
 <path d="M5139 1255 c-232 -305 -360 -477 -355 -482 9 -9 95 16 150 44 161 81 261 247 254 424 l-3 74 -46 -60z"/>
 <path d="M4215 1180 c-66 -105 -118 -267 -130 -408 -8 -88 2 -252 15 -252 25 0 117 209 145 330 20 86 25 324 8 355 -10 17 -13 14 -38 -25z"/>
 <path d="M3950 1123 c-182 -31 -356 -90 -347 -117 7 -23 82 -49 152 -54 113 -7 184 25 246 111 46 64 37 75 -51 60z"/>
 <path d="M5516 1073 c20 -115 91 -276 168 -381 49 -65 155 -175 187 -192 17 -10 18 -7 12 22 -24 130 -95 291 -174 400 -51 68 -172 188 -190 188 -6 0 -7 -15 -3 -37z"/>
 <path d="M2498 948 c-75 -64 -89 -169 -33 -251 12 -17 14 -16 44 9 65 54 87 141 57 224 -16 43 -33 47 -68 18z"/>
 <path d="M7439 943 c-16 -41 -22 -97 -15 -136 6 -32 77 -127 96 -127 14 0 50 98 50 138 0 41 -32 98 -73 133 -31 26 -46 23 -58 -8z"/>
 <path d="M3091 900 c-43 -71 -64 -142 -64 -220 0 -76 27 -180 48 -187 13 -4 69 88 85 141 20 62 8 191 -22 251 l-26 49 -21 -34z"/>
 <path d="M6859 883 c-28 -58 -38 -184 -19 -247 13 -46 70 -146 83 -146 13 0 35 62 45 126 12 76 1 157 -33 233 -39 87 -48 91 -76 34z"/>
 <path d="M3982 815 c-61 -41 -116 -119 -133 -188 -23 -95 9 -316 45 -304 12 4 77 192 129 372 19 66 38 128 42 138 12 29 -25 21 -83 -18z"/>
 <path d="M5934 834 c4 -10 23 -73 43 -139 75 -257 117 -375 133 -375 18 0 50 130 50 206 0 84 -19 150 -62 211 -31 47 -99 98 -143 109 -25 6 -27 5 -21 -12z"/>
 <path d="M4594 764 c-18 -122 15 -230 96 -313 40 -41 43 -42 54 -25 6 11 11 57 11 104 0 71 -4 94 -26 140 -30 62 -93 140 -114 140 -9 0 -16 -17 -21 -46z"/>
 <path d="M5193 764 c-4 -16 -8 -67 -8 -114 0 -75 4 -93 32 -150 17 -36 48 -83 68 -104 35 -37 38 -38 49 -20 6 11 11 61 11 114 0 87 -3 101 -32 160 -18 36 -50 83 -72 104 l-40 39 -8 -29z"/>
 <path d="M3673 742 c-75 -46 -382 -274 -383 -284 0 -12 89 -21 147 -15 116 12 217 90 274 210 31 67 47 127 33 127 -5 0 -37 -17 -71 -38z"/>
 <path d="M6255 743 c28 -151 166 -285 308 -300 58 -6 147 3 147 15 -2 19 -429 322 -454 322 -4 0 -5 -17 -1 -37z"/>
 <path d="M4986 467 c-7 -237 -2 -312 26 -424 6 -24 14 -43 19 -43 13 0 37 62 67 170 35 128 37 285 4 375 -23 62 -86 165 -101 165 -4 0 -11 -109 -15 -243z"/>
 <path d="M4410 666 c-5 -15 -10 -63 -10 -107 0 -99 23 -167 84 -253 43 -60 160 -177 199 -197 23 -13 22 0 -9 107 -27 96 -49 139 -172 343 -79 129 -82 133 -92 107z"/>
 <path d="M5511 527 c-22 -29 -55 -84 -73 -122 -32 -67 -33 -75 -32 -185 1 -112 17 -190 39 -192 15 -2 71 119 96 207 26 91 41 345 20 345 -5 0 -28 -24 -50 -53z"/>
 <path d="M4250 430 c-57 -62 -84 -123 -88 -202 -4 -71 2 -118 17 -118 4 0 29 19 55 41 52 46 82 97 92 157 7 43 -11 148 -27 158 -6 3 -28 -13 -49 -36z"/>
 <path d="M3650 427 c-53 -35 -80 -82 -80 -139 0 -66 42 -148 77 -148 20 0 61 94 68 154 6 60 -5 148 -21 153 -6 2 -26 -7 -44 -20z"/>
 <path d="M6292 433 c-3 -10 -7 -54 -7 -98 0 -66 5 -90 27 -137 16 -34 33 -58 42 -58 9 0 28 19 43 42 23 34 28 53 28 104 0 70 -17 102 -75 142 -40 27 -49 27 -58 5z"/>
 <path d="M5761 398 c-31 -88 -2 -172 74 -215 67 -38 75 -33 75 45 0 91 -35 147 -117 190 -19 11 -22 8 -32 -20z"/>
 <path d="M4747 323 c-11 -11 -8 -113 5 -157 14 -45 94 -136 120 -136 24 0 42 94 29 149 -12 54 -33 85 -83 121 -41 30 -59 36 -71 23z"/>
 <path d="M5252 274 c-50 -68 -69 -140 -56 -215 5 -29 14 -54 20 -56 17 -6 105 78 120 114 8 18 14 52 14 75 0 42 -28 120 -48 131 -5 4 -27 -18 -50 -49z"/>
 </g>

</svg>