<?xml version="1.0" standalone="no"?>
<!DOCTYPE svg PUBLIC "-//W3C//DTD SVG 20010904//EN"
 "http://www.w3.org/TR/2001/REC-SVG-20010904/DTD/svg10.dtd">
<svg version="1.0" xmlns="http://www.w3.org/2000/svg"
 width="1007.000000pt" height="1007.000000pt" viewBox="0 0 1007.000000 1007.000000"
 preserveAspectRatio="xMidYMid meet">
<metadata>
Created by potrace 1.11, written by Peter Selinger 2001-2013
</metadata>
<g transform="translate(0.000000,1007.000000) scale(0.100000,-0.100000)"
fill="#000000" stroke="none">
<path d="M4970 9986 c-6 -19 -13 -47 -16 -63 -3 -15 -9 -45 -14 -66 -7 -32 -4
-247 5 -382 1 -22 3 -67 4 -100 l2 -60 24 30 c14 17 35 51 48 77 13 26 26 46
28 44 2 -2 5 5 5 17 1 12 5 33 8 47 14 51 12 171 -5 252 -15 74 -62 224 -73
235 -2 3 -9 -11 -16 -31z"/>
<path d="M5153 9983 c-14 -52 -6 -131 17 -175 31 -61 70 -109 81 -103 24 15
45 83 44 141 -1 53 -4 64 -34 94 -33 35 -80 70 -93 70 -4 0 -11 -12 -15 -27z"/>
<path d="M5386 9989 c-32 -92 -40 -212 -22 -291 12 -51 52 -148 65 -158 4 -3
21 -24 40 -47 18 -24 37 -43 42 -43 6 0 9 33 8 79 -1 43 1 84 5 90 4 6 2 11
-3 11 -6 0 -10 3 -9 8 11 38 -45 232 -89 312 -31 56 -31 56 -37 39z"/>
<path d="M4776 9950 c-57 -52 -79 -100 -82 -175 -3 -79 4 -92 42 -72 66 35
114 101 116 160 1 44 -12 116 -23 122 -5 3 -28 -13 -53 -35z"/>
<path d="M4610 9888 c-103 -82 -184 -178 -226 -265 -24 -50 -28 -71 -28 -153
-1 -52 2 -104 7 -114 7 -17 11 -13 35 25 16 24 31 51 35 59 4 8 18 33 32 55
14 22 31 50 37 63 6 12 14 22 18 22 4 0 15 18 25 40 10 22 22 37 27 34 5 -3 7
-2 6 3 -1 4 12 54 31 110 18 56 31 110 29 121 l-3 21 -25 -21z"/>
<path d="M4117 9881 c-11 -43 1 -150 22 -193 23 -48 87 -128 102 -128 31 0 41
151 14 213 -16 40 -100 127 -121 127 -6 0 -14 -9 -17 -19z"/>
<path d="M3573 9858 c-79 -84 -60 -212 38 -268 l37 -20 7 31 c19 85 -1 202
-43 257 l-18 23 -21 -23z"/>
<path d="M6286 9858 c-42 -65 -62 -202 -39 -266 l9 -22 39 26 c58 37 77 69 81
127 3 55 -18 107 -54 140 -20 18 -21 18 -36 -5z"/>
<path d="M5805 9841 c-70 -31 -114 -104 -101 -166 3 -11 5 -27 5 -35 3 -38 18
-44 55 -20 74 45 112 135 89 212 l-8 27 -40 -18z"/>
<path d="M3833 9678 c-52 -66 -54 -263 -3 -358 23 -43 85 -102 132 -126 53
-27 55 -25 33 35 -8 22 -12 41 -9 41 2 0 -2 14 -11 30 -9 17 -13 30 -11 30 3
0 -1 18 -9 40 -8 22 -14 42 -14 45 -2 28 -62 207 -85 253 -10 19 -14 21 -23
10z"/>
<path d="M6039 9663 c-25 -65 -79 -236 -109 -343 -18 -63 -37 -123 -42 -132
-11 -23 -6 -23 50 6 147 75 210 268 146 446 -20 57 -30 62 -45 23z"/>
<path d="M5225 9604 c-49 -60 -73 -106 -83 -164 -10 -55 -7 -145 6 -179 l9
-25 32 33 c75 77 112 174 105 277 -7 118 -15 124 -69 58z"/>
<path d="M4637 9560 c-20 -21 -49 -63 -64 -92 -23 -46 -27 -65 -27 -138 0 -47
5 -93 10 -103 10 -17 16 -13 61 36 76 84 104 190 79 305 -4 17 -11 32 -16 32
-4 0 -24 -18 -43 -40z"/>
<path d="M3282 9572 c-18 -2 -32 -7 -30 -11 4 -10 276 -215 348 -262 30 -20
65 -39 77 -43 19 -6 21 -4 14 26 -5 18 -18 52 -30 76 -12 23 -19 47 -16 53 4
5 2 9 -4 9 -6 0 -11 2 -11 6 2 11 -97 97 -130 114 -61 30 -136 41 -218 32z"/>
<path d="M6485 9568 c-70 -15 -138 -57 -184 -113 -38 -46 -79 -119 -86 -151
-2 -6 -6 -21 -10 -33 -3 -12 -2 -21 4 -21 10 0 132 68 141 79 10 12 80 62 80
57 0 -2 13 9 30 25 17 18 35 27 41 23 8 -4 9 -3 5 4 -4 7 -3 12 2 12 4 0 17 8
28 18 10 10 40 33 67 51 52 38 58 50 25 52 -13 1 -41 2 -63 4 -22 1 -58 -2
-80 -7z"/>
<path d="M6836 9473 c-62 -99 -72 -228 -26 -326 27 -57 36 -53 73 31 28 61 40
122 38 185 -2 35 -37 167 -46 167 -2 0 -19 -25 -39 -57z"/>
<path d="M3015 9508 c-30 -83 -34 -106 -31 -181 2 -81 21 -143 62 -206 l16
-23 17 28 c18 29 29 65 38 119 3 17 5 32 6 35 5 26 -21 120 -46 170 -32 64
-53 83 -62 58z"/>
<path d="M5744 9445 c-145 -144 -228 -296 -278 -508 -6 -25 -5 -27 13 -18 59
32 198 198 252 301 19 36 36 67 39 70 3 3 7 12 8 20 2 8 15 54 29 102 14 48
23 93 21 100 -3 7 -39 -22 -84 -67z"/>
<path d="M4046 9473 c-4 -11 -7 -37 -8 -56 -1 -21 -5 -34 -11 -30 -6 4 -7 1
-1 -8 5 -8 9 -43 10 -79 0 -36 4 -87 9 -115 9 -63 61 -227 85 -271 11 -18 29
-52 41 -76 l23 -43 8 35 c9 42 11 196 3 265 -5 41 -20 105 -39 170 -12 42 -80
184 -99 209 -14 19 -15 19 -21 -1z"/>
<path d="M4740 9436 c0 -2 8 -10 18 -17 15 -13 16 -12 3 4 -13 16 -21 21 -21
13z"/>
<path d="M2405 9293 c-37 -78 -16 -168 52 -221 l33 -24 19 43 c35 78 14 163
-54 221 -28 24 -30 23 -50 -19z"/>
<path d="M7445 9312 c-61 -52 -85 -125 -65 -197 18 -66 31 -72 73 -35 64 56
77 127 40 213 -18 42 -20 43 -48 19z"/>
<path d="M3294 9272 c-137 -208 -122 -463 37 -633 36 -38 133 -109 150 -109 5
0 9 14 9 31 0 20 4 28 12 23 7 -5 8 -3 3 6 -12 19 -13 170 -2 163 6 -4 7 -1 2
7 -4 7 -9 23 -10 34 -2 12 -6 51 -9 87 -6 54 -17 107 -40 184 -3 10 -12 35
-25 70 -20 52 -77 167 -86 175 -6 5 -22 -9 -41 -38z"/>
<path d="M6522 9233 c-100 -213 -127 -375 -113 -685 l1 -28 49 30 c26 17 65
46 85 65 21 19 42 35 48 35 6 0 9 3 5 6 -3 4 4 21 17 38 51 69 77 144 85 243
3 52 4 96 0 99 -4 2 -10 24 -13 48 -8 52 -75 193 -103 219 -19 17 -21 15 -61
-70z"/>
<path d="M4737 9238 c6 -7 56 -74 112 -148 56 -74 110 -146 121 -160 11 -14
50 -66 87 -117 38 -50 71 -92 76 -92 13 -2 8 113 -8 174 -23 86 -70 168 -129
222 -63 58 -100 88 -104 84 -1 -1 -26 6 -55 17 -80 29 -113 36 -100 20z"/>
<path d="M4432 9128 c-48 -165 -64 -366 -40 -498 5 -25 10 -55 13 -68 12 -69
85 -292 94 -292 9 0 78 102 85 128 4 12 12 22 18 22 6 0 9 3 6 6 -3 3 3 30 13
59 10 30 19 61 19 70 0 8 4 15 8 15 4 0 8 12 7 28 0 17 5 26 13 24 8 -1 11 2
7 8 -3 6 -9 8 -13 6 -4 -2 -6 32 -5 75 2 115 -20 198 -88 332 -30 60 -98 157
-110 157 -3 0 -16 -33 -27 -72z"/>
<path d="M2675 9114 c17 -268 163 -487 390 -584 l44 -19 3 22 c6 41 -12 153
-38 238 -14 46 -26 90 -27 97 0 6 -3 12 -6 12 -4 0 -15 17 -26 38 -11 20 -42
61 -70 91 -27 29 -49 58 -47 63 1 5 -2 7 -7 4 -4 -3 -26 7 -48 22 -77 53 -101
66 -148 78 -24 6 -25 6 -20 -62z"/>
<path d="M5145 9168 c2 -7 7 -35 9 -63 3 -27 7 -59 9 -70 21 -103 28 -158 24
-175 -3 -11 -2 -18 2 -15 5 2 14 -28 21 -68 7 -40 14 -81 16 -92 2 -10 6 -37
9 -60 3 -22 8 -47 10 -55 2 -8 6 -40 10 -70 3 -30 7 -64 10 -75 2 -11 4 -24 4
-29 2 -19 20 9 41 64 32 80 42 128 44 207 0 31 5 49 11 45 5 -3 4 1 -2 10 -7
8 -11 17 -8 19 7 8 -24 142 -47 199 -25 62 -56 114 -113 189 -37 48 -60 66
-50 39z"/>
<path d="M7163 9160 c-125 -56 -242 -168 -299 -287 -41 -85 -76 -235 -72 -309
l3 -53 77 38 c42 21 80 36 84 32 4 -3 4 0 0 7 -4 6 -4 12 1 12 4 0 26 16 47
35 22 19 44 31 49 28 6 -3 7 -2 4 4 -3 5 6 22 19 39 52 59 121 202 125 256 0
4 5 22 10 40 5 18 12 66 14 106 7 82 5 83 -62 52z"/>
<path d="M5915 9126 c-165 -52 -255 -207 -281 -486 -8 -90 -14 -70 -15 51 0
109 -1 112 -14 76 -22 -58 -42 -170 -45 -247 -2 -38 -5 -31 -19 50 -10 52 -24
111 -33 130 -24 55 -105 128 -105 95 0 -8 3 -12 7 -10 21 13 69 -85 91 -185
21 -98 19 -563 -3 -576 -5 -3 -17 5 -28 18 l-20 23 11 -30 c102 -279 110 -308
104 -380 -12 -153 -38 -336 -54 -378 -4 -12 -6 -28 -4 -34 3 -7 0 -13 -7 -13
-6 0 -8 -5 -5 -10 7 -12 -23 -166 -37 -190 -5 -9 -6 1 -1 25 4 22 6 47 5 55
-4 36 -10 67 -16 90 -8 34 -13 130 -7 125 4 -2 6 18 7 43 0 26 3 72 7 102 4
30 10 82 14 115 14 110 9 257 -11 323 -11 34 -22 60 -26 57 -3 -2 -5 -28 -3
-57 18 -312 -7 -702 -32 -492 -3 21 -8 65 -13 97 -5 32 -8 89 -8 127 1 70 -11
81 -20 19 -3 -19 -7 -92 -8 -164 -2 -71 -4 -146 -5 -165 -2 -32 -3 -33 -12
-12 -5 13 -7 28 -4 32 3 5 1 11 -5 15 -5 3 -10 17 -10 30 0 13 -7 52 -16 86
-19 73 -24 109 -15 109 3 0 7 21 7 48 1 26 5 72 9 102 4 30 8 107 9 171 3 104
0 144 -18 279 -12 87 -78 284 -99 297 -6 3 -7 2 -4 -4 3 -5 8 -21 11 -36 4
-15 8 -37 11 -49 3 -13 7 -33 9 -46 3 -13 7 -31 10 -40 28 -93 36 -465 11
-490 -3 -3 -5 8 -5 24 -1 16 -7 57 -14 91 -10 45 -10 65 -2 74 8 9 8 10 -1 5
-13 -7 -14 -2 -34 139 -18 130 -14 113 -128 485 -16 53 -6 -92 14 -200 36
-192 38 -304 10 -470 -10 -56 -25 -110 -31 -110 -4 0 -4 7 -1 15 4 8 2 17 -2
19 -17 11 -27 121 -34 393 -2 51 -6 95 -10 99 -8 8 -10 -10 -11 -106 -1 -36
-5 -71 -10 -79 -6 -10 -5 -12 2 -7 9 5 11 -12 7 -66 -6 -87 -10 -107 -30 -173
-9 -28 -27 -86 -41 -130 -14 -44 -34 -111 -45 -150 l-19 -70 5 125 c2 69 6
134 9 145 2 11 5 28 5 38 1 10 5 16 9 13 5 -3 9 1 9 9 0 8 -4 12 -8 10 -4 -3
-1 21 6 53 8 32 16 78 19 102 3 25 8 56 11 70 3 14 7 77 9 140 2 103 -12 215
-39 310 -46 157 -67 247 -72 300 -3 36 -7 67 -9 69 -1 1 -8 -17 -15 -40 -23
-82 -14 -352 16 -459 7 -24 19 -180 18 -233 -1 -73 -10 -108 -63 -272 -27 -82
-57 -177 -66 -210 l-17 -60 -8 40 c-9 46 -20 155 -23 232 -4 115 26 340 63
471 5 17 8 32 6 32 -6 0 -42 -81 -50 -113 -4 -15 -10 -25 -14 -23 -3 2 -7 -6
-7 -17 -1 -12 -4 -31 -7 -42 -23 -89 -38 -197 -41 -307 -2 -55 -4 -59 -49 -98
-79 -70 -95 -127 -97 -348 0 -86 -3 -158 -5 -161 -26 -25 -36 195 -23 472 3
59 2 107 -2 107 -7 0 -29 -63 -39 -110 -12 -61 -4 -288 15 -384 12 -63 18
-198 12 -283 -3 -32 -16 -8 -23 40 -4 28 -8 59 -10 67 -11 52 -16 80 -21 120
-3 25 -9 72 -14 105 -8 60 -5 438 5 505 6 45 8 378 1 406 -2 11 -7 45 -10 75
-6 56 -42 208 -51 217 -3 3 -5 -48 -6 -114 0 -110 -2 -163 -13 -437 -2 -54 -6
-101 -10 -104 -3 -4 -6 7 -6 24 0 16 -9 56 -20 88 -11 31 -17 62 -13 69 3 6 2
8 -2 4 -5 -5 -21 13 -35 40 -56 97 -136 149 -250 161 -91 9 -101 3 -39 -25
148 -69 266 -190 300 -307 8 -27 7 -29 -16 -23 -23 6 -23 5 5 -22 43 -44 71
-146 75 -277 6 -174 21 -375 30 -384 3 -2 0 -10 -6 -18 -7 -7 -7 -13 -2 -13
10 0 17 -42 29 -170 3 -30 7 -66 10 -80 7 -45 16 -270 10 -270 -8 0 -41 82
-38 93 1 4 -2 7 -6 7 -8 0 -32 73 -35 108 -1 12 -4 22 -7 22 -6 0 -11 28 -14
75 0 17 -4 32 -7 35 -7 5 -13 35 -25 120 -12 86 -46 253 -56 278 -10 26 -11
24 -22 -33 l-11 -60 -26 65 c-28 68 -55 191 -58 263 -1 9 -6 17 -12 17 -5 0
-8 -3 -6 -7 3 -5 8 -48 11 -98 18 -247 22 -283 42 -380 19 -88 20 -94 38 -185
8 -41 18 -90 22 -109 7 -32 6 -33 -14 -22 -27 14 -55 67 -46 84 4 7 3 9 -1 4
-11 -10 -58 70 -49 85 4 7 3 8 -4 4 -6 -4 -19 6 -29 21 -10 15 -31 42 -46 58
-24 24 -28 26 -24 10 4 -17 47 -136 72 -200 8 -19 7 -18 -11 2 -46 52 -54 65
-49 74 4 5 2 8 -3 7 -14 -4 -73 73 -65 86 3 6 3 8 -2 4 -11 -11 -56 48 -65 85
-8 35 -5 279 4 356 6 45 5 45 -7 16 l-14 -30 -7 55 c-12 90 -82 270 -118 305
-5 6 -1 -9 11 -33 37 -73 57 -169 66 -318 13 -214 16 -253 25 -284 5 -19 8
-35 6 -37 -5 -5 -61 62 -58 70 1 5 -2 6 -7 3 -5 -4 -11 -3 -13 2 -8 19 -108
93 -163 120 -60 30 -193 58 -207 44 -4 -4 18 -27 50 -50 87 -64 283 -247 322
-302 l19 -27 -53 21 c-30 12 -53 23 -51 26 2 3 -7 6 -18 6 -12 1 -32 4 -44 8
-42 11 -62 15 -125 21 -92 9 -124 22 -162 66 -22 26 -36 35 -39 27 -8 -23 -95
31 -174 108 -63 62 -70 66 -51 33 44 -78 177 -190 256 -214 12 -3 22 -9 22
-13 0 -4 -10 -7 -22 -8 -25 0 -109 -11 -144 -18 -12 -2 -54 -16 -95 -30 -41
-15 -76 -27 -79 -28 -3 -1 -43 11 -90 27 -77 26 -98 29 -220 29 -127 0 -140
-2 -217 -31 -137 -52 -236 -117 -350 -230 -57 -56 -103 -109 -103 -118 0 -13
8 -15 53 -10 28 3 72 7 97 10 73 7 217 34 299 56 42 12 81 22 86 23 6 2 21 7
35 13 14 6 56 22 93 36 l68 26 -34 -42 c-35 -43 -97 -147 -97 -163 0 -5 15 14
34 41 42 63 156 164 178 158 4 -2 8 1 8 6 0 14 80 52 92 45 7 -4 8 -2 4 4 -4
7 -1 12 9 12 8 0 41 9 72 20 31 11 58 18 60 17 1 -2 -8 -14 -22 -27 -14 -13
-25 -28 -25 -34 0 -7 3 -8 8 -1 30 41 133 85 212 90 25 2 54 6 64 11 10 4 78
7 150 8 115 0 184 -9 246 -31 8 -4 20 -7 26 -8 26 -6 127 -61 150 -81 35 -33
30 -44 -23 -45 -49 -1 -59 -2 -153 -20 -30 -6 -68 -13 -85 -16 -71 -12 -307
-98 -428 -157 -131 -63 -281 -146 -262 -146 8 0 151 31 205 45 33 8 129 44
158 59 43 22 45 21 16 -21 -29 -43 -67 -123 -62 -129 5 -4 173 130 241 191 24
22 103 73 137 88 85 38 137 50 229 50 87 0 95 -1 112 -24 23 -29 161 -301 177
-347 l11 -32 -47 26 c-26 15 -57 33 -69 41 -35 21 -27 3 27 -57 27 -30 48 -56
47 -57 -2 -1 -30 6 -63 16 -33 11 -73 21 -89 24 -17 3 -64 12 -105 20 -41 9
-91 18 -110 21 -65 10 -229 54 -274 75 -25 11 -46 18 -46 16 0 -10 122 -65
210 -95 52 -17 102 -34 110 -37 8 -3 20 -7 25 -8 6 -2 48 -17 93 -34 441 -161
651 -522 547 -937 -30 -123 -112 -290 -194 -400 -251 -338 -602 -506 -1146
-552 -114 -9 -786 -8 -925 2 -58 4 -116 7 -129 7 -13 -1 -40 8 -59 20 -26 15
-32 16 -22 5 7 -9 11 -18 9 -20 -8 -7 -225 -21 -459 -31 -85 -3 -186 -13 -225
-21 -38 -8 -83 -18 -100 -22 -43 -9 -410 -1 -520 12 -175 20 -172 20 -228 32
-26 5 -28 4 -18 -14 13 -24 65 -50 124 -61 24 -4 149 -8 278 -9 129 0 272 -5
319 -11 46 -6 91 -11 99 -11 10 0 12 -3 5 -10 -10 -10 -96 -15 -419 -25 -99
-3 -198 -8 -220 -10 -147 -17 -302 -44 -339 -59 -25 -10 -1 -12 140 -11 l169
1 -49 -76 c-27 -41 -78 -103 -114 -138 l-64 -63 44 17 c55 22 137 74 164 105
11 13 38 52 58 86 20 35 42 65 47 69 14 8 67 17 111 18 21 1 38 4 38 8 0 3 22
5 49 5 27 -1 47 1 45 4 -5 9 159 11 203 3 l35 -7 -52 -17 c-105 -35 -254 -160
-300 -249 -9 -20 -21 -52 -25 -71 l-8 -35 45 55 c25 30 60 66 78 80 18 14 38
30 44 35 81 74 347 185 506 210 8 1 22 5 30 8 20 7 120 25 120 21 0 -1 -20
-32 -45 -68 -53 -78 -57 -91 -12 -39 72 83 120 123 151 124 68 4 121 8 121 9
0 4 62 9 175 15 63 3 146 8 183 10 38 2 66 1 63 -2 -3 -3 -36 -20 -73 -37 -38
-17 -81 -40 -98 -50 -93 -58 -165 -111 -206 -150 -102 -97 -244 -122 -444 -80
-44 10 -147 11 -192 3 -26 -5 -71 -21 -99 -35 -51 -26 -143 -93 -144 -106 0
-3 35 9 78 27 68 28 92 36 162 52 72 16 164 -8 236 -63 l36 -28 -54 -13 c-37
-9 -64 -25 -88 -49 l-35 -36 56 5 c30 3 84 17 120 31 35 15 68 28 74 29 12 3
40 28 41 39 1 4 2 17 3 27 1 16 10 20 60 23 l59 3 -20 -40 c-43 -84 -128 -206
-140 -199 -7 4 -8 3 -4 -5 11 -17 -70 -91 -102 -92 -41 -1 -62 -6 -162 -40
-73 -24 -103 -29 -137 -24 -23 3 -43 12 -43 18 0 36 -25 90 -60 129 -22 25
-36 49 -32 53 4 5 2 5 -5 1 -7 -4 -30 4 -51 18 -63 39 -203 62 -417 67 -44 1
-96 6 -115 10 -32 7 -33 7 -15 -7 28 -21 84 -34 167 -39 40 -3 101 -8 135 -10
101 -9 183 -43 102 -43 -69 0 -146 -35 -259 -118 -58 -42 -127 -87 -155 -101
l-50 -24 62 4 c49 4 79 14 146 50 123 65 181 82 225 66 41 -16 28 -37 -95
-152 -23 -20 -43 -48 -45 -62 -4 -20 7 -14 77 43 46 37 95 86 109 109 32 50
35 49 131 -22 107 -79 114 -82 182 -81 33 1 60 -2 58 -5 -2 -3 -42 -29 -89
-57 -222 -136 -311 -237 -401 -457 -15 -38 -46 -106 -67 -150 -33 -69 -35 -76
-13 -50 14 17 69 98 121 182 52 84 118 177 147 207 67 70 145 129 159 120 6
-4 8 -3 4 4 -3 6 3 13 14 17 11 3 20 11 20 17 0 5 8 7 17 4 10 -4 14 -4 10 0
-8 8 -3 12 113 84 79 50 82 51 57 20 -16 -18 -36 -49 -46 -69 -18 -34 -23 -56
-36 -160 -4 -23 -11 -55 -16 -69 -8 -22 -108 -155 -129 -172 -21 -17 -105
-147 -131 -203 -23 -51 -32 -85 -35 -144 l-5 -78 19 45 c31 74 184 294 197
282 5 -4 6 -2 3 3 -4 6 3 28 13 50 11 22 31 75 45 119 35 112 43 122 44 56 1
-30 3 -64 5 -75 3 -18 11 -85 19 -160 2 -16 4 -43 5 -59 0 -16 4 -26 8 -22 5
4 8 114 8 244 1 223 2 240 23 285 12 27 26 46 31 43 5 -3 8 0 7 8 -2 28 157
210 234 266 34 25 73 57 87 72 14 15 30 25 35 22 5 -3 8 -2 7 3 -4 16 13 43
28 43 8 0 11 5 8 10 -3 6 1 13 9 16 9 3 16 11 16 18 0 6 10 22 23 36 12 14 44
58 70 98 27 41 50 72 53 70 2 -3 -3 -25 -11 -49 -9 -24 -18 -62 -20 -84 -3
-22 -7 -60 -10 -85 -3 -25 -7 -110 -10 -190 -6 -170 -14 -294 -21 -332 -8 -40
-64 -47 -254 -36 -93 6 -130 -4 -170 -43 -28 -29 -70 -101 -70 -122 0 -5 21 8
46 28 83 69 129 74 234 28 30 -13 80 -30 110 -37 48 -11 55 -16 52 -36 -9 -82
-123 -243 -337 -475 -123 -133 -132 -143 -198 -230 -69 -92 -131 -217 -145
-292 -10 -54 1 -65 13 -13 7 32 85 155 130 205 15 17 72 79 128 139 56 60 110
118 120 130 27 31 127 143 168 189 l37 39 4 -36 c2 -20 0 -40 -5 -45 -5 -5 -4
-11 1 -15 21 -13 -3 -67 -99 -228 -32 -54 -59 -101 -59 -104 0 -3 -9 -24 -19
-47 -23 -50 -39 -127 -23 -112 6 6 45 80 87 165 43 85 90 173 105 195 57 83
64 105 66 205 1 69 5 94 13 92 7 -1 10 2 7 7 -4 5 14 40 39 77 25 37 45 72 45
76 0 5 4 6 10 3 5 -3 7 0 5 8 -3 7 3 33 14 56 l19 43 7 -40 c4 -23 4 -46 1
-51 -4 -5 -2 -12 3 -15 18 -11 0 -131 -36 -233 -3 -10 6 -3 20 16 51 66 69
182 52 326 -16 133 -22 171 -34 209 -34 109 -48 427 -22 515 7 23 14 41 16 40
2 -2 5 -35 8 -74 3 -38 14 -97 25 -130 11 -33 23 -77 27 -97 4 -21 12 -38 17
-38 5 0 7 8 4 18 -3 9 -7 41 -8 69 -2 29 -6 53 -9 53 -3 0 -6 6 -7 13 0 6 -3
23 -7 37 -9 34 -8 157 1 172 4 7 9 21 10 32 9 71 14 98 26 120 12 22 13 16 14
-62 0 -67 7 -107 28 -172 32 -96 55 -186 64 -245 8 -56 8 -287 0 -365 -6 -61
-5 -63 8 -37 48 90 68 283 45 417 -13 69 -59 228 -72 245 -4 6 -13 23 -18 39
l-11 27 27 -19 c16 -10 34 -21 42 -24 10 -3 15 -23 17 -69 2 -53 11 -79 50
-156 25 -51 50 -93 55 -93 5 0 -9 34 -31 74 -22 41 -42 89 -44 106 -4 37 13
110 26 110 15 0 72 -31 97 -54 14 -12 3 11 -28 57 -50 75 -102 122 -168 154
-41 19 -65 56 -65 99 0 50 92 167 154 194 59 25 60 25 48 -6 -16 -40 -17 -234
-2 -234 4 0 9 18 10 40 2 23 14 78 28 123 14 45 28 92 31 103 4 17 19 26 62
38 69 19 76 20 63 4 -10 -13 -26 -65 -37 -123 -5 -29 -10 -127 -20 -450 -2
-88 -8 -171 -11 -185 -11 -42 11 -11 54 75 65 129 83 234 57 335 -11 45 -13
54 -20 108 -7 50 9 142 24 142 3 0 7 -18 9 -40 3 -40 36 -110 53 -110 6 0 6 7
0 18 -10 18 -7 184 3 200 3 5 7 21 10 37 7 35 13 41 55 50 29 6 33 5 27 -10
-3 -9 -9 -34 -12 -56 -4 -21 -11 -39 -17 -39 -6 0 -5 -5 2 -13 6 -8 9 -16 7
-18 -9 -9 -15 -89 -7 -93 4 -3 8 0 8 7 1 20 30 120 46 157 24 55 77 100 123
104 21 2 43 1 49 -2 5 -4 18 -6 27 -7 28 0 22 -13 -23 -48 -41 -31 -146 -163
-137 -172 3 -3 16 12 29 33 18 27 53 53 129 97 96 54 110 59 162 58 31 -1 65
-6 75 -12 10 -6 12 -11 5 -11 -7 0 -47 -23 -90 -51 -204 -135 -314 -273 -357
-449 -9 -36 -36 -129 -61 -207 -55 -175 -85 -222 -236 -368 -125 -122 -213
-223 -185 -212 39 15 144 94 202 152 101 101 161 197 210 340 15 44 32 85 38
90 7 7 8 7 5 0 -3 -5 -9 -59 -12 -120 -13 -229 -69 -370 -197 -503 -93 -95
-107 -103 -196 -107 -43 -2 -92 -9 -108 -15 -33 -12 -81 -55 -128 -114 l-31
-39 50 38 c72 56 128 78 173 70 l36 -7 -25 -17 c-142 -94 -327 -255 -386 -336
-16 -22 -31 -42 -34 -45 -3 -3 -11 -17 -19 -32 -8 -16 -18 -28 -23 -28 -4 0
-8 -4 -8 -10 0 -5 -18 -47 -41 -92 -22 -46 -60 -141 -84 -213 -45 -135 -101
-375 -92 -397 3 -7 6 -2 6 11 3 77 108 314 208 470 l56 86 14 -45 c17 -56 12
-91 -32 -226 -34 -104 -46 -166 -22 -114 23 48 89 160 98 166 21 13 16 -199
-10 -406 -5 -41 -12 -111 -15 -155 l-5 -80 13 55 c7 30 25 100 40 155 16 55
30 109 32 120 2 11 7 34 10 50 7 34 7 202 0 213 -2 4 -7 27 -11 52 -4 25 -9
49 -12 54 -7 10 -5 86 3 161 7 65 22 122 44 165 21 41 116 148 124 140 9 -9 8
-73 -2 -110 -5 -19 -23 -64 -41 -99 -17 -36 -31 -66 -31 -69 0 -9 93 105 108
133 11 22 16 54 15 114 -1 61 2 88 12 95 18 14 91 76 118 100 73 62 126 96
143 90 13 -4 15 -3 6 3 -9 7 0 19 35 44 27 19 51 33 56 31 4 -1 6 2 5 6 -2 4
12 22 30 40 35 34 92 133 92 159 0 8 3 12 8 10 4 -3 7 9 7 26 -1 18 2 46 6 62
5 17 11 70 14 118 12 181 46 344 68 330 6 -3 7 -1 3 5 -7 11 32 108 40 100 2
-3 6 -63 9 -134 2 -71 9 -147 14 -169 8 -36 9 -31 11 45 4 168 6 179 72 342
41 102 61 140 87 163 19 16 42 37 50 46 35 34 99 78 105 72 3 -3 6 -1 6 5 0
11 107 82 124 82 6 0 0 -7 -12 -16 -25 -17 -90 -111 -114 -164 -29 -63 -45
-123 -58 -210 l-13 -85 -46 -30 c-53 -35 -96 -105 -106 -174 -3 -25 -9 -62
-11 -81 -9 -66 -37 -135 -80 -201 -24 -37 -51 -84 -60 -105 -8 -22 -21 -52
-29 -69 -22 -49 -53 -135 -49 -135 2 0 28 49 58 109 29 60 74 136 99 169 45
57 55 82 102 247 16 55 42 101 95 165 l20 25 -6 -75 c-6 -70 -14 -123 -29
-195 -10 -52 -16 -65 -26 -60 -5 3 -6 -1 -3 -9 3 -8 -8 -41 -25 -73 l-30 -58
45 50 c57 63 107 151 133 235 26 85 30 123 37 315 l5 160 33 30 c18 17 58 65
90 108 57 76 77 97 56 56 -14 -26 -26 -194 -14 -202 5 -3 10 14 11 37 3 54 71
191 122 245 22 23 41 45 43 49 2 4 7 6 11 4 5 -1 6 2 2 7 -9 15 25 29 68 28
20 -1 37 -2 37 -3 0 -17 -76 -142 -83 -137 -6 4 -7 1 -2 -7 4 -7 3 -15 -3 -19
-23 -15 -82 -103 -96 -146 -24 -68 -21 -100 4 -50 11 22 53 73 94 113 64 62
74 69 72 47 -2 -14 -2 -25 0 -25 1 0 21 37 43 83 59 120 76 144 105 149 31 6
31 3 7 -48 -35 -75 -50 -110 -81 -199 -60 -173 -52 -162 -165 -221 -104 -55
-172 -102 -196 -136 -21 -28 -44 -103 -31 -96 4 2 19 10 35 17 15 8 27 18 27
23 0 4 5 8 11 8 30 0 -25 -127 -67 -155 -78 -51 -219 -225 -194 -240 5 -3 11
3 14 12 8 25 54 72 150 153 90 75 107 102 126 192 12 60 22 68 99 83 13 2 31
7 42 10 10 4 19 4 19 2 0 -7 -29 -90 -39 -112 -5 -11 -24 -59 -42 -107 -37
-103 -65 -132 -252 -261 -210 -145 -320 -232 -405 -319 l-83 -85 -72 -13 c-40
-7 -103 -27 -142 -45 -38 -18 -77 -35 -85 -39 -8 -3 -28 -15 -45 -25 -16 -11
-57 -33 -90 -50 -72 -37 -57 -39 45 -7 75 23 136 51 220 99 25 14 65 29 90 33
l45 7 -130 -130 c-118 -118 -192 -180 -325 -268 -77 -52 -149 -126 -176 -181
-29 -59 -23 -95 7 -45 21 35 36 42 18 9 -8 -15 -9 -49 -5 -107 10 -127 7 -177
-14 -269 -27 -114 -25 -119 15 -35 53 110 61 166 41 303 -12 82 -14 134 -6
155 9 24 107 125 169 175 23 19 53 43 64 54 12 10 67 52 122 94 55 41 106 79
113 85 29 23 13 0 -56 -78 -48 -54 -122 -156 -141 -193 -10 -20 -25 -68 -34
-107 -16 -68 -21 -96 -32 -200 -9 -73 -22 -125 -45 -181 -13 -32 -15 -42 -5
-30 20 26 52 114 59 162 4 22 8 49 10 59 2 11 7 40 10 65 9 70 34 156 57 201
11 23 82 104 157 181 135 137 161 171 162 216 0 12 3 22 8 22 4 0 32 23 62 50
30 28 66 60 80 73 61 55 214 142 232 131 6 -4 8 -3 5 3 -4 6 10 19 30 28 20
10 59 31 85 46 27 16 51 29 54 29 7 0 -96 -140 -149 -202 -48 -56 -186 -180
-290 -262 -101 -78 -229 -196 -302 -279 -91 -102 -166 -290 -201 -502 -17
-105 -45 -169 -93 -212 -14 -12 -63 -44 -109 -70 -46 -26 -101 -65 -123 -86
-68 -67 -123 -179 -134 -274 l-5 -48 19 52 c10 28 34 73 52 100 39 58 155 172
195 193 16 8 58 31 93 52 64 39 76 44 68 31 -5 -9 -14 -59 -22 -128 -10 -78
-126 -436 -165 -507 -21 -37 16 -7 47 40 78 115 150 314 188 517 10 54 16 80
20 95 2 8 7 29 9 45 13 76 68 272 96 342 17 43 56 114 85 158 51 74 104 144
91 119 -9 -19 -20 -128 -20 -214 0 -78 11 -217 19 -230 2 -3 6 -21 9 -41 3
-20 17 -72 31 -116 33 -106 27 -144 -48 -304 -20 -41 -40 -92 -46 -114 -12
-46 -22 -169 -12 -160 3 4 6 10 6 13 2 45 87 239 117 267 7 7 9 6 5 -1 -4 -6
-9 -36 -12 -65 -4 -30 -9 -61 -11 -69 -3 -10 -2 -12 4 -5 6 6 22 57 36 114 13
57 29 108 35 114 6 6 16 -4 29 -29 11 -22 38 -75 60 -119 l40 -79 -15 -51
c-14 -47 -32 -88 -96 -225 -90 -191 -109 -289 -73 -371 l14 -34 3 45 c4 82 7
104 34 205 31 120 149 375 160 348 24 -60 7 -229 -35 -342 -11 -30 -17 -57
-15 -60 3 -2 5 1 5 7 0 6 6 17 14 24 26 26 99 191 112 251 28 137 3 252 -87
402 -34 55 -62 112 -102 205 -34 77 -50 167 -53 285 -2 66 1 127 6 135 9 13
10 13 11 0 0 -8 2 -22 4 -30 2 -8 6 -28 9 -44 8 -45 55 -129 82 -149 l24 -18
-21 53 c-25 62 -52 147 -54 168 -1 8 -5 22 -8 30 -9 21 -24 159 -18 165 3 3 4
25 2 49 -1 24 2 47 8 50 6 4 8 13 5 20 -9 23 17 99 41 121 12 11 40 36 62 56
l40 36 17 -56 c22 -69 67 -244 64 -245 -2 -1 -16 -8 -33 -18 -45 -25 -64 -64
-69 -148 -4 -62 -3 -68 5 -35 16 68 31 95 60 110 15 8 31 15 35 15 16 0 -10
-187 -41 -284 -8 -27 -13 -51 -12 -53 8 -7 96 194 107 242 16 70 5 168 -30
260 -34 88 -50 165 -47 224 3 60 19 61 40 2 9 -26 44 -97 77 -156 33 -59 60
-111 60 -116 0 -4 4 -10 9 -13 21 -14 -2 86 -38 159 -22 44 -43 93 -46 108 -8
31 13 149 25 142 5 -3 6 3 3 13 -2 11 7 30 24 47 45 48 103 122 140 178 19 29
33 45 30 37 -26 -92 -50 -149 -59 -144 -6 4 -8 2 -4 -4 3 -6 -5 -50 -19 -98
-42 -143 -30 -270 35 -382 16 -25 18 -45 15 -98 -6 -76 -15 -97 -53 -121 -47
-30 -86 -65 -103 -92 -37 -62 -97 -261 -78 -261 5 0 9 9 9 19 0 40 90 197 142
247 59 58 59 46 -4 -81 -43 -84 -82 -202 -92 -276 -21 -153 -27 -249 -17 -249
4 0 16 37 25 83 9 45 24 112 33 149 15 67 64 159 113 215 39 45 85 115 101
153 14 37 15 38 18 85 l3 30 19 -40 c10 -22 16 -46 14 -53 -3 -7 0 -10 5 -7
13 8 13 -80 -1 -144 -13 -64 -41 -104 -108 -159 -60 -49 -106 -100 -98 -108 3
-4 20 1 37 10 l32 16 -5 -28 c-9 -48 -15 -71 -30 -104 -33 -75 -48 -164 -47
-296 0 -136 14 -192 71 -285 l31 -51 -33 -75 c-28 -66 -161 -308 -193 -352 -6
-8 2 -1 17 15 58 63 185 239 215 297 l31 61 21 -34 c11 -18 25 -48 31 -66 6
-18 13 -31 16 -29 2 3 -3 21 -11 41 -8 20 -13 36 -11 36 2 0 -7 18 -19 41 -19
33 -22 47 -15 78 4 20 11 68 14 106 16 200 41 282 104 339 20 18 20 17 23
-118 2 -86 -1 -136 -7 -136 -6 0 -5 -3 1 -8 6 -4 14 -32 17 -62 4 -30 8 -62
10 -70 2 -8 7 -32 12 -52 4 -21 11 -38 17 -38 8 0 36 55 63 125 11 26 10 22
19 78 4 27 10 59 12 70 3 12 7 76 9 142 2 66 4 124 4 128 1 4 12 0 26 -10 42
-31 57 -87 52 -197 -5 -99 -1 -136 13 -136 4 0 8 10 7 23 0 12 3 47 7 77 13
84 9 181 -8 221 -8 19 -36 63 -61 97 -32 42 -45 69 -42 82 3 11 1 23 -4 26 -6
4 -6 11 1 19 6 7 7 15 2 17 -5 1 -12 37 -16 78 -3 42 -10 90 -15 108 -5 18 -7
32 -4 32 3 0 1 6 -4 13 -6 6 -13 26 -17 42 -4 17 -25 79 -47 138 -21 60 -36
114 -32 119 3 7 1 8 -5 4 -7 -4 -13 -2 -13 3 -2 14 -4 22 -12 41 -15 36 -56
168 -62 200 -10 50 -14 230 -5 260 l7 25 8 -30 c9 -33 43 -95 61 -110 42 -37
132 -159 156 -213 33 -73 74 -222 83 -302 3 -30 10 -86 14 -125 l8 -70 3 90
c3 128 1 263 -6 310 -7 59 -56 150 -125 235 -33 41 -72 96 -85 122 l-24 47 36
-24 c20 -14 44 -26 53 -26 68 -6 101 -5 101 1 0 4 -11 11 -25 14 -35 9 -119
91 -109 107 4 7 3 10 -3 6 -6 -4 -16 6 -22 22 -14 31 -23 151 -13 151 4 0 7
16 8 34 1 43 33 118 47 109 6 -3 7 -1 3 5 -4 6 2 20 14 32 11 11 19 21 18 23
-4 4 76 127 82 127 3 0 17 -37 32 -83 25 -77 26 -85 13 -132 -8 -27 -21 -74
-29 -103 -21 -76 -15 -131 24 -227 16 -38 20 -56 35 -153 9 -53 25 -128 36
-166 11 -38 22 -77 24 -87 2 -11 7 -23 10 -29 3 -5 -2 -38 -11 -72 -19 -74
-14 -182 9 -205 14 -14 16 -10 22 41 4 31 11 54 15 51 8 -5 5 -158 -5 -240 -3
-27 -7 -68 -10 -90 -2 -22 -7 -58 -10 -80 -8 -67 13 -5 37 105 14 67 21 136
22 232 0 80 5 138 11 138 5 0 4 5 -3 12 -7 7 -12 26 -12 42 1 33 49 137 66
143 16 5 24 -227 12 -370 -8 -100 -33 -253 -49 -304 -6 -17 -30 -47 -54 -67
-63 -52 -88 -110 -92 -218 -3 -84 9 -120 21 -61 26 139 29 146 57 174 16 16
32 29 35 29 5 0 1 -35 -12 -107 -4 -18 -9 -33 -13 -33 -3 0 -7 -12 -7 -27 -4
-80 -64 -273 -126 -403 -55 -113 -108 -199 -258 -420 -167 -243 -175 -257
-107 -187 31 32 73 79 94 105 38 46 60 70 56 63 -3 -5 29 -85 37 -91 14 -12
69 -88 82 -115 9 -16 21 -55 27 -86 7 -31 18 -65 25 -75 12 -16 13 -14 11 21
-6 93 -37 205 -79 285 -8 14 -16 39 -20 55 -18 91 -20 85 62 205 42 63 82 115
87 115 5 0 10 -27 11 -60 1 -85 0 -82 43 -111 45 -29 68 -76 77 -159 9 -77 19
-76 22 3 5 112 -5 156 -55 228 -40 58 -46 74 -48 126 -2 57 1 69 63 192 62
126 142 325 157 394 l7 34 19 -21 c11 -12 17 -26 13 -33 -4 -6 -3 -8 3 -5 33
21 13 -124 -30 -216 -77 -164 -90 -203 -90 -282 0 -79 4 -79 28 0 13 44 40
118 60 165 20 47 49 122 65 168 15 45 29 85 32 87 3 3 11 -13 18 -35 7 -22 18
-39 24 -37 6 3 9 11 7 18 -2 8 -8 34 -12 59 -5 25 -16 67 -25 93 -9 26 -13 55
-10 63 3 8 2 13 -3 10 -9 -6 -37 46 -52 98 -5 18 -5 53 0 86 30 174 31 478 1
612 -4 21 -5 38 -1 38 6 0 50 -89 51 -105 1 -2 14 -18 30 -35 16 -17 32 -40
35 -51 4 -10 11 -19 16 -19 5 0 9 -7 9 -15 0 -8 3 -15 8 -15 4 0 17 -15 30
-34 l23 -34 -21 -69 c-33 -107 -33 -167 1 -290 23 -84 30 -128 30 -198 0 -49
-2 -97 -4 -105 -2 -8 -7 -33 -12 -55 -8 -42 -33 -104 -66 -168 -32 -62 -3 -32
35 36 83 150 101 288 61 462 -32 134 -32 187 1 242 14 24 31 42 37 40 12 -4
50 -67 41 -67 -4 0 -2 -6 3 -12 30 -39 48 -179 62 -475 0 -18 5 -33 9 -33 10
0 8 437 -2 500 -11 68 -35 138 -72 211 -18 37 -30 71 -26 75 4 5 3 6 -2 2 -8
-7 -35 25 -81 95 -10 15 -14 27 -9 26 5 -1 20 1 34 4 52 14 76 15 97 3 27 -14
57 -52 77 -97 l16 -34 -3 56 c-2 39 -9 63 -23 77 -22 23 -88 50 -144 58 -68 9
-90 16 -85 24 3 5 0 12 -6 16 -8 4 -9 3 -5 -4 4 -7 1 -12 -9 -12 -16 0 -70 50
-92 85 -36 57 -53 97 -47 107 4 6 3 8 -3 5 -6 -4 -15 6 -21 21 -51 139 -76
239 -88 348 -2 26 -7 50 -9 55 -3 4 -1 11 5 14 7 4 8 11 1 18 -11 14 -21 158
-10 152 3 -3 12 -26 19 -52 16 -56 12 -45 33 -112 18 -57 22 -105 10 -98 -5 3
-9 -16 -9 -42 -1 -45 3 -42 20 13 9 26 14 18 37 -60 11 -38 21 -73 23 -79 21
-70 26 -97 20 -107 -4 -6 -3 -8 3 -5 6 4 14 -7 18 -26 4 -17 9 -27 11 -20 5
11 -57 287 -74 333 -6 16 -6 34 1 50 14 35 17 49 18 95 2 44 -7 71 -52 158
-16 31 -27 57 -24 57 3 0 -1 13 -10 29 -9 19 -11 32 -5 36 6 3 10 12 10 18 0
8 -3 8 -9 -1 -14 -23 -20 33 -17 159 2 64 7 122 12 130 5 8 7 22 6 31 -2 9 4
30 12 45 13 26 15 27 22 8 4 -11 15 -39 26 -63 10 -23 16 -48 12 -54 -4 -6 -3
-8 3 -5 13 8 57 -89 78 -175 9 -37 17 -106 18 -152 1 -46 5 -82 8 -80 6 4 21
191 22 274 1 59 -12 149 -23 171 -5 9 -12 33 -14 53 -2 19 -7 39 -9 44 -3 4
-9 37 -12 72 -4 36 -8 67 -10 71 -2 3 13 31 35 62 l38 57 11 -52 c15 -76 20
-110 36 -248 2 -19 4 -64 5 -100 l1 -65 19 70 c24 87 24 120 1 215 -10 41 -17
76 -16 78 2 2 22 -6 45 -18 46 -23 45 -18 -5 45 -41 51 -55 78 -55 105 0 29
58 112 72 104 6 -4 8 -3 5 3 -4 6 12 34 34 64 57 76 129 186 129 198 0 5 4 12
9 15 5 3 -4 -33 -19 -82 -15 -48 -31 -105 -35 -127 -11 -66 -14 -366 -4 -420
5 -27 11 -66 14 -85 2 -19 7 -51 10 -70 7 -39 -24 -130 -91 -262 -80 -159
-110 -290 -118 -515 -5 -122 -3 -121 15 7 21 151 61 262 114 324 l25 30 -5
-37 c-9 -54 -12 -178 -5 -182 4 -2 7 1 7 8 1 33 22 157 30 177 3 8 7 21 9 29
13 63 27 110 32 107 4 -2 8 9 9 25 1 16 9 39 16 50 14 19 15 17 27 -33 7 -29
33 -111 56 -182 l44 -130 -25 -40 c-24 -40 -61 -88 -118 -150 -71 -79 -112
-189 -121 -326 l-5 -75 14 73 c18 96 31 135 67 203 30 57 100 136 83 94 -9
-24 -15 -229 -6 -220 3 4 6 10 7 13 4 55 17 122 24 122 5 0 7 7 4 15 -10 25
13 67 66 119 47 46 50 48 51 25 0 -13 3 -35 7 -49 3 -14 6 -86 5 -160 0 -127
-2 -145 -43 -295 -63 -239 -72 -281 -73 -385 -2 -104 6 -167 29 -248 14 -50
14 -92 -1 -187 -37 -232 -132 -388 -340 -554 -88 -71 -96 -79 -131 -132 -68
-100 -94 -206 -89 -354 4 -109 38 -263 81 -362 25 -58 26 -53 10 32 -5 27 -15
108 -22 170 -13 132 0 329 26 375 7 12 16 7 48 -26 43 -46 67 -114 77 -224 7
-72 15 -91 16 -39 0 19 3 43 5 54 2 11 5 54 5 96 1 78 -15 130 -50 156 -9 7
-11 13 -6 13 6 0 -5 7 -22 15 -18 8 -33 20 -33 27 0 21 88 110 195 195 87 70
254 233 238 233 -3 0 1 7 8 16 8 9 24 38 37 63 l23 46 -6 -53 c-3 -29 -15 -82
-26 -119 -20 -62 -31 -91 -104 -248 -87 -188 -112 -271 -121 -392 -6 -95 3
-84 40 45 15 52 45 138 66 192 45 113 145 311 163 322 7 4 8 8 4 8 -5 0 0 12
11 28 10 15 32 58 48 97 39 94 38 191 -4 370 -33 141 -32 137 -34 210 -1 79 1
105 11 105 9 0 67 -120 63 -132 -1 -5 2 -8 8 -8 5 0 7 18 4 43 -5 40 -12 67
-49 201 -19 68 -23 145 -11 229 5 37 11 55 18 51 7 -4 8 -2 4 4 -4 6 3 43 14
81 20 64 26 88 30 116 7 54 129 -462 155 -655 32 -249 32 -250 -42 -398 -57
-113 -109 -273 -112 -347 -4 -84 -1 -134 8 -155 8 -22 10 -17 10 30 2 109 27
218 74 320 26 56 88 152 95 145 6 -5 4 -366 -2 -410 -2 -16 -7 -67 -11 -111
-8 -95 -13 -104 -120 -216 -151 -157 -199 -229 -245 -367 -28 -84 -32 -101
-51 -211 -15 -91 -10 -89 26 9 55 152 139 314 202 391 56 69 132 157 147 169
15 13 17 12 12 -10 -2 -13 -12 -62 -21 -109 -21 -111 -47 -218 -101 -418 -24
-89 -44 -170 -43 -180 0 -11 4 -8 9 8 19 59 83 206 151 345 40 83 74 152 75
155 1 3 5 15 9 27 4 13 12 20 18 16 6 -3 7 -1 3 6 -4 6 -1 25 8 41 8 16 17 43
21 60 4 16 11 30 16 30 6 0 8 4 5 8 -2 4 4 39 15 77 10 38 19 82 19 97 0 16 5
28 11 28 5 0 8 4 4 9 -8 14 6 121 16 121 5 0 9 -9 9 -20 0 -11 3 -20 8 -20 10
0 3 207 -9 240 -1 3 -1 9 0 13 3 17 0 374 -3 412 -10 115 -33 268 -59 392 -8
35 -13 74 -12 87 0 13 -3 23 -6 20 -4 -2 -10 15 -14 38 -9 55 -12 66 -24 107
-6 19 -9 36 -7 39 6 5 71 -79 68 -89 -1 -5 2 -9 7 -9 10 0 22 -33 26 -70 1
-14 6 -56 10 -95 4 -38 9 -73 11 -77 13 -20 23 -218 12 -218 -5 0 -4 -8 1 -19
6 -10 10 -63 9 -118 -2 -109 -7 -98 85 -232 51 -75 100 -194 113 -276 4 -28 9
-53 10 -57 1 -5 2 -36 4 -70 2 -61 2 -62 12 -28 14 48 3 189 -22 280 -12 41
-22 80 -23 85 -2 6 -29 65 -61 130 -53 108 -58 125 -57 179 1 35 6 63 14 68 7
5 8 8 1 8 -7 0 -9 15 -4 42 9 66 3 170 -14 239 -9 34 -15 64 -12 66 9 9 48
-69 41 -84 -3 -10 -3 -14 2 -10 4 4 16 -20 28 -54 11 -34 26 -64 32 -66 12 -4
12 35 -1 255 0 12 -4 22 -7 22 -4 0 -10 15 -13 33 -3 18 -22 58 -40 87 -19 30
-32 59 -29 64 3 5 1 6 -4 3 -13 -8 -32 13 -37 39 -2 11 -11 60 -20 109 -10 50
-26 124 -38 165 -11 41 -21 80 -23 85 -2 12 -16 82 -21 110 -12 62 0 275 16
275 4 0 13 -33 20 -72 7 -40 14 -82 16 -93 3 -11 11 -51 19 -90 8 -38 16 -81
19 -95 10 -50 38 -175 42 -187 2 -7 9 -13 15 -13 8 0 8 4 0 14 -8 10 -14 75
-17 188 -2 95 -6 193 -9 217 -6 60 -25 200 -31 231 -21 113 -24 237 -8 325 19
103 23 121 40 172 9 25 17 55 20 67 2 11 8 22 13 24 6 2 8 9 6 15 -3 7 2 35 9
62 l14 50 -2 -97 c0 -54 -3 -98 -6 -98 -3 0 -5 -98 -5 -218 0 -209 1 -220 28
-307 16 -49 38 -115 50 -145 23 -55 23 -65 3 -180 -18 -108 -26 -148 -35 -179
-15 -50 -6 -241 17 -346 21 -98 23 -95 27 80 2 113 14 249 20 243 4 -4 11 -38
20 -103 3 -22 10 -51 14 -65 74 -215 91 -345 61 -447 -28 -95 -60 -230 -59
-253 0 -14 3 -18 5 -10 12 35 68 140 76 140 8 0 11 -39 10 -126 0 -28 -15
-111 -32 -185 -32 -134 -41 -239 -27 -313 8 -43 48 -127 107 -226 78 -131 182
-384 220 -535 22 -84 29 -84 25 0 -6 131 -31 212 -131 424 -86 182 -112 259
-120 356 l-4 50 15 -38 c36 -95 116 -186 282 -323 157 -129 236 -214 201 -214
-18 0 -75 -55 -93 -90 -18 -36 -22 -101 -10 -215 l8 -90 13 100 c14 117 39
181 85 219 l33 28 9 -24 c17 -46 28 -135 27 -228 -1 -131 -6 -186 -31 -324 -6
-32 -8 -60 -6 -62 8 -8 79 220 92 295 28 160 4 330 -61 441 -39 66 -70 97
-177 183 -26 21 -44 43 -41 49 4 6 2 8 -3 5 -23 -14 -137 122 -187 221 -44 88
-58 131 -77 237 -19 105 -19 143 -3 211 39 165 39 271 0 450 -2 12 -9 38 -14
58 -6 20 -8 36 -6 36 3 0 0 9 -6 21 -6 11 -14 30 -17 42 -2 12 -9 38 -13 57
-28 114 -36 170 -26 181 8 9 7 10 -3 4 -12 -7 -13 10 -8 111 4 65 8 128 11
139 2 11 5 29 5 39 1 16 11 10 49 -30 66 -69 75 -89 89 -212 3 -29 9 -49 13
-43 8 14 5 169 -4 202 -6 19 1 15 33 -21 45 -49 95 -159 106 -232 9 -56 26
-66 19 -10 -12 100 -34 172 -66 220 -15 24 -25 48 -22 54 4 6 3 8 -3 5 -21
-13 -193 215 -185 245 3 11 14 450 13 531 -1 42 1 77 4 77 2 0 12 -26 21 -57
17 -62 25 -83 85 -208 42 -89 82 -219 103 -340 8 -44 15 -73 16 -65 3 24 0
133 -6 162 -2 16 -3 28 -1 28 11 0 67 -94 85 -142 25 -66 52 -179 52 -214 0
-13 4 -24 8 -24 15 0 0 181 -24 293 -8 38 -11 74 -7 80 3 7 2 9 -2 5 -8 -8
-47 83 -48 114 -1 9 -3 15 -6 12 -11 -11 -120 245 -155 365 -14 49 -14 139 1
164 3 4 7 24 9 44 3 20 16 82 30 137 14 56 27 108 29 116 1 8 8 35 15 60 11
41 13 43 26 26 7 -11 11 -23 7 -29 -3 -6 -2 -7 4 -4 14 9 133 -156 133 -184 0
-25 -16 -53 -64 -113 -34 -43 -30 -54 14 -31 18 9 33 15 35 13 1 -2 -6 -37
-17 -78 -20 -79 -19 -162 1 -214 6 -16 13 -27 15 -25 2 2 6 45 10 94 3 50 8
99 10 110 2 11 9 62 17 113 7 50 16 92 19 92 9 0 73 -93 73 -105 0 -13 -13
-111 -19 -150 -3 -16 -14 -64 -26 -105 -16 -58 -21 -100 -20 -185 1 -60 4
-119 6 -130 3 -11 5 -44 5 -74 1 -81 10 -57 16 43 5 97 26 188 57 256 46 99
76 166 82 185 l7 20 12 -20 c18 -33 35 -154 35 -253 0 -107 -12 -159 -69 -283
-42 -92 -48 -137 -27 -212 9 -34 8 -54 -1 -88 -16 -59 -60 -247 -67 -284 -2
-16 -7 -39 -9 -50 l-5 -20 9 20 c9 19 21 60 82 269 l23 80 13 -32 c14 -34 28
-45 19 -15 -19 60 -16 96 14 195 34 110 49 140 44 86 -1 -18 -5 -69 -8 -113
-7 -101 -15 -162 -26 -200 -5 -16 -12 -44 -15 -61 -18 -111 -99 -292 -158
-357 -34 -38 -88 -62 -158 -72 -24 -3 -61 -10 -81 -16 -39 -10 -89 -56 -95
-86 -17 -88 -10 -94 29 -24 15 26 35 54 44 62 19 16 87 16 128 0 l29 -12 -20
-22 c-27 -28 -91 -129 -120 -187 -26 -52 -64 -186 -55 -194 3 -3 1 -6 -4 -6
-6 0 -11 -97 -12 -251 0 -138 2 -248 5 -245 11 11 18 77 28 270 4 61 8 113 10
116 2 4 7 22 10 41 9 51 33 121 53 151 l18 28 23 -31 c13 -17 24 -36 26 -42 1
-7 5 -20 10 -30 10 -23 0 -117 -21 -192 -37 -136 -24 -287 36 -413 30 -63 80
-144 80 -129 0 4 -7 18 -15 31 -25 37 -72 177 -81 236 -10 72 -7 195 6 234 5
17 10 34 10 38 1 4 8 27 16 50 16 45 26 206 13 223 -4 6 -15 36 -24 67 -14 50
-14 59 -1 75 8 10 33 43 55 73 22 30 45 60 51 67 5 7 10 16 10 22 0 5 3 11 8
13 4 2 22 32 40 68 18 36 30 56 28 45 -22 -88 -37 -452 -22 -535 2 -14 10 -64
16 -111 l12 -87 -31 -61 c-37 -75 -69 -188 -76 -266 l-5 -60 19 53 c21 60 29
71 35 51 2 -8 12 -39 22 -69 9 -30 41 -113 70 -185 29 -71 59 -155 67 -185 14
-49 16 -52 17 -22 2 17 3 38 4 45 2 10 -10 84 -18 112 -4 15 -23 60 -61 146
-37 85 -54 140 -60 197 -3 29 2 44 24 71 l29 35 6 -35 c14 -67 89 -256 152
-383 78 -157 86 -199 51 -278 -14 -30 -30 -59 -36 -62 -6 -4 -20 -24 -30 -44
-15 -29 -19 -62 -20 -157 -2 -116 3 -146 13 -75 17 131 39 183 88 217 26 18
35 20 47 10 12 -10 13 -9 6 3 -11 17 -16 170 -6 170 3 0 19 -21 36 -48 16 -26
53 -80 83 -120 65 -88 65 -96 -3 -268 -25 -63 -48 -134 -51 -157 -3 -23 -7
-57 -9 -74 -3 -18 -1 -33 4 -33 10 0 25 41 37 100 8 45 35 97 69 135 32 37 56
81 64 118 l6 28 37 -48 c49 -64 187 -208 154 -161 -14 20 -26 39 -26 43 0 8
-43 69 -52 73 -5 2 -8 9 -8 16 0 6 -13 27 -30 46 -16 19 -29 39 -30 43 0 4 -9
17 -20 29 -10 12 -16 26 -13 32 3 6 3 8 -2 4 -4 -4 -36 37 -72 90 -77 116
-105 167 -95 177 4 5 2 5 -4 2 -14 -8 -87 147 -123 261 -19 59 -65 240 -76
297 -20 103 -20 98 3 84 18 -12 59 -73 61 -91 1 -5 1 -9 2 -10 1 -2 2 -14 4
-28 4 -48 17 -90 26 -84 13 8 11 114 -3 175 -10 44 -23 64 -75 117 -40 40 -65
74 -68 92 -3 17 -7 45 -10 63 -5 32 -10 59 -21 107 -22 108 -24 472 -2 486 4
3 22 -23 38 -58 22 -46 28 -72 25 -100 -11 -88 -6 -270 10 -347 30 -146 38
-177 45 -185 9 -9 5 40 -15 192 -11 79 -14 208 -5 222 8 12 10 9 10 -12 0 -15
5 -39 11 -55 l11 -28 12 30 c18 44 19 122 1 189 -15 57 -15 60 15 165 34 119
33 116 50 226 7 44 24 109 38 145 32 78 34 160 8 238 -15 45 -16 55 -4 70 12
15 11 16 -4 3 -16 -12 -18 -11 -19 5 0 11 -2 27 -4 37 -2 10 9 51 24 92 31 87
23 91 121 -55 46 -69 65 -107 75 -153 32 -156 -6 -253 -127 -326 -21 -13 -38
-24 -38 -26 0 -2 25 -2 56 0 39 3 69 12 96 30 l39 26 -22 -43 c-20 -39 -91
-138 -122 -170 -7 -7 -26 -35 -43 -63 -46 -75 -53 -111 -55 -275 -3 -229 4
-306 15 -170 9 117 20 182 50 295 19 73 80 193 122 240 19 22 43 50 51 62 8
13 19 20 24 17 5 -3 8 -2 7 3 -1 4 9 28 24 53 14 25 29 56 34 70 l7 25 8 -28
c13 -47 3 -227 -15 -297 -10 -36 -47 -144 -83 -240 -97 -261 -113 -323 -128
-505 -6 -74 -10 -83 -51 -139 -78 -103 -91 -164 -69 -318 6 -42 10 -84 9 -94
-2 -13 0 -14 9 -5 8 8 11 51 10 133 -2 107 0 125 18 158 12 21 31 42 43 48 21
9 22 8 21 -91 -2 -170 28 -328 79 -417 l24 -43 16 54 c8 30 18 74 21 99 3 25
8 63 10 85 3 22 5 94 5 160 l1 120 29 -35 c60 -72 78 -132 96 -330 13 -133 10
-161 -19 -222 -31 -67 -28 -79 4 -16 36 72 39 73 64 20 19 -40 86 -144 105
-162 5 -5 39 -49 103 -133 38 -50 49 -53 19 -5 -83 130 -194 341 -205 388 -4
18 2 37 24 69 48 73 70 160 69 281 0 58 -2 116 -4 130 -11 70 -19 102 -46 179
-17 46 -30 93 -30 103 0 19 1 19 25 4 35 -23 48 -21 34 7 -13 23 -33 43 -86
84 -18 14 -30 30 -26 36 3 5 2 7 -4 4 -14 -9 -49 31 -68 77 -9 21 -19 69 -22
107 -5 57 -2 77 17 125 l24 57 12 -63 c15 -69 19 -78 114 -205 37 -49 74 -103
83 -120 18 -36 41 -130 64 -260 3 -16 11 -43 18 -60 12 -27 13 -24 9 45 -13
211 -45 342 -119 490 -25 49 -45 95 -45 101 0 11 68 -54 99 -93 11 -15 11 -21
0 -35 -12 -16 -12 -17 2 -6 13 11 19 7 36 -25 20 -35 55 -123 67 -167 3 -11 3
3 0 30 -10 98 -71 251 -117 297 -13 13 -45 38 -72 56 -26 18 -45 35 -42 38 3
3 1 19 -3 35 -6 19 -5 29 2 29 7 0 7 4 1 13 -17 23 -13 66 11 112 25 46 43 93
52 136 6 31 6 128 0 154 -13 53 -37 138 -41 146 -13 20 -73 199 -66 194 5 -2
14 -18 21 -35 7 -16 16 -30 21 -30 5 0 9 -5 9 -11 0 -6 34 -51 77 -101 76 -90
86 -110 100 -209 4 -30 -4 -55 -38 -125 -46 -97 -47 -98 -55 -164 l-6 -45 37
69 c20 37 46 84 59 105 27 44 76 154 76 171 0 6 6 10 13 8 27 -10 19 -97 -24
-241 -52 -174 -57 -275 -19 -362 40 -91 81 -172 95 -190 16 -19 16 -19 2 5
-20 35 -55 180 -62 260 -4 36 -8 71 -10 78 -5 15 7 15 37 1 25 -11 58 -60 58
-87 0 -9 5 -24 10 -32 17 -26 1 102 -18 140 -14 29 -36 47 -74 62 -14 6 63
298 79 298 11 0 108 -94 121 -117 27 -49 41 -197 28 -301 -9 -69 -37 -172 -67
-247 -16 -38 -29 -72 -29 -74 0 -3 12 6 26 20 46 42 83 132 94 224 4 37 16
-37 18 -115 5 -160 -40 -311 -153 -510 -80 -141 -98 -199 -98 -310 0 -65 6
-102 25 -157 24 -68 96 -208 103 -201 2 2 -8 41 -22 88 -32 110 -40 300 -13
300 8 0 34 -59 31 -72 0 -5 3 -8 7 -8 7 0 35 -55 73 -145 20 -46 58 -173 64
-215 3 -25 8 -54 10 -65 2 -11 4 -38 5 -60 l2 -40 14 34 c9 18 15 54 15 80 1
91 -18 147 -133 387 -21 44 -38 87 -38 95 0 8 -4 19 -10 25 -19 19 -12 71 18
136 18 38 37 68 44 68 6 0 9 3 5 6 -3 4 3 24 14 46 12 23 24 37 29 32 5 -5 22
-61 39 -124 23 -89 30 -106 30 -75 0 22 -3 57 -8 77 -5 21 -5 36 -1 33 16 -10
90 -173 105 -229 8 -32 17 -61 19 -63 8 -8 -4 131 -15 171 -9 34 -38 103 -84
201 -16 35 -27 78 -30 118 -2 36 28 131 38 120 5 -4 5 0 2 9 -4 9 -1 35 5 59
7 24 14 56 16 71 2 16 7 43 10 61 15 85 6 335 -13 372 -14 26 56 -57 89 -105
89 -133 121 -223 194 -555 62 -282 82 -354 125 -457 31 -72 117 -213 126 -205
2 3 -5 29 -15 58 -11 30 -39 106 -61 169 -23 63 -51 149 -62 191 -25 95 -48
239 -39 239 4 0 19 -11 34 -25 14 -13 26 -22 26 -19 0 3 28 -10 63 -28 95 -50
204 -164 256 -268 l43 -85 -7 49 c-4 27 -10 56 -15 65 -4 9 -16 36 -26 61 -10
25 -21 47 -24 50 -3 3 -16 21 -29 40 -14 19 -40 48 -58 64 -32 28 -158 106
-172 106 -15 0 -71 62 -65 72 4 6 2 8 -3 5 -18 -11 -50 63 -63 143 -9 60 -34
169 -54 245 -8 29 -78 187 -86 195 -3 3 -24 30 -46 61 -23 30 -60 73 -82 94
-23 21 -38 43 -35 48 3 6 2 7 -3 4 -6 -3 -40 23 -77 57 -37 35 -67 61 -67 58
0 -2 -17 11 -37 29 -21 18 -37 37 -35 42 1 5 -1 6 -6 3 -10 -6 -132 93 -207
169 -81 80 -205 238 -205 259 0 3 29 -12 65 -34 36 -22 69 -40 74 -40 15 0
173 -92 226 -131 28 -20 77 -62 110 -93 33 -30 63 -56 68 -56 4 0 7 -12 7 -27
0 -40 23 -71 160 -208 79 -80 119 -128 114 -136 -4 -7 -3 -10 4 -5 22 13 78
-112 84 -190 2 -21 6 -41 9 -44 4 -3 9 -30 12 -60 11 -109 29 -169 66 -230 26
-44 27 -36 1 23 -21 46 -44 156 -55 262 -9 87 -34 183 -61 237 -13 26 -59 88
-101 139 -113 132 -116 139 -30 75 42 -32 77 -63 77 -68 0 -5 4 -7 8 -4 24 15
320 -259 324 -299 2 -37 -4 -130 -12 -175 -14 -78 -4 -161 30 -244 48 -114 55
-108 24 19 -4 17 -8 107 -8 202 -1 170 -1 171 17 142 23 -35 26 -36 23 -6 -10
79 -71 151 -211 250 -55 39 -101 74 -103 79 -2 4 -8 8 -13 8 -15 0 -56 38
-194 174 l-130 129 45 -7 c25 -4 81 -27 125 -52 73 -42 172 -80 250 -98 25 -5
21 -1 -20 23 -27 17 -62 36 -77 42 -16 6 -28 15 -28 20 0 5 -6 9 -12 9 -7 0
-38 13 -69 28 -30 16 -64 31 -75 34 -10 3 -22 6 -26 7 -4 1 -26 8 -49 16 -23
8 -54 15 -69 15 -28 0 -76 41 -63 54 5 4 3 6 -4 4 -7 -2 -29 15 -50 38 -21 22
-69 66 -108 97 -88 72 -83 69 -133 102 -23 15 -40 31 -37 35 2 3 -2 7 -9 7
-14 0 -109 62 -114 75 -2 4 -8 8 -14 8 -12 0 -165 118 -189 146 -14 16 -129
299 -129 318 0 3 5 6 11 6 5 0 8 -3 6 -7 -3 -5 7 -9 21 -9 42 -2 86 -14 99
-27 6 -7 18 -41 27 -76 18 -72 40 -106 93 -147 59 -46 115 -97 141 -127 13
-15 33 -38 43 -50 l19 -22 -12 30 c-19 48 -86 132 -142 177 -89 73 -109 101
-121 170 l-6 31 28 -18 c15 -10 34 -26 41 -34 10 -13 12 -9 10 29 -3 50 -35
94 -95 131 -18 12 -30 26 -27 31 4 7 2 8 -4 4 -12 -7 -152 63 -178 88 -7 8
-19 16 -25 18 -6 2 -12 16 -12 31 -1 15 -5 27 -8 27 -4 0 -21 42 -38 93 -18
50 -49 127 -70 170 l-38 77 33 0 c25 0 34 -5 40 -22 4 -13 5 -23 3 -24 -2 0 4
-9 14 -19 10 -9 16 -24 13 -32 -3 -8 -2 -12 3 -8 5 3 23 -24 40 -60 33 -70 42
-80 35 -38 -4 22 8 14 73 -54 84 -86 96 -101 107 -123 5 -13 1 28 -8 65 -4 20
-30 61 -81 130 -56 74 -107 169 -98 179 4 3 22 6 41 6 27 0 42 -8 65 -32 85
-95 165 -235 170 -297 1 -17 6 -31 11 -31 11 0 1 147 -13 183 -6 15 -9 27 -7
27 2 0 29 -35 61 -77 32 -43 73 -92 91 -110 32 -30 34 -36 35 -100 0 -92 7
-217 14 -279 16 -144 68 -261 159 -359 l37 -40 -29 60 c-47 95 -62 161 -77
330 l-7 70 29 -34 c49 -60 81 -126 107 -225 22 -81 36 -112 90 -191 36 -52 83
-133 105 -180 22 -47 43 -85 46 -85 3 0 4 3 2 7 -11 23 -39 88 -70 165 -19 47
-46 102 -61 120 -42 56 -74 138 -91 233 -20 115 -32 152 -62 193 -13 17 -21
37 -17 44 5 7 3 8 -5 3 -19 -11 -81 26 -82 50 0 11 -2 27 -4 35 -1 8 -6 35
-10 60 -16 111 -81 256 -142 317 -40 39 -41 46 -8 31 14 -6 25 -15 25 -20 0
-4 5 -8 11 -8 34 0 253 -185 265 -223 3 -12 17 -47 31 -77 60 -129 76 -190 79
-310 2 -63 3 -121 4 -129 0 -8 2 -12 4 -10 9 9 21 150 21 252 l0 107 33 -67
c57 -117 71 -190 97 -493 12 -153 88 -269 240 -373 33 -22 62 -43 65 -47 3 -4
12 -11 21 -16 21 -11 88 -66 151 -123 l49 -44 -4 -74 c-3 -53 1 -83 13 -111
17 -37 84 -124 101 -130 8 -3 -18 55 -53 122 -15 27 -23 146 -11 146 19 0 106
-105 129 -155 12 -27 26 -70 29 -95 4 -24 9 -48 11 -52 9 -14 5 -155 -5 -194
-23 -86 -31 -226 -17 -294 3 -14 8 -38 12 -55 3 -16 19 -75 34 -130 15 -55 31
-123 34 -150 4 -27 10 -52 12 -55 6 -5 -3 144 -11 205 -2 17 -6 46 -9 65 -18
132 -26 313 -16 365 5 29 8 27 57 -57 28 -48 54 -101 58 -118 4 -17 9 -29 11
-27 3 2 0 24 -6 48 -6 24 -12 51 -14 60 -3 9 -12 39 -21 65 -9 27 -18 56 -20
64 -2 8 -4 15 -5 15 -1 0 -4 9 -7 20 -13 54 -14 85 -1 124 l15 42 26 -35 c15
-19 27 -37 27 -40 0 -3 12 -22 26 -43 64 -94 155 -303 179 -411 4 -18 9 -31
11 -29 3 3 -4 49 -15 103 -11 55 -22 108 -24 119 -2 11 -6 27 -9 35 -3 8 -20
62 -38 120 -18 57 -45 132 -61 166 -16 33 -29 64 -29 67 0 4 -14 29 -31 57
-17 27 -27 55 -23 61 4 8 3 9 -4 5 -7 -4 -18 7 -28 25 -9 18 -27 44 -40 57
-12 14 -21 29 -18 34 3 5 2 8 -3 7 -4 -1 -38 27 -75 63 -37 35 -121 105 -187
154 -91 68 -116 91 -104 97 27 16 120 -12 160 -47 12 -11 20 -17 58 -46 22
-17 -35 59 -60 80 -8 7 -12 16 -9 21 3 5 2 9 -3 8 -13 -4 -63 23 -58 31 2 4
-1 7 -8 8 -7 0 -53 3 -104 6 l-92 5 -61 58 c-172 163 -230 291 -245 543 -4 58
-9 112 -11 120 -3 10 -2 11 4 5 5 -5 20 -41 32 -80 60 -186 181 -347 342 -457
51 -34 111 -65 83 -41 -6 4 -21 22 -32 39 -12 17 -84 93 -161 170 -76 76 -151
159 -165 184 -30 53 -108 281 -122 357 -3 18 -10 45 -16 60 -6 15 -10 28 -9
28 3 0 -23 63 -40 97 -21 40 -45 71 -102 132 -21 21 -38 43 -38 48 0 4 -5 8
-10 8 -9 0 -30 17 -84 65 -6 6 -23 16 -38 24 -16 8 -28 18 -28 23 0 4 -4 8 -9
8 -5 0 -27 11 -50 23 l-41 24 56 15 56 16 77 -40 c77 -41 145 -83 169 -106 7
-6 16 -12 18 -12 21 0 -117 150 -151 164 -17 8 -15 10 15 17 19 4 55 6 80 3
66 -7 119 -66 149 -169 13 -42 24 -82 25 -90 1 -8 5 -17 8 -21 4 -3 5 7 3 23
-2 15 -7 53 -10 83 -3 30 -10 72 -16 94 -6 21 -9 39 -7 41 2 2 19 0 38 -4 30
-6 36 -12 48 -51 19 -66 21 -222 2 -246 -13 -17 -13 -17 9 1 31 27 51 67 51
105 0 39 15 39 29 -1 16 -45 14 -76 -10 -191 -28 -133 -22 -180 35 -316 26
-62 94 -177 81 -137 -17 51 -22 115 -24 305 -2 198 -5 260 -17 345 -7 52 -25
117 -37 133 -6 8 -5 12 3 12 17 0 120 -31 120 -36 0 -2 14 -52 31 -111 18 -60
32 -125 32 -147 0 -28 2 -34 9 -22 14 26 16 156 2 209 -7 26 -9 47 -5 47 12 0
94 -42 105 -54 18 -19 96 -125 96 -130 0 -3 11 -21 24 -41 19 -28 48 -140 36
-140 -2 0 2 -10 8 -22 17 -32 16 -159 -3 -227 -18 -67 -27 -163 -17 -170 4 -2
8 11 9 30 2 18 15 68 29 110 20 57 27 98 28 160 1 45 4 80 7 76 30 -35 48
-254 29 -367 -4 -27 -11 -79 -15 -115 -4 -35 -11 -75 -16 -88 -11 -28 -17 -61
-24 -132 -3 -30 -7 -73 -10 -95 -17 -125 -4 -216 40 -292 28 -46 43 -53 26
-12 -24 61 -34 114 -35 176 0 65 8 130 17 139 2 3 15 -24 28 -58 13 -34 46
-96 73 -137 49 -74 50 -77 52 -156 1 -44 2 -87 3 -96 0 -8 18 -42 38 -75 20
-32 79 -142 131 -244 79 -157 93 -178 88 -140 -10 73 -42 143 -131 292 -71
118 -83 147 -80 198 1 19 3 46 4 60 1 24 1 24 32 -10 17 -19 55 -60 83 -90 28
-31 65 -72 81 -92 17 -19 79 -88 139 -152 133 -141 220 -254 246 -321 24 -62
28 -26 5 49 -14 46 -64 155 -75 166 -3 3 -17 21 -30 40 -39 57 -116 148 -218
258 -52 57 -104 115 -115 129 -11 14 -34 40 -50 57 -73 79 -173 243 -179 296
-2 14 3 24 12 25 8 2 31 6 50 10 19 4 43 8 52 9 9 0 15 3 12 7 -2 4 24 18 59
32 88 35 127 28 215 -41 23 -19 42 -32 42 -29 0 2 -9 24 -20 48 -46 104 -96
131 -225 122 -159 -11 -223 -6 -240 22 -14 22 -22 111 -31 345 -8 203 -13 254
-43 373 -8 32 -7 36 5 26 8 -6 14 -18 14 -25 0 -8 4 -14 8 -14 10 0 43 -56 37
-64 -3 -3 -2 -4 1 -2 3 3 32 -30 64 -72 63 -86 137 -158 220 -216 52 -37 126
-120 213 -239 57 -79 67 -129 63 -351 -1 -105 1 -204 5 -221 l7 -30 1 35 c3
41 8 93 16 135 2 17 8 68 11 115 4 47 8 86 9 88 2 2 20 -47 40 -109 37 -110
64 -157 195 -339 22 -30 49 -77 60 -105 l21 -50 -5 82 c-3 45 -9 90 -14 100
-5 10 -20 38 -32 63 -32 63 -65 110 -163 232 -80 100 -96 132 -102 198 -7 72
-30 145 -60 190 -19 28 -29 48 -22 44 52 -29 263 -167 310 -202 67 -50 146
-143 196 -229 49 -83 174 -273 178 -270 1 2 -10 28 -25 58 -16 30 -43 90 -61
134 -18 44 -41 99 -52 122 -10 24 -19 47 -19 52 0 5 -3 11 -8 13 -4 2 -23 27
-41 56 -19 29 -60 76 -92 104 -32 28 -56 55 -52 61 3 5 1 7 -4 4 -6 -4 -28 6
-49 21 -22 16 -72 48 -112 71 -40 24 -74 46 -76 50 -2 3 21 5 52 5 67 -2 91 9
187 81 87 66 103 70 124 30 14 -29 162 -164 188 -172 24 -8 0 37 -39 74 -128
121 -144 149 -90 155 47 5 124 -18 215 -67 70 -37 101 -48 150 -52 l62 -5 -45
24 c-59 32 -94 52 -100 58 -3 3 -23 18 -45 34 -22 16 -44 34 -50 40 -14 16
-124 72 -160 81 -16 5 -50 8 -75 7 l-45 -1 44 20 c42 19 75 23 251 33 91 5
126 13 165 39 17 10 22 17 13 14 -21 -7 -116 -15 -263 -22 -224 -11 -331 -53
-405 -160 -17 -24 -33 -59 -37 -77 -3 -18 -11 -36 -17 -40 -22 -15 -78 -7
-169 22 -100 34 -119 38 -158 39 -28 1 -114 75 -104 90 2 5 -3 11 -13 14 -16
4 -118 157 -124 187 -2 8 -10 20 -18 27 -12 10 -3 12 48 13 l62 0 0 -30 c0
-26 7 -33 52 -56 72 -36 145 -60 196 -63 40 -2 42 -1 32 16 -20 30 -56 52
-111 66 l-52 14 47 32 c25 18 61 38 79 46 63 26 158 20 250 -16 130 -52 152
-59 133 -44 -11 8 -31 25 -46 39 -108 96 -232 119 -445 83 -171 -28 -282 -3
-377 85 -60 55 -99 88 -104 88 -2 0 -34 19 -71 43 -68 43 -101 60 -184 95
l-44 19 60 -3 c33 -1 94 -3 135 -4 42 -2 78 -8 82 -14 6 -8 8 -8 8 1 0 6 10
10 23 8 12 -2 54 -6 92 -9 192 -16 194 -17 233 -55 21 -20 57 -58 80 -86 l43
-50 -41 65 c-23 36 -45 69 -51 75 -18 18 -9 23 29 14 20 -4 53 -11 72 -14 183
-32 382 -108 515 -198 59 -41 175 -152 175 -168 0 -5 5 -9 10 -9 30 0 -20 106
-84 176 -36 41 -43 54 -33 64 10 12 9 12 -5 1 -15 -11 -21 -9 -43 13 -14 14
-25 23 -25 20 0 -2 -17 7 -38 21 -21 14 -62 34 -91 44 -50 17 -51 19 -24 24
33 7 277 2 290 -6 5 -3 35 -9 68 -12 32 -4 66 -8 74 -9 9 -1 35 -31 57 -67 23
-35 56 -80 73 -100 29 -34 135 -98 191 -114 24 -7 23 -6 -5 16 -58 44 -107
101 -171 195 l-41 60 176 -2 c163 -1 173 0 131 13 -25 7 -58 16 -75 19 -16 3
-34 7 -40 8 -9 3 -71 12 -140 21 -46 7 -161 16 -255 20 -47 2 -87 4 -90 4 -3
0 -88 3 -190 5 -225 5 -206 4 -194 16 5 5 35 12 64 15 30 2 78 7 105 10 67 7
314 12 320 7 5 -5 111 -3 196 3 55 4 129 37 147 65 7 11 10 20 8 20 -2 0 -26
-4 -54 -10 -48 -9 -79 -13 -177 -25 -61 -7 -276 -17 -405 -18 -79 -1 -135 4
-180 15 -86 23 -121 27 -280 33 -155 6 -301 15 -345 21 -16 2 -51 4 -77 5 -50
2 -56 6 -35 28 6 8 -1 5 -17 -5 -16 -10 -38 -19 -50 -21 -111 -14 -893 -21
-1021 -9 -44 4 -105 9 -135 12 -30 3 -66 7 -78 10 -13 3 -43 7 -65 10 -83 11
-252 56 -314 84 -24 10 -43 17 -43 14 0 -7 -129 60 -202 104 -32 19 -55 39
-51 45 3 5 1 7 -4 4 -10 -6 -26 4 -87 53 -37 30 -46 42 -40 52 4 6 2 8 -4 4
-6 -3 -31 15 -55 41 -50 52 -147 178 -147 189 0 4 -6 15 -14 23 -23 26 -94
173 -117 242 -64 197 -65 417 -2 559 45 100 56 120 91 152 106 98 238 181 324
203 60 16 171 16 239 0 117 -27 187 -66 342 -190 48 -38 100 -77 117 -88 l30
-19 -10 26 c-5 15 -25 51 -44 80 l-35 54 52 -22 c83 -37 374 -108 351 -86 -11
10 -235 123 -289 145 -50 21 -225 86 -245 90 -8 3 -40 11 -70 19 -104 29 -273
56 -385 61 -27 2 -52 3 -55 4 -10 3 119 54 247 96 72 25 148 52 170 61 58 26
122 58 120 61 -2 1 -34 -9 -72 -23 -67 -25 -152 -47 -225 -59 -130 -22 -259
-51 -364 -82 -13 -4 1 18 38 61 32 36 56 66 53 66 -7 0 -63 -30 -114 -62 -39
-23 -40 -26 19 100 21 46 38 87 38 92 0 4 7 13 15 20 9 7 13 15 11 18 -3 3 3
17 14 32 11 16 20 33 20 38 0 6 18 19 40 31 22 11 40 19 40 16 0 -6 42 29 95
80 47 45 88 100 98 130 5 15 2 14 -11 -5 -29 -42 -62 -71 -72 -65 -6 4 -9 1
-8 -6 3 -12 -119 -105 -128 -97 -4 4 95 156 120 185 6 7 20 24 31 39 64 85
209 234 298 306 22 18 46 39 53 46 7 6 17 12 22 12 6 0 12 7 16 15 3 8 12 15
21 15 8 0 15 5 15 11 0 22 -121 4 -193 -29 -77 -35 -131 -75 -198 -144 -40
-42 -70 -63 -56 -40 5 7 12 89 22 252 9 146 27 233 62 305 l14 30 -20 -25
c-31 -38 -79 -167 -93 -248 -11 -67 -13 -71 -25 -50 -12 22 -13 22 -8 -7 11
-76 14 -307 4 -327 -13 -24 -189 -258 -194 -258 -3 0 50 162 71 215 l7 20 -23
-20 c-57 -50 -148 -216 -211 -385 -29 -78 -35 -83 -19 -15 6 22 13 58 16 80 4
22 10 42 15 43 5 2 7 7 4 12 -3 5 13 94 34 199 49 232 49 233 50 299 1 36 5
51 12 46 8 -4 8 -1 2 12 -5 11 -8 28 -7 39 1 11 5 65 9 120 3 55 10 119 15
143 4 23 4 42 1 42 -4 0 -14 -53 -23 -117 -23 -160 -43 -240 -72 -292 -13 -24
-14 -24 -21 20 -4 24 -10 48 -13 53 -6 11 -32 -68 -32 -99 0 -11 -7 -33 -15
-48 -8 -15 -9 -25 -4 -21 7 4 9 0 5 -12 -3 -11 -8 -32 -11 -49 -2 -16 -7 -39
-9 -50 -2 -11 -7 -46 -10 -78 -5 -39 -11 -55 -19 -51 -9 5 -9 4 -1 -5 19 -21
-62 -298 -102 -347 -9 -10 -13 -14 -10 -8 3 6 8 65 10 130 5 123 14 218 22
244 3 8 7 44 9 80 2 36 6 82 9 103 12 78 15 105 22 207 7 111 9 270 4 406 -1
45 0 86 4 92 3 6 2 13 -2 16 -16 10 -6 289 13 386 15 78 17 83 27 69 7 -10 8
-8 3 8 -8 30 28 98 63 118 15 9 18 13 7 10 -57 -20 -60 -6 -20 80 35 76 99
148 184 207 35 25 45 28 53 17 8 -11 9 -10 4 3 -3 12 7 22 40 38 24 12 44 24
44 26 0 9 -108 2 -145 -10z m-1319 -1285 c-1 -34 2 -61 6 -61 4 0 3 -12 -2
-26 -7 -16 -7 -23 0 -19 6 4 10 -8 11 -27 0 -18 3 -51 5 -73 11 -98 9 -136
-13 -221 -12 -49 -23 -104 -25 -122 -1 -18 -6 -32 -10 -32 -10 0 -9 -14 -14
150 -4 156 -11 227 -22 234 -4 2 -7 -30 -8 -72 0 -69 -8 -150 -19 -207 -2 -11
-4 -30 -4 -42 -1 -13 -5 -23 -10 -23 -4 0 -9 28 -10 63 -1 34 -3 71 -5 82 -2
11 2 23 8 27 8 6 8 8 0 8 -11 0 -11 71 1 90 3 6 1 10 -5 10 -6 0 -9 4 -6 8 2
4 7 32 11 62 10 96 46 200 83 242 22 26 28 15 28 -51z m-146 -475 c0 -3 -4 -8
-10 -11 -5 -3 -10 -1 -10 4 0 6 5 11 10 11 6 0 10 -2 10 -4z m-3 -418 c-3 -8
-6 -5 -6 6 -1 11 2 17 5 13 3 -3 4 -12 1 -19z m535 -3024 c1 -112 -8 -258 -17
-274 -1 -3 -6 -32 -9 -65 -4 -33 -9 -78 -12 -100 -3 -22 -13 -63 -23 -90 -37
-99 -50 -225 -36 -357 3 -32 23 -129 45 -215 21 -87 40 -171 43 -188 3 -16 8
-43 12 -60 8 -30 8 -30 -38 14 -26 24 -43 49 -40 54 3 6 1 7 -6 3 -17 -11 -60
42 -66 79 -2 17 -7 50 -10 75 -3 25 -8 56 -10 70 -2 14 -6 61 -10 105 -4 44
-10 84 -13 89 -3 5 0 6 6 2 11 -7 11 12 -1 30 -6 11 -11 243 -8 417 1 60 4 76
14 71 9 -6 9 -5 1 7 -7 8 -10 28 -8 44 2 17 6 62 9 100 5 65 19 154 32 199 5
17 7 16 18 -10 17 -38 10 -230 -10 -291 -2 -7 0 -15 6 -18 5 -4 9 -3 8 2 -4
21 2 54 9 50 4 -3 8 16 9 41 4 76 18 66 16 -11 -2 -62 -1 -67 8 -37 5 19 10
45 11 58 0 12 3 22 7 22 3 0 6 10 7 23 0 31 22 165 39 247 2 8 4 24 4 34 1 11
3 17 6 14 3 -3 6 -63 7 -134z m-1148 -549 c1 -5 13 -32 25 -60 21 -46 41 -165
28 -165 -4 0 -14 26 -23 57 -9 32 -20 65 -24 73 -8 16 -22 50 -37 90 -5 14 -8
35 -7 48 1 12 2 32 3 45 2 14 8 4 17 -28 8 -27 16 -54 18 -60z m2255 -25 c-11
-30 -32 -89 -47 -130 l-27 -75 -3 42 c-2 27 6 68 23 115 15 40 34 97 43 126
l17 52 7 -37 c4 -26 0 -55 -13 -93z m-2408 -295 c16 -37 58 -160 79 -230 10
-34 26 -103 35 -154 3 -19 8 -37 10 -40 2 -4 -14 -39 -35 -80 l-38 -74 -22 74
c-12 41 -39 121 -58 179 -34 97 -37 114 -36 220 0 71 5 130 13 155 14 39 14
39 24 15 6 -14 18 -43 28 -65z m2599 -9 c19 -125 11 -185 -56 -384 -24 -74
-44 -140 -44 -147 0 -34 -20 -19 -51 38 -37 69 -37 62 -3 210 17 68 30 105 36
100 7 -4 8 -1 3 7 -9 14 24 132 35 125 4 -3 7 1 6 8 -2 18 47 136 54 132 4 -2
13 -42 20 -89z m-4534 -514 c-5 -8 -19 -118 -19 -149 -1 -33 -15 -7 -24 41 -9
51 -8 57 15 85 21 28 41 43 28 23z m6438 -24 c23 -32 24 -35 12 -88 -15 -65
-21 -58 -31 35 -4 38 -9 73 -11 77 -14 22 8 4 30 -24z m-4858 -569 c10 -124
12 -253 3 -270 -5 -9 -21 -22 -36 -28 -71 -30 -112 -139 -119 -321 -3 -69 -7
-134 -9 -145 -2 -11 -4 -30 -4 -43 -1 -29 -18 -20 -33 16 -50 127 -54 359 -9
555 19 82 51 136 113 190 40 35 62 64 70 90 6 20 13 36 14 34 2 -2 6 -37 10
-78z m3289 0 c4 -9 18 -23 32 -30 74 -40 135 -157 148 -286 3 -32 8 -76 10
-98 15 -146 4 -278 -32 -373 -28 -74 -37 -41 -48 163 -7 133 -10 153 -25 202
-21 64 -60 112 -110 136 -24 11 -25 16 -25 97 0 47 5 88 10 92 6 5 5 8 -2 8
-7 0 -10 7 -7 15 4 8 7 39 9 67 4 105 3 104 40 7z"/>
<path d="M4840 3589 c0 -5 5 -7 10 -4 6 3 10 8 10 11 0 2 -4 4 -10 4 -5 0 -10
-5 -10 -11z"/>
<path d="M3640 9055 c-47 -12 -90 -32 -90 -41 0 -3 33 -21 74 -39 78 -36 124
-49 246 -69 122 -19 111 -20 100 9 -5 14 -7 25 -4 25 15 0 -95 94 -125 107
-45 19 -145 23 -201 8z"/>
<path d="M6164 9017 c-123 -85 -167 -221 -110 -342 l23 -50 23 50 c13 28 26
52 29 55 28 25 101 239 101 297 0 31 -9 29 -66 -10z"/>
<path d="M2140 8964 c-8 -2 -37 -6 -63 -9 l-49 -7 7 -36 c4 -20 21 -71 38
-112 74 -179 159 -278 282 -329 83 -35 171 -57 261 -66 l61 -6 -3 68 c-2 37
-8 89 -14 114 -6 26 -12 53 -14 60 -5 34 -58 129 -96 172 -68 77 -144 121
-245 142 -27 6 -146 12 -165 9z"/>
<path d="M7609 8956 c-222 -38 -372 -227 -381 -482 l-3 -69 35 1 c118 3 248
38 334 88 110 64 196 186 257 365 22 63 24 91 7 92 -7 0 -22 2 -33 5 -51 10
-156 10 -216 0z"/>
<path d="M3609 8782 c37 -52 105 -113 156 -139 61 -32 345 -114 345 -100 0 22
-54 94 -95 126 -24 19 -41 39 -38 45 3 5 1 6 -5 2 -6 -4 -28 2 -49 12 -41 20
-94 35 -213 59 -41 8 -86 17 -98 19 l-24 5 21 -29z"/>
<path d="M5921 8684 c-35 -44 -87 -163 -107 -244 -14 -57 -18 -113 -18 -230 0
-207 7 -218 66 -98 25 51 51 119 58 151 7 31 16 57 19 57 7 0 9 34 11 228 1
85 0 156 -3 158 -3 3 -14 -7 -26 -22z"/>
<path d="M1812 8579 c-79 -20 -192 -67 -192 -80 0 -4 15 -11 33 -15 17 -4 34
-8 37 -9 22 -6 130 -16 200 -19 47 -2 136 -14 198 -26 62 -12 118 -20 124 -18
7 3 -17 33 -53 69 -49 47 -82 70 -128 88 -80 31 -128 34 -219 10z"/>
<path d="M7935 8593 c-87 -22 -180 -83 -232 -152 l-26 -34 39 6 c21 3 66 11
99 17 33 5 76 13 95 16 19 3 40 7 47 9 6 2 50 5 98 6 48 1 108 6 133 11 26 4
58 10 71 13 41 7 36 14 -42 50 -99 46 -227 72 -282 58z"/>
<path d="M6498 8473 c-86 -127 -146 -264 -168 -380 -18 -101 -19 -105 -24
-168 l-5 -60 36 40 c50 57 106 142 133 202 13 29 28 49 33 46 6 -3 7 -1 3 6
-4 6 0 33 8 59 9 26 18 63 21 82 7 41 16 240 11 240 -1 0 -23 -30 -48 -67z"/>
<path d="M3019 8408 c-18 -43 -16 -106 5 -146 19 -36 79 -80 116 -84 23 -3 25
0 26 47 1 73 -19 120 -73 171 -26 24 -51 44 -54 44 -4 0 -13 -14 -20 -32z"/>
<path d="M6812 8402 c-22 -21 -47 -53 -57 -72 -17 -33 -27 -142 -13 -155 3 -3
26 3 50 13 70 33 106 87 103 154 -3 41 -23 98 -35 98 -5 0 -26 -17 -48 -38z"/>
<path d="M3265 8268 c4 -161 45 -282 138 -408 39 -53 55 -70 68 -70 9 0 1 146
-12 210 -16 76 -15 72 -27 103 -7 15 -17 39 -23 55 -16 42 -94 164 -122 190
l-24 23 2 -103z"/>
<path d="M3700 8358 c0 -33 32 -197 51 -263 35 -118 93 -219 185 -320 l27 -30
-7 80 c-3 44 -9 91 -12 105 -3 14 -7 36 -10 50 -27 137 -111 285 -212 374 -18
16 -22 16 -22 4z"/>
<path d="M1478 8342 c-36 -3 -36 -4 -31 -40 48 -333 164 -489 395 -532 71 -13
183 -9 200 8 6 6 6 23 -1 48 -6 22 -11 42 -12 46 0 4 -7 31 -14 59 -8 29 -11
57 -8 62 3 6 1 7 -5 3 -11 -6 -17 12 -13 37 0 4 -3 7 -9 7 -5 0 -10 6 -10 14
0 33 -105 183 -142 202 -125 67 -240 95 -350 86z"/>
<path d="M8233 8325 c-129 -35 -234 -119 -286 -229 -25 -52 -70 -193 -81 -250
-2 -11 -7 -33 -11 -47 -6 -23 -3 -27 22 -32 88 -18 249 9 329 54 24 13 35 15
44 6 10 -9 11 -9 5 1 -8 15 43 75 57 66 5 -3 7 0 6 8 -2 7 3 12 10 10 8 -1 11
2 7 8 -3 5 2 22 13 38 18 27 52 95 52 105 0 3 5 18 11 34 7 15 13 35 14 43 3
20 24 137 31 173 l6 27 -89 -1 c-48 0 -111 -7 -140 -14z"/>
<path d="M2082 8261 l-34 -6 42 -62 c100 -150 262 -249 422 -258 37 -2 72 -6
77 -9 5 -4 12 -2 16 4 3 5 21 10 38 10 33 0 128 29 167 50 18 10 25 9 32 -1 8
-11 9 -10 4 4 -3 9 -1 17 4 17 5 0 7 7 3 15 -3 9 -8 14 -10 11 -3 -3 -26 10
-51 29 -25 19 -51 35 -58 35 -8 0 -14 4 -14 9 0 5 -8 11 -17 14 -10 4 -37 18
-60 31 -24 14 -43 23 -43 20 0 -4 -6 -2 -12 4 -13 10 -122 49 -163 58 -100 22
-281 35 -343 25z"/>
<path d="M7660 8263 c-195 -14 -373 -79 -552 -201 l-68 -45 29 -18 c82 -50
258 -79 366 -60 108 19 244 91 298 158 10 13 23 20 29 17 6 -4 8 -3 5 3 -3 5
14 36 38 69 25 32 45 62 45 67 0 4 -12 7 -27 8 -86 3 -132 4 -163 2z"/>
<path d="M5921 8131 c-8 -5 -9 -11 -3 -15 5 -3 12 1 16 9 6 17 6 18 -13 6z"/>
<path d="M1084 8105 c-6 -16 14 -54 50 -93 43 -49 119 -71 192 -58 l34 7 -15
29 c-9 17 -16 33 -17 37 -2 5 -16 19 -33 33 -16 14 -32 27 -35 30 -29 31 -166
42 -176 15z"/>
<path d="M8665 8101 c-42 -19 -85 -62 -110 -111 -14 -28 -14 -29 13 -35 73
-16 180 18 211 67 33 54 49 87 44 92 -14 13 -120 5 -158 -13z"/>
<path d="M5911 8074 c0 -11 3 -14 6 -6 3 7 2 16 -1 19 -3 4 -6 -2 -5 -13z"/>
<path d="M3960 8075 c0 -5 5 -17 10 -25 5 -8 10 -10 10 -5 0 6 -5 17 -10 25
-5 8 -10 11 -10 5z"/>
<path d="M5902 8030 c0 -14 2 -19 5 -12 2 6 2 18 0 25 -3 6 -5 1 -5 -13z"/>
<path d="M3991 7963 c4 -21 8 -39 9 -40 0 -2 0 -16 0 -33 0 -16 4 -30 8 -30 5
0 4 32 -1 70 -6 39 -13 70 -17 70 -5 0 -4 -17 1 -37z"/>
<path d="M6768 7986 c-54 -14 -147 -69 -185 -108 l-25 -27 38 -7 c62 -12 175
-7 222 10 23 8 42 13 42 10 0 -3 6 1 14 8 8 7 37 27 65 43 28 17 53 35 55 42
12 29 -145 49 -226 29z"/>
<path d="M2842 7913 c-35 -8 -62 -19 -60 -25 10 -30 140 -84 294 -123 l162
-40 -10 25 c-27 70 -81 126 -154 156 -51 21 -157 25 -232 7z"/>
<path d="M1203 7810 c-86 -22 -158 -52 -238 -99 -60 -35 -60 -35 -30 -41 53
-10 271 -1 375 16 85 13 122 16 232 17 65 1 118 5 118 9 0 12 -117 78 -167 94
-75 24 -206 26 -290 4z"/>
<path d="M8440 7814 c-65 -17 -145 -54 -180 -83 l-25 -21 35 0 c140 -4 246
-11 310 -21 41 -6 91 -13 110 -16 55 -6 248 -10 281 -5 l31 5 -29 19 c-15 10
-49 28 -75 40 -27 11 -48 24 -48 29 0 5 -3 8 -7 7 -5 -1 -46 11 -93 26 -103
34 -227 42 -310 20z"/>
<path d="M2465 7766 c-201 -78 -337 -185 -407 -321 -35 -68 -62 -145 -53 -153
3 -4 126 88 145 108 3 3 52 43 110 89 58 47 109 90 113 98 5 7 12 11 18 8 5
-4 9 -1 9 5 0 6 17 28 38 50 49 51 82 90 82 98 0 3 7 14 17 24 9 10 14 20 12
22 -2 2 -40 -10 -84 -28z"/>
<path d="M7378 7748 c53 -76 154 -172 340 -322 198 -159 194 -158 149 -36 -31
86 -103 185 -168 233 -13 9 -40 28 -59 42 -60 44 -243 124 -283 125 -4 0 5
-19 21 -42z"/>
<path d="M7289 7734 c-7 -9 -63 -53 -124 -99 -113 -84 -225 -181 -225 -194 0
-12 116 -13 160 -1 65 18 132 65 169 119 28 42 34 62 39 121 2 38 2 70 0 70
-3 0 -11 -7 -19 -16z"/>
<path d="M2608 7668 c-10 -26 3 -100 23 -144 48 -102 163 -159 309 -155 28 1
36 5 36 20 0 11 -3 18 -7 16 -3 -3 -15 3 -25 13 -11 9 -36 32 -57 49 -20 18
-36 35 -35 38 2 3 -15 14 -36 26 -22 11 -45 26 -51 32 -7 7 -23 19 -35 27 -32
21 -94 73 -98 83 -6 11 -19 8 -24 -5z"/>
<path d="M3088 7652 l-27 -3 34 -47 c115 -158 221 -221 353 -213 23 1 23 2
-10 44 -49 63 -149 163 -178 178 -38 20 -142 44 -172 41z"/>
<path d="M6656 7574 c-54 -17 -82 -33 -133 -78 -45 -40 -137 -155 -130 -162
17 -18 141 4 185 32 12 8 27 12 33 9 5 -4 8 -3 7 2 -4 12 85 98 97 95 6 -2 7
0 3 4 -4 4 7 25 24 48 17 23 36 47 41 54 13 17 -64 15 -127 -4z"/>
<path d="M1327 7484 c-1 -1 -31 -5 -67 -8 -62 -6 -156 -20 -210 -31 -104 -20
-148 -31 -245 -56 -128 -35 -137 -37 -148 -38 -39 -4 94 -69 218 -106 198 -60
387 -64 605 -14 47 11 96 21 110 24 41 6 55 10 60 16 3 3 35 16 71 28 106 35
202 78 190 85 -29 18 -167 59 -241 72 -14 2 -34 6 -45 9 -50 10 -289 26 -298
19z"/>
<path d="M8437 7484 c-1 -1 -27 -4 -57 -8 -123 -14 -148 -18 -205 -32 -108
-27 -183 -55 -189 -70 -3 -8 -2 -12 3 -9 6 3 47 -10 93 -29 133 -55 325 -111
413 -121 16 -2 47 -6 68 -10 78 -13 280 -7 357 11 81 18 144 36 154 41 6 4 17
8 24 9 24 4 152 67 152 75 0 5 -17 13 -37 18 -46 12 -96 25 -103 26 -3 1 -23
7 -45 13 -22 6 -55 14 -74 17 -19 3 -37 8 -41 10 -3 2 -46 11 -95 19 -50 9
-101 18 -114 21 -48 9 -297 25 -304 19z"/>
<path d="M6276 7305 c-9 -26 -7 -32 5 -12 6 10 9 21 6 23 -2 3 -7 -2 -11 -11z"/>
<path d="M6889 7304 c-95 -14 -168 -39 -249 -86 l-55 -31 40 -13 c22 -7 171
-55 330 -107 297 -97 500 -144 640 -148 80 -2 79 -3 49 30 -14 16 -27 33 -27
37 -3 13 -117 119 -177 165 -72 54 -219 124 -300 143 -92 21 -154 24 -251 10z"/>
<path d="M877 7053 c-3 -3 -56 -12 -102 -18 -22 -3 -65 -10 -95 -15 -30 -5
-72 -11 -93 -12 -21 -1 -40 -5 -42 -9 -7 -11 96 -62 160 -79 93 -25 179 -17
450 42 33 7 59 17 58 23 -2 11 -114 54 -163 62 -35 6 -169 10 -173 6z"/>
<path d="M8868 7049 c-53 -8 -130 -33 -168 -53 l-24 -14 39 -11 c51 -13 218
-48 282 -58 117 -18 234 3 331 60 41 24 32 32 -48 41 -72 8 -119 14 -150 21
-93 18 -196 24 -262 14z"/>
<path d="M6290 7041 c-22 -7 -11 -14 90 -64 63 -30 160 -70 215 -87 55 -17
152 -49 215 -72 149 -52 150 -52 150 -41 0 9 -40 66 -69 98 -11 13 -91 83 -97
85 -2 0 -29 12 -60 27 -31 14 -79 32 -107 40 -57 16 -297 26 -337 14z"/>
<path d="M1820 7009 c-191 -43 -296 -91 -387 -175 l-58 -54 85 4 c73 4 108 9
155 20 98 25 160 58 222 121 29 28 55 49 59 46 3 -3 4 -1 3 4 -2 6 2 20 9 33
7 12 9 22 5 21 -4 0 -46 -9 -93 -20z"/>
<path d="M7990 7018 c0 -24 95 -122 152 -155 66 -40 186 -72 298 -80 82 -6 84
-5 70 13 -46 58 -189 154 -229 154 -6 0 -11 5 -11 12 0 6 -3 9 -6 6 -3 -4 -36
3 -72 13 -37 11 -89 24 -117 30 -27 5 -58 12 -67 15 -11 3 -18 0 -18 -8z"/>
<path d="M3609 6891 c-10 -56 43 -137 105 -161 32 -12 157 -10 149 3 -2 4 -1
7 4 7 4 0 15 5 23 10 12 8 8 16 -25 46 -22 19 -60 45 -85 57 -47 22 -169 49
-171 38z"/>
<path d="M674 6795 c-159 -35 -324 -157 -420 -311 -42 -67 -94 -181 -94 -205
0 -11 198 -6 231 5 8 3 33 7 55 10 23 3 60 10 83 16 23 6 46 8 51 5 6 -3 10
-2 10 4 0 5 14 12 31 16 17 4 55 18 85 32 30 13 59 21 65 17 8 -4 9 -3 5 4 -4
6 5 18 21 28 15 9 51 31 78 49 28 18 52 32 55 31 3 0 17 11 31 24 39 38 148
122 187 146 l35 21 -34 25 c-107 80 -322 117 -475 83z"/>
<path d="M8990 6802 c-85 -12 -255 -84 -255 -109 0 -16 258 -211 361 -272 117
-71 206 -100 409 -136 67 -12 235 -16 235 -6 0 6 -12 41 -27 78 -33 85 -96
181 -165 253 -29 30 -51 59 -50 65 2 5 0 7 -3 3 -4 -4 -26 5 -49 21 -134 90
-293 126 -456 103z"/>
<path d="M2449 6796 c-2 -2 -51 -6 -108 -10 -58 -4 -107 -9 -111 -11 -14 -8
-138 -19 -227 -20 -51 0 -93 -3 -93 -7 0 -15 83 -68 137 -88 116 -43 273 -31
413 32 47 22 150 82 150 89 0 3 -32 7 -72 8 -39 1 -75 4 -79 6 -3 3 -8 3 -10
1z"/>
<path d="M7408 6794 c-3 -2 -30 -5 -61 -5 -68 -2 -65 -11 19 -59 195 -110 420
-124 559 -35 87 56 86 61 -13 60 -77 -1 -145 5 -237 20 -16 3 -77 8 -135 11
-58 3 -110 7 -117 9 -6 2 -13 2 -15 -1z"/>
<path d="M1520 6684 c-148 -26 -284 -86 -412 -181 -100 -75 -105 -87 -36 -80
29 3 60 8 68 11 19 7 79 18 108 20 12 0 22 4 22 7 0 4 17 10 38 15 48 10 53
12 129 46 11 6 27 7 35 3 7 -5 10 -5 6 0 -4 4 37 32 91 62 54 30 114 68 132
84 l34 29 -70 -2 c-38 -1 -104 -7 -145 -14z"/>
<path d="M8174 6692 c28 -46 336 -202 451 -228 114 -26 207 -44 233 -44 l33 0
-38 33 c-21 17 -44 38 -52 45 -21 20 -120 82 -131 82 -6 0 -10 5 -10 10 0 6
-5 10 -10 10 -6 0 -29 9 -53 19 -56 26 -130 50 -175 57 -21 3 -40 8 -43 10
-16 10 -211 16 -205 6z"/>
<path d="M6610 6675 c-30 -7 -79 -22 -108 -35 -61 -26 -58 -37 17 -74 78 -38
171 -31 232 19 30 24 73 84 66 91 -11 11 -154 10 -207 -1z"/>
<path d="M2715 6643 c-203 -42 -349 -203 -399 -440 -16 -76 -13 -77 93 -34 39
16 71 26 71 22 0 -3 4 -1 8 4 13 18 53 36 65 29 7 -4 9 -4 5 1 -4 4 19 24 50
45 32 22 86 68 121 104 34 37 68 63 73 60 7 -4 8 -2 4 4 -8 13 102 154 114
147 4 -2 7 1 7 8 0 7 4 19 7 28 4 9 2 16 -6 17 -37 5 -196 9 -213 5z"/>
<path d="M7002 6641 c-18 -5 -35 -11 -38 -14 -7 -7 149 -192 230 -272 82 -82
163 -132 296 -186 l95 -38 3 23 c5 38 -26 145 -65 223 -64 130 -182 229 -308
260 -39 9 -180 12 -213 4z"/>
<path d="M3431 6609 c-152 -30 -293 -107 -397 -217 -85 -91 -207 -311 -228
-412 -38 -186 -44 -240 -28 -240 4 0 35 25 68 55 34 30 65 51 69 47 3 -4 5 -2
3 3 -4 14 124 135 136 128 5 -3 6 -2 3 4 -4 6 12 30 34 54 23 24 57 64 77 88
21 25 45 53 55 63 9 10 17 20 17 23 0 3 4 11 10 18 5 7 42 52 81 101 91 113
169 202 241 274 l23 22 -60 -1 c-33 -1 -80 -5 -104 -10z"/>
<path d="M6185 6590 c-3 -6 1 -7 9 -4 18 7 21 14 7 14 -6 0 -13 -4 -16 -10z"/>
<path d="M1957 6564 c-1 -1 -27 -5 -57 -8 -123 -14 -236 -40 -348 -81 -53 -20
-104 -40 -112 -45 -8 -5 -33 -19 -55 -31 -62 -33 -165 -104 -220 -151 -108
-93 -255 -253 -255 -278 0 -6 33 -3 130 15 104 18 271 72 378 121 29 13 58 21
64 18 6 -4 8 -3 5 2 -3 6 15 21 41 34 26 14 78 45 116 70 37 25 75 50 84 55
17 11 26 19 92 75 36 31 47 37 60 27 12 -9 13 -8 4 2 -9 10 4 29 62 85 41 40
74 77 74 82 0 7 -56 14 -63 8z"/>
<path d="M7876 6563 c-5 -5 104 -117 179 -183 210 -186 507 -333 786 -389 57
-12 114 -24 127 -27 52 -11 16 39 -134 190 -102 103 -111 110 -197 168 -34 23
-64 45 -67 48 -17 22 -321 149 -355 150 -3 0 -15 2 -28 5 -20 4 -44 9 -107 21
-14 2 -56 7 -95 9 -38 3 -78 7 -87 9 -9 2 -19 2 -22 -1z"/>
<path d="M6064 6284 c45 -403 172 -601 477 -748 76 -36 98 -42 100 -28 0 4 3
16 5 27 6 26 5 203 -1 235 -3 14 -7 36 -10 50 -3 14 -7 34 -9 45 -7 33 -46
128 -67 162 -11 18 -17 38 -13 45 4 7 4 10 -1 6 -4 -4 -28 16 -54 44 -45 50
-142 128 -159 128 -4 0 -13 5 -20 12 -6 6 -17 13 -24 14 -7 2 -42 14 -78 27
-36 14 -85 28 -109 32 l-43 7 6 -58z"/>
<path d="M3675 6296 c-35 -11 -113 -44 -124 -53 -10 -8 35 -44 73 -58 88 -32
150 -25 216 24 19 14 40 24 45 23 6 -2 7 0 3 3 -4 4 -1 20 7 36 8 15 15 30 15
33 0 10 -198 3 -235 -8z"/>
<path d="M741 6223 c-155 -24 -309 -93 -437 -195 -79 -62 -93 -78 -67 -73 10
2 54 9 98 15 82 12 112 19 202 51 28 9 54 15 57 12 3 -4 6 -1 6 5 0 7 7 12 15
12 9 0 34 9 55 20 22 11 40 17 40 13 0 -5 4 -3 8 3 4 6 23 19 42 29 47 23 180
109 180 115 0 10 -115 6 -199 -7z"/>
<path d="M8977 6219 c31 -31 177 -114 275 -157 95 -42 250 -87 336 -97 26 -4
58 -8 72 -10 22 -3 19 1 -22 39 -163 150 -374 233 -611 241 -66 2 -68 1 -50
-16z"/>
<path d="M4097 6178 c-57 -57 -130 -153 -166 -219 -57 -106 -111 -298 -111
-397 l0 -36 28 30 c24 27 73 93 94 127 103 165 162 313 203 510 3 15 3 27 0
27 -3 0 -25 -19 -48 -42z"/>
<path d="M5747 6206 c-3 -8 -4 -56 -2 -108 5 -125 37 -224 108 -327 33 -48 40
-45 52 24 24 148 -8 261 -115 394 -28 34 -35 37 -43 17z"/>
<path d="M6822 6102 c-4 -84 40 -194 97 -249 48 -45 191 -106 191 -81 0 36
-113 216 -179 285 -32 33 -94 83 -103 83 -3 0 -5 -17 -6 -38z"/>
<path d="M2577 6081 c-180 -136 -226 -373 -124 -634 33 -85 41 -85 51 -2 4 28
9 65 12 84 10 63 13 86 13 124 1 21 4 36 9 34 4 -3 7 25 8 62 1 96 20 201 36
201 5 0 7 4 4 9 -3 5 5 40 19 77 14 38 25 70 25 71 0 9 -20 -1 -53 -26z"/>
<path d="M7281 6071 c31 -64 68 -207 74 -282 3 -38 7 -84 10 -102 2 -17 7 -54
10 -82 27 -245 31 -255 61 -186 34 77 53 144 60 219 8 83 8 76 0 142 -4 30 -8
64 -9 75 -1 11 -8 26 -14 33 -7 7 -16 25 -19 39 -7 27 -18 43 -69 98 -30 33
-101 85 -115 85 -5 0 0 -18 11 -39z"/>
<path d="M1970 6054 c-267 -128 -461 -200 -735 -275 -233 -63 -319 -93 -400
-139 -61 -35 -128 -85 -100 -76 39 14 191 45 255 51 36 4 80 9 98 11 18 2 55
6 83 9 28 3 54 7 58 9 3 2 31 7 61 11 82 12 84 12 100 18 8 3 40 13 70 22 30
10 79 28 108 41 29 14 58 21 64 18 6 -4 8 -2 5 3 -4 6 8 18 26 27 46 24 155
95 208 136 48 37 187 170 179 170 -3 0 -39 -16 -80 -36z"/>
<path d="M7910 6027 c233 -228 499 -355 825 -392 106 -12 132 -15 184 -20 57
-6 173 -28 229 -44 17 -5 32 -8 32 -6 0 2 -30 23 -67 47 -82 53 -227 114 -315
132 -128 27 -456 130 -545 171 -17 8 -34 15 -38 15 -6 0 -67 26 -310 134 l-60
27 65 -64z"/>
<path d="M3488 6021 c-118 -38 -212 -115 -256 -209 -24 -51 -27 -68 -26 -162
0 -94 4 -114 33 -188 18 -46 38 -85 45 -88 15 -6 98 32 143 64 18 13 38 20 44
16 7 -4 9 -3 6 3 -4 6 10 25 31 43 20 17 49 49 63 70 15 22 30 36 34 32 5 -4
5 -2 2 4 -3 6 0 28 8 50 15 41 15 248 0 309 -10 41 -13 59 -14 68 -2 12 -53 7
-113 -12z"/>
<path d="M450 5869 c-76 -15 -167 -67 -238 -135 -53 -52 -64 -67 -52 -74 54
-31 276 -35 344 -6 22 9 46 14 53 11 8 -2 11 0 8 5 -3 6 -1 10 5 10 16 0 120
71 168 116 l45 41 -64 17 c-76 21 -206 28 -269 15z"/>
<path d="M9255 5873 c-28 -6 -119 -35 -125 -40 -7 -6 91 -89 145 -122 85 -52
159 -73 265 -77 92 -3 186 9 204 27 6 5 -10 29 -37 58 -26 28 -47 48 -47 45 0
-3 -6 1 -14 8 -8 7 -12 16 -9 21 2 4 1 7 -4 5 -16 -4 -82 35 -76 45 3 6 1 7
-5 3 -6 -3 -33 2 -59 12 -46 18 -183 26 -238 15z"/>
<path d="M3670 5769 c0 -5 5 -7 10 -4 6 3 10 8 10 11 0 2 -4 4 -10 4 -5 0 -10
-5 -10 -11z"/>
<path d="M1977 5723 c-37 -7 -149 -39 -250 -73 -193 -63 -279 -109 -396 -208
-95 -81 -236 -246 -225 -263 8 -14 146 -32 244 -33 84 0 219 12 233 21 5 3 17
6 26 7 46 4 208 74 257 111 17 13 34 21 38 18 3 -4 6 -2 6 4 0 5 18 28 39 51
54 57 91 112 149 223 26 52 55 104 62 116 8 12 11 25 8 28 -11 12 -123 10
-191 -2z"/>
<path d="M7780 5732 c-50 -5 -55 -15 -27 -59 14 -22 43 -75 65 -119 82 -163
173 -256 315 -323 114 -53 277 -89 390 -86 28 1 47 -3 47 -9 0 -7 3 -7 8 1 4
6 39 14 77 17 82 6 134 16 140 26 2 4 -27 46 -64 93 -38 47 -66 89 -63 93 4 4
2 4 -4 1 -6 -3 -26 10 -45 29 -19 19 -59 54 -89 77 -30 23 -57 45 -60 48 -33
43 -430 187 -560 204 -77 10 -94 11 -130 7z"/>
<path d="M2838 5526 c-78 -32 -151 -80 -181 -119 -31 -42 -72 -122 -85 -169
-12 -44 -3 -50 68 -43 74 7 121 23 175 57 61 40 106 139 107 233 1 75 0 76
-84 41z"/>
<path d="M6978 5523 c-6 -51 12 -136 39 -186 49 -89 135 -137 253 -140 64 -2
65 -2 63 23 -2 14 -21 62 -43 107 -52 106 -114 157 -248 207 -56 21 -60 21
-64 -11z"/>
<path d="M314 5524 c-38 -6 -91 -22 -118 -33 -48 -21 -49 -22 -28 -37 86 -60
284 -77 397 -34 33 12 64 26 68 30 10 8 -82 54 -142 70 -62 16 -100 17 -177 4z"/>
<path d="M9475 5532 c-49 -7 -114 -27 -163 -50 -53 -25 -53 -26 -30 -38 45
-25 133 -46 203 -48 80 -3 130 6 198 35 26 11 52 17 56 14 5 -3 8 3 7 12 -3
18 -9 22 -71 47 -41 16 -165 34 -200 28z"/>
<path d="M2045 5430 c-3 -6 1 -7 9 -4 18 7 21 14 7 14 -6 0 -13 -4 -16 -10z"/>
<path d="M1057 5414 c-1 -1 -33 -4 -72 -7 -91 -8 -171 -23 -241 -48 -70 -23
-194 -90 -245 -129 -20 -17 -41 -30 -47 -30 -12 0 -24 -28 -14 -34 22 -13 140
-37 194 -38 170 -3 297 47 407 162 14 14 29 24 34 22 5 -1 6 2 3 7 -4 5 0 15
7 23 15 16 49 67 45 69 -5 3 -68 5 -71 3z"/>
<path d="M8780 5402 c0 -8 17 -36 37 -61 117 -147 254 -214 432 -212 104 0
213 28 217 54 1 9 -1 15 -5 12 -5 -2 -23 7 -42 21 -175 131 -341 188 -581 198
-45 2 -58 -1 -58 -12z"/>
<path d="M205 5232 c-37 -12 -70 -41 -89 -77 -11 -19 -17 -38 -13 -41 13 -13
85 -23 126 -17 35 4 54 15 88 51 24 24 42 49 40 55 -8 26 -105 44 -152 29z"/>
<path d="M9600 5233 c-8 -3 -26 -10 -39 -15 -23 -8 -23 -9 -5 -35 39 -61 71
-81 135 -87 37 -3 94 6 106 17 8 9 -19 63 -42 85 -40 37 -108 53 -155 35z"/>
<path d="M7315 4366 c10 -14 19 -26 22 -26 7 0 -17 39 -28 46 -6 3 -3 -5 6
-20z"/>
<path d="M7990 4210 c-1 -35 -25 -61 -95 -103 -64 -38 -88 -61 -132 -129 -15
-24 -31 -44 -35 -46 -5 -2 -8 -8 -8 -13 0 -5 21 5 47 21 26 17 52 30 59 30 15
0 35 -79 28 -115 -3 -16 -21 -58 -40 -94 -40 -73 -40 -95 0 -27 46 79 67 139
69 198 2 55 3 57 44 81 l41 25 -24 -55 c-29 -66 -69 -200 -78 -263 -7 -50 -9
-227 -2 -238 2 -4 7 -23 10 -44 3 -20 17 -65 31 -100 18 -46 23 -54 19 -28 -3
19 -7 107 -9 195 -5 187 4 242 73 467 33 107 40 214 16 245 -12 17 -13 16 -14
-7z"/>
<path d="M1876 3957 c3 -10 9 -15 12 -12 3 3 0 11 -7 18 -10 9 -11 8 -5 -6z"/>
<path d="M8470 3950 c0 -5 5 -10 11 -10 5 0 7 5 4 10 -3 6 -8 10 -11 10 -2 0
-4 -4 -4 -10z"/>
<path d="M956 3917 c3 -10 9 -15 12 -12 3 3 0 11 -7 18 -10 9 -11 8 -5 -6z"/>
<path d="M5790 2953 c0 -5 5 -15 10 -23 8 -12 10 -11 10 8 0 12 -4 22 -10 22
-5 0 -10 -3 -10 -7z"/>
<path d="M5801 2864 c0 -11 3 -14 6 -6 3 7 2 16 -1 19 -3 4 -6 -2 -5 -13z"/>
<path d="M3990 2685 c0 -8 4 -15 10 -15 5 0 7 7 4 15 -4 8 -8 15 -10 15 -2 0
-4 -7 -4 -15z"/>
<path d="M5692 2625 c0 -16 2 -22 5 -12 2 9 2 23 0 30 -3 6 -5 -1 -5 -18z"/>
<path d="M7140 2185 c0 -8 2 -15 4 -15 2 0 6 7 10 15 3 8 1 15 -4 15 -6 0 -10
-7 -10 -15z"/>
<path d="M1581 1984 c0 -11 3 -14 6 -6 3 7 2 16 -1 19 -3 4 -6 -2 -5 -13z"/>
<path d="M3581 1914 c0 -11 3 -14 6 -6 3 7 2 16 -1 19 -3 4 -6 -2 -5 -13z"/>
<path d="M7164 1868 c13 -29 28 -64 35 -78 11 -25 11 -24 6 5 -7 32 -45 114
-57 121 -4 3 3 -19 16 -48z"/>
<path d="M2721 1871 c-20 -38 -38 -111 -27 -111 2 0 12 26 21 58 9 31 22 63
27 70 6 7 8 15 5 18 -3 3 -15 -12 -26 -35z"/>
<path d="M4022 1390 c0 -14 2 -19 5 -12 2 6 2 18 0 25 -3 6 -5 1 -5 -13z"/>
<path d="M2402 1160 c0 -14 2 -19 5 -12 2 6 2 18 0 25 -3 6 -5 1 -5 -13z"/>
<path d="M5026 1065 c9 -91 29 -124 158 -269 133 -149 211 -283 291 -496 36
-95 37 -93 20 25 -4 22 -16 74 -27 115 -11 41 -20 83 -21 93 -1 9 -4 17 -7 17
-3 0 -14 19 -24 42 -11 24 -26 51 -34 61 -8 9 -12 17 -8 17 4 0 1 6 -6 14 -7
8 -26 32 -43 53 -16 20 -67 76 -112 123 -98 103 -143 160 -172 220 l-22 45 7
-60z"/>
</g>
</svg>
