<?xml version="1.0" standalone="no"?>
<!DOCTYPE svg PUBLIC "-//W3C//DTD SVG 20010904//EN"
 "http://www.w3.org/TR/2001/REC-SVG-20010904/DTD/svg10.dtd">
<svg version="1.0" xmlns="http://www.w3.org/2000/svg"
 width="1000.000000pt" height="1000.000000pt" viewBox="0 0 1000.000000 1000.000000"
 preserveAspectRatio="xMidYMid meet">
<metadata>
Created by potrace 1.11, written by Peter Selinger 2001-2013
</metadata>
<g transform="translate(0.000000,1000.000000) scale(0.100000,-0.100000)"
fill="#000000" stroke="none">
<path d="M5206 9968 c-4 -18 -8 -45 -10 -61 -7 -45 18 -121 58 -176 21 -28 41
-51 45 -51 18 0 45 85 45 136 -1 69 -28 112 -101 163 l-32 22 -5 -33z"/>
<path d="M5005 9908 c-19 -90 -23 -203 -12 -438 3 -80 6 -151 6 -159 1 -26 37
17 70 83 70 143 72 289 7 490 -17 55 -36 101 -42 103 -6 2 -19 -31 -29 -79z"/>
<path d="M5424 9923 c-26 -86 -23 -222 6 -298 30 -79 109 -195 133 -195 12 0
6 193 -9 265 -20 92 -93 285 -109 285 -2 0 -12 -26 -21 -57z"/>
<path d="M4842 9947 c-38 -27 -79 -89 -93 -141 -10 -35 -7 -122 5 -133 7 -8
60 24 90 54 33 32 55 78 57 120 3 36 -10 111 -20 117 -4 3 -22 -5 -39 -17z"/>
<path d="M4167 9865 c-10 -53 0 -151 20 -195 21 -46 88 -130 103 -130 14 0 32
68 32 120 -1 81 -37 146 -113 203 l-37 28 -5 -26z"/>
<path d="M4633 9846 c-63 -53 -145 -145 -177 -200 -39 -67 -55 -138 -52 -226
3 -105 15 -115 51 -48 16 29 59 103 97 163 73 117 122 230 133 308 4 26 6 47
4 47 -2 0 -27 -20 -56 -44z"/>
<path d="M3617 9831 c-32 -39 -51 -103 -43 -146 8 -42 53 -99 93 -119 31 -15
32 -15 37 12 19 90 1 204 -43 260 l-18 24 -26 -31z"/>
<path d="M6322 9812 c-36 -84 -44 -163 -24 -234 1 -5 2 -13 2 -19 0 -19 75 31
98 66 42 61 33 156 -20 212 -12 13 -25 23 -29 23 -3 0 -16 -22 -27 -48z"/>
<path d="M5860 9824 c-41 -18 -77 -49 -95 -84 -20 -38 -9 -160 15 -160 18 0
91 63 106 92 18 34 28 135 16 155 -5 8 -17 7 -42 -3z"/>
<path d="M6093 9653 c-19 -43 -93 -272 -93 -286 0 -7 -15 -59 -33 -115 -31
-97 -32 -102 -12 -96 72 23 156 114 187 205 25 73 19 198 -13 267 l-24 53 -12
-28z"/>
<path d="M3859 9599 c-42 -137 -10 -286 78 -371 35 -34 113 -82 120 -74 6 5
-105 382 -133 451 -14 36 -30 65 -35 65 -5 0 -18 -32 -30 -71z"/>
<path d="M5277 9588 c-41 -51 -77 -120 -85 -162 -9 -45 -5 -157 6 -186 l9 -24
37 38 c20 22 51 69 67 104 26 54 31 77 32 141 1 81 -8 131 -23 131 -5 0 -24
-19 -43 -42z"/>
<path d="M4687 9540 c-60 -65 -89 -133 -92 -214 -1 -39 2 -86 7 -105 l9 -34
40 39 c22 21 54 67 71 102 26 53 31 74 30 130 0 37 -3 76 -6 87 -2 11 -5 23
-5 28 -2 16 -20 5 -54 -33z"/>
<path d="M3328 9553 c-16 -3 -28 -7 -28 -11 1 -9 308 -238 376 -280 28 -18 56
-32 62 -32 28 0 -44 159 -99 218 -76 82 -194 121 -311 105z"/>
<path d="M6540 9550 c-119 -22 -218 -115 -269 -253 -11 -32 -21 -60 -21 -62 0
-30 153 73 449 302 19 14 -101 24 -159 13z"/>
<path d="M6903 9482 c-72 -97 -91 -220 -50 -332 12 -36 27 -65 32 -64 6 0 25
31 44 70 46 92 53 182 22 283 -12 39 -23 71 -24 71 -2 0 -13 -13 -24 -28z"/>
<path d="M3060 9475 c-40 -106 -39 -216 5 -313 40 -88 47 -91 76 -30 20 42 24
67 24 137 0 79 -3 92 -35 155 -20 38 -41 71 -48 74 -6 2 -16 -8 -22 -23z"/>
<path d="M5799 9429 c-129 -126 -202 -244 -251 -404 -40 -128 -42 -138 -21
-126 31 16 144 134 189 198 25 33 62 99 84 145 39 84 85 229 78 250 -2 6 -38
-22 -79 -63z"/>
<path d="M4099 9468 c-13 -44 -17 -186 -7 -272 11 -94 51 -222 99 -321 45 -91
59 -108 60 -79 0 10 2 28 5 39 2 11 4 63 4 116 1 153 -42 322 -117 457 -31 54
-41 69 -44 60z"/>
<path d="M2457 9273 c-26 -59 -29 -98 -11 -143 20 -49 82 -104 100 -89 28 23
37 119 17 169 -13 33 -69 100 -83 100 -4 0 -14 -17 -23 -37z"/>
<path d="M7472 9266 c-41 -44 -58 -96 -47 -145 7 -38 26 -91 32 -91 3 0 18 9
33 20 42 30 72 85 74 134 1 41 -29 126 -44 126 -4 0 -26 -20 -48 -44z"/>
<path d="M3368 9283 c-37 -41 -81 -132 -99 -203 -46 -177 -4 -341 118 -465 61
-62 141 -114 152 -97 17 27 0 386 -20 440 -5 13 -11 36 -14 53 -7 37 -56 162
-93 235 -26 52 -29 54 -44 37z"/>
<path d="M6573 9213 c-65 -140 -83 -196 -109 -343 -7 -44 -12 -297 -6 -338 l4
-31 47 29 c234 145 306 421 174 672 -19 36 -43 73 -52 82 -17 15 -20 10 -58
-71z"/>
<path d="M4788 9217 c46 -62 79 -103 87 -113 6 -6 75 -100 155 -207 80 -108
148 -196 153 -197 13 0 8 114 -8 175 -48 183 -194 317 -383 351 -9 2 -10 -2
-4 -9z"/>
<path d="M4486 9128 c-34 -110 -48 -197 -51 -328 -4 -157 12 -256 71 -437 l37
-113 23 21 c12 12 38 51 57 88 111 211 112 437 4 649 -37 73 -105 172 -118
172 -3 0 -14 -24 -23 -52z"/>
<path d="M2725 9097 c13 -191 81 -352 193 -456 55 -52 135 -104 197 -131 42
-18 45 -18 46 -2 8 111 -43 302 -107 403 -59 93 -168 185 -278 234 l-56 25 5
-73z"/>
<path d="M7235 9152 c-206 -96 -329 -247 -376 -463 -18 -84 -27 -184 -17 -194
6 -6 133 60 175 91 148 109 237 281 257 499 7 74 1 86 -39 67z"/>
<path d="M5199 9153 c-2 -15 7 -89 21 -173 5 -30 12 -71 15 -90 3 -19 12 -69
20 -110 8 -41 17 -91 20 -110 3 -19 8 -46 10 -60 3 -14 7 -45 10 -70 3 -25 9
-67 14 -95 5 -27 7 -53 5 -57 -2 -3 0 -9 6 -13 12 -8 44 63 66 147 38 148 19
303 -56 453 -37 74 -128 198 -131 178z"/>
<path d="M5962 9105 c-156 -47 -255 -218 -278 -481 -3 -38 -8 -71 -10 -73 -2
-2 -4 49 -5 115 0 90 -3 113 -10 94 -14 -34 -49 -199 -49 -232 0 -43 -15 -40
-16 3 -4 100 -64 218 -128 251 -18 9 -17 6 5 -18 44 -48 61 -93 88 -229 12
-61 6 -485 -8 -534 0 -2 -10 4 -21 14 -11 10 -20 15 -20 11 0 -4 25 -77 55
-163 55 -154 56 -156 50 -242 -3 -47 -8 -97 -10 -111 -16 -99 -37 -230 -41
-255 -11 -65 -46 -219 -54 -239 -8 -20 -9 -20 -8 -1 0 11 3 31 7 45 4 14 1 49
-7 80 -14 53 -12 264 2 330 26 117 27 322 2 413 -10 37 -21 67 -25 67 -4 0 -5
-44 -2 -97 7 -141 6 -367 -4 -448 -12 -111 -18 -106 -38 34 -8 57 -14 134 -13
171 0 38 -2 66 -6 64 -11 -7 -19 -80 -22 -214 -5 -171 -5 -170 -14 -170 -5 0
-9 6 -9 13 -2 25 -15 94 -29 151 -20 79 -20 77 4 327 11 106 2 364 -13 388 -1
3 -6 22 -9 41 -10 68 -78 260 -91 260 -2 0 3 -24 11 -52 16 -63 40 -192 50
-268 9 -76 6 -288 -5 -330 l-9 -35 -2 30 c-2 35 -6 59 -22 135 -6 30 -12 62
-13 70 -2 15 -12 84 -21 145 -12 81 -30 152 -69 277 -24 76 -47 158 -51 183
-3 25 -10 47 -14 50 -5 3 -7 -3 -5 -12 2 -10 6 -49 9 -88 3 -38 8 -81 11 -95
42 -183 49 -383 20 -524 -9 -44 -17 -88 -18 -98 -2 -25 -17 -7 -23 28 -2 16
-7 36 -10 44 -3 8 -7 71 -10 140 -5 172 -13 293 -19 298 -6 6 -6 -4 -10 -198
-2 -123 -6 -158 -29 -230 -14 -47 -43 -142 -64 -212 -37 -124 -57 -172 -47
-112 2 16 7 74 9 129 3 55 16 156 29 225 14 69 24 132 25 140 0 8 3 38 7 65
13 83 9 257 -8 331 -9 39 -32 124 -51 190 -36 125 -45 173 -46 239 0 31 -3 36
-11 23 -16 -28 -24 -97 -23 -203 0 -91 3 -125 21 -235 12 -76 24 -184 27 -245
4 -74 -14 -157 -68 -324 -30 -92 -57 -183 -61 -204 -15 -79 -29 -37 -43 127
-15 174 5 381 54 551 8 27 10 45 5 40 -11 -13 -68 -160 -80 -210 -19 -76 -38
-247 -36 -316 1 -21 -2 -39 -7 -39 -4 0 -23 -14 -43 -32 -39 -33 -69 -85 -79
-133 -13 -69 -15 -95 -17 -236 0 -82 -5 -152 -10 -155 -5 -3 -9 7 -10 23 0 15
-3 37 -6 48 -7 24 -6 412 0 473 5 42 -5 57 -18 25 -21 -57 -33 -156 -29 -252
2 -58 6 -115 8 -126 2 -11 7 -45 11 -75 4 -30 9 -66 11 -80 4 -22 5 -167 2
-212 -2 -31 -16 -9 -24 39 -4 27 -8 50 -9 53 0 3 -4 27 -9 53 -4 27 -9 59 -12
70 -20 101 -25 389 -10 627 18 285 0 524 -48 656 -14 38 -15 34 -16 -86 -1
-69 -4 -181 -6 -250 -3 -69 -6 -162 -7 -207 -2 -91 -8 -94 -26 -12 -25 119
-94 227 -177 275 -48 28 -151 52 -196 46 -28 -4 -26 -7 39 -38 134 -66 244
-175 275 -275 16 -50 16 -50 -5 -43 l-22 6 22 -23 c49 -54 81 -183 83 -339 1
-98 6 -186 14 -255 3 -22 8 -67 11 -100 4 -33 8 -67 10 -75 2 -8 7 -46 11 -85
3 -38 8 -79 10 -90 7 -39 17 -290 11 -284 -4 3 -20 39 -37 79 -44 106 -68 209
-106 445 -10 61 -25 142 -38 195 -13 57 -16 55 -31 -18 -8 -41 -17 -34 -44 36
-19 48 -38 146 -57 287 -3 27 -10 58 -15 70 -9 21 -9 17 6 -70 2 -16 7 -70 10
-120 14 -252 23 -320 58 -475 37 -159 50 -230 45 -235 -14 -14 -37 13 -76 88
-40 77 -130 203 -138 194 -3 -2 13 -53 35 -113 22 -59 39 -109 38 -111 -2 -1
-37 41 -78 95 -137 177 -124 142 -123 315 1 84 4 175 7 202 5 47 5 48 -8 25
l-14 -25 -1 30 c0 69 -81 292 -112 311 -5 3 -3 -7 5 -22 20 -39 45 -129 51
-184 5 -45 10 -106 21 -279 4 -51 8 -98 10 -105 22 -72 18 -71 -68 10 -115
110 -209 157 -329 167 -55 5 -60 -3 -20 -29 85 -55 337 -289 364 -337 9 -17 8
-17 -19 -4 -70 36 -181 64 -286 73 -67 5 -100 20 -141 62 -37 40 -26 60 18 32
65 -39 182 -67 202 -47 9 8 -48 81 -116 148 -70 69 -132 100 -217 107 l-66 5
45 -59 c25 -32 61 -74 81 -93 33 -33 34 -36 20 -58 l-15 -22 -71 48 c-40 27
-91 69 -114 94 -55 60 -55 45 -1 -25 64 -80 138 -138 217 -169 28 -11 38 -19
26 -19 -11 -1 -29 -3 -40 -5 -11 -2 -38 -6 -60 -9 -46 -7 -154 -37 -204 -57
-31 -13 -40 -12 -120 16 -79 27 -97 30 -216 29 -120 0 -137 -2 -218 -31 -49
-17 -125 -53 -169 -80 -89 -54 -216 -166 -266 -237 l-33 -46 53 4 c183 14 364
51 542 112 71 24 131 42 133 40 2 -1 -12 -23 -31 -47 -34 -44 -102 -159 -94
-159 3 0 22 26 44 57 43 63 138 146 214 187 28 15 91 40 141 56 l90 28 -38
-34 -38 -34 48 29 c85 52 242 79 430 75 128 -3 210 -24 320 -81 57 -30 98 -67
85 -78 -2 -1 -34 -5 -73 -8 -184 -16 -423 -87 -631 -186 -134 -65 -268 -140
-261 -148 10 -9 248 56 325 89 l80 35 -33 -46 c-32 -44 -69 -121 -62 -127 2
-2 39 26 83 62 43 35 111 91 151 124 128 104 256 151 397 145 59 -2 72 -6 87
-26 21 -28 149 -277 169 -329 8 -19 16 -39 18 -44 2 -4 -25 8 -60 28 -80 44
-90 45 -52 4 71 -79 80 -92 60 -84 -28 10 -165 44 -201 50 -168 29 -419 90
-439 108 -6 4 -15 8 -20 8 -41 0 157 -81 339 -139 490 -156 722 -495 640 -931
-11 -60 -54 -178 -91 -253 -155 -307 -410 -526 -746 -638 -103 -35 -289 -74
-393 -84 -38 -4 -81 -9 -95 -12 -41 -9 -796 -10 -930 0 -69 4 -136 8 -149 8
-14 -1 -35 6 -47 14 -29 19 -40 19 -25 2 8 -11 1 -14 -39 -16 -27 -1 -58 -4
-69 -6 -21 -4 -165 -12 -361 -20 -151 -7 -176 -10 -276 -34 -59 -14 -104 -18
-179 -15 -55 2 -161 6 -235 9 -74 3 -144 7 -155 9 -11 2 -49 7 -85 11 -67 8
-85 10 -132 21 -22 4 -27 2 -22 -10 3 -8 15 -21 27 -29 55 -35 100 -41 342
-43 291 -2 465 -15 465 -35 0 -5 -17 -9 -37 -10 -21 0 -56 -2 -78 -4 -22 -2
-139 -6 -260 -9 -121 -4 -233 -8 -250 -10 -16 -2 -61 -6 -100 -10 -70 -7 -239
-41 -279 -55 -11 -5 58 -7 154 -7 l175 2 -49 -76 c-28 -41 -82 -106 -120 -143
l-71 -68 82 40 c102 50 144 87 188 166 34 61 71 103 84 97 5 -3 76 4 141 15
59 9 241 15 276 8 l38 -7 -53 -18 c-115 -38 -260 -164 -307 -265 -33 -70 -32
-96 3 -53 106 131 245 221 454 293 87 30 328 87 337 80 3 -2 -59 -96 -85 -130
-9 -11 17 14 58 56 41 42 83 79 94 83 49 13 320 36 489 40 l98 2 -92 -43
c-111 -51 -242 -137 -296 -192 -84 -88 -227 -124 -379 -97 -241 43 -336 22
-490 -109 l-30 -26 50 20 c28 10 68 26 90 34 107 42 196 49 261 22 45 -18 114
-64 114 -75 0 -4 -15 -11 -33 -14 -38 -7 -114 -53 -122 -74 -16 -42 247 36
277 82 4 6 8 21 8 34 0 20 5 22 60 22 l59 0 -36 -62 c-65 -112 -114 -179 -125
-172 -7 4 -8 3 -4 -4 4 -6 -11 -29 -32 -52 -30 -30 -48 -40 -71 -40 -42 0 -35
2 -131 -33 -56 -20 -105 -30 -145 -31 l-60 -1 -9 41 c-19 92 -131 191 -240
214 -91 19 -99 20 -201 25 -55 3 -133 8 -172 10 -40 2 -82 9 -93 15 -11 6 -20
8 -20 6 0 -8 58 -37 94 -48 17 -5 69 -11 116 -13 130 -7 181 -14 235 -33 l50
-16 -72 -7 c-84 -8 -134 -33 -266 -131 -45 -33 -104 -72 -132 -85 l-50 -25 62
5 c50 4 80 14 148 51 94 51 170 75 216 68 54 -8 33 -50 -68 -133 -30 -26 -73
-85 -73 -102 0 -12 145 108 170 141 11 15 29 38 39 52 l19 25 56 -40 c160
-115 151 -111 221 -110 36 0 65 -2 65 -5 -1 -3 -39 -27 -85 -54 -221 -129
-317 -237 -410 -461 -48 -118 -64 -152 -93 -200 l-24 -40 35 40 c20 22 71 98
114 169 132 217 194 278 438 432 50 31 101 64 114 73 20 13 18 7 -12 -32 -39
-52 -64 -121 -70 -202 -3 -27 -6 -54 -7 -60 -2 -5 -1 -21 3 -35 3 -14 9 -53
12 -87 3 -35 8 -80 10 -100 3 -21 7 -64 9 -96 2 -32 7 -61 10 -64 7 -8 8 19
10 277 1 185 3 209 22 250 27 59 189 261 234 291 118 81 214 185 328 355 54
81 62 85 37 15 -8 -23 -14 -42 -13 -44 0 -1 -2 -24 -6 -52 -13 -100 -15 -122
-20 -260 -7 -163 -16 -306 -21 -332 -2 -10 -4 -21 -4 -25 -2 -18 -105 -24
-245 -16 -95 7 -136 -3 -174 -42 -25 -24 -72 -107 -72 -125 0 -3 23 13 51 35
88 70 122 70 275 6 33 -14 75 -27 92 -28 39 -3 39 -12 5 -85 -53 -114 -177
-273 -361 -463 -64 -67 -185 -218 -218 -275 -41 -67 -72 -150 -79 -205 l-6
-45 21 48 c39 92 114 188 290 372 37 39 83 88 101 110 38 45 86 99 147 165
l41 45 2 -35 c6 -106 2 -117 -100 -288 -66 -112 -99 -188 -107 -246 -4 -32 16
0 95 153 55 106 106 201 114 210 37 42 50 86 51 178 2 88 4 95 38 145 52 78
73 117 94 173 l18 49 12 -44 c15 -60 9 -160 -15 -245 -17 -57 -17 -66 -5 -50
37 46 64 133 68 215 2 41 -28 280 -39 315 -7 22 -16 67 -20 100 -4 32 -8 62
-10 65 -5 9 -17 164 -16 219 0 58 18 157 32 181 5 8 9 11 9 5 0 -5 3 -41 5
-80 2 -40 16 -106 33 -155 16 -47 27 -91 24 -99 -3 -8 0 -11 7 -7 6 4 9 17 6
29 -2 12 -7 38 -9 57 -3 19 -12 67 -19 105 -14 70 -14 98 -3 169 11 68 37 176
44 180 4 2 7 -35 8 -82 0 -70 7 -106 32 -184 58 -174 71 -254 67 -433 -2 -88
-6 -176 -9 -195 -5 -34 -5 -34 15 10 33 73 47 154 47 268 0 130 -17 216 -68
344 l-38 98 27 -19 c14 -10 33 -20 40 -23 11 -3 16 -23 17 -67 2 -53 11 -79
50 -158 27 -53 50 -91 52 -85 1 5 -13 39 -33 75 -19 35 -37 82 -39 103 -4 45
10 104 25 104 18 0 73 -31 103 -59 l30 -26 -30 40 c-17 22 -38 53 -48 69 -28
44 -81 92 -139 125 -54 31 -73 55 -81 103 -6 38 90 165 147 195 63 33 65 31
52 -34 -7 -32 -11 -74 -9 -93 1 -19 3 -50 3 -67 1 -44 16 -42 19 2 2 19 14 74
28 122 15 49 28 96 31 105 3 10 26 23 58 33 66 19 81 19 67 3 -10 -13 -31 -83
-38 -128 -2 -14 -6 -95 -9 -180 -15 -460 -14 -441 -35 -481 -7 -13 -8 -19 -2
-15 23 14 112 202 129 271 13 54 9 139 -8 211 -22 87 -20 187 2 210 12 11 14
8 16 -22 1 -19 14 -56 28 -80 29 -50 42 -54 24 -8 -17 45 4 242 28 264 10 10
73 24 73 16 0 -2 -6 -33 -14 -68 -17 -74 -26 -169 -15 -163 4 3 10 22 14 42
14 78 47 151 86 189 37 36 42 38 104 37 72 0 91 -8 60 -26 -27 -14 -85 -73
-121 -121 l-29 -40 50 36 c28 19 88 55 135 80 l85 45 50 -13 c28 -7 55 -13 60
-14 6 0 -15 -14 -45 -31 -54 -31 -158 -108 -213 -158 -92 -84 -173 -220 -196
-331 -23 -108 -101 -336 -132 -385 -17 -27 -92 -111 -167 -185 -136 -136 -189
-197 -180 -205 8 -9 148 95 203 151 70 70 138 167 171 240 40 92 42 97 55 139
6 22 16 45 21 50 6 6 7 5 4 -5 -2 -8 -7 -56 -10 -107 -12 -183 -28 -250 -84
-358 -41 -78 -204 -254 -238 -256 -10 -1 -48 -2 -84 -4 -83 -3 -103 -12 -168
-70 -79 -71 -82 -90 -7 -39 69 45 123 62 155 48 16 -8 1 -23 -102 -99 -257
-191 -365 -333 -473 -620 -43 -114 -100 -334 -108 -415 -3 -30 -4 -46 -1 -35
25 93 50 170 75 223 16 35 29 65 29 67 0 9 112 198 139 235 l28 39 12 -53 c14
-64 11 -84 -34 -222 -42 -127 -45 -157 -8 -89 14 28 37 67 50 87 12 21 23 42
23 48 0 5 4 10 8 10 21 0 20 -243 -2 -375 -10 -54 -15 -109 -21 -195 l-5 -85
14 60 c7 33 30 122 50 198 26 99 36 161 37 215 0 74 -16 205 -28 225 -6 10 -4
135 2 177 2 14 6 40 9 58 9 61 56 146 111 202 l55 55 0 -57 c0 -54 -10 -88
-57 -185 -26 -53 -9 -46 40 17 55 71 65 103 60 190 -3 61 -1 77 13 87 9 6 30
25 48 40 44 40 149 121 226 175 181 128 227 219 245 486 4 52 8 104 11 115 2
12 9 48 14 79 16 83 72 228 89 228 3 0 6 -46 6 -103 0 -94 10 -215 19 -224 2
-2 6 52 9 119 3 68 12 143 21 168 38 115 94 240 121 271 64 73 286 231 302
216 3 -4 1 -7 -5 -7 -15 0 -98 -112 -122 -166 -25 -54 -57 -175 -65 -244 -4
-30 -11 -56 -15 -58 -5 -2 -27 -17 -50 -33 -53 -39 -84 -105 -105 -228 -17
-105 -38 -158 -91 -239 -20 -29 -47 -81 -61 -115 -72 -179 -77 -206 -12 -70
23 49 63 117 89 153 59 80 74 110 91 180 16 68 14 59 24 95 8 32 89 160 107
171 11 7 6 -77 -12 -193 -11 -65 -52 -189 -77 -233 -8 -14 6 -2 31 25 73 79
133 217 151 347 3 18 7 105 10 193 l6 160 37 35 c20 20 59 66 86 103 27 37 51
65 53 63 2 -2 -1 -23 -6 -47 -12 -51 -14 -149 -3 -166 4 -6 7 8 8 31 2 74 71
201 174 319 19 22 31 27 66 25 l42 -1 -23 -53 c-13 -29 -53 -94 -89 -144 -61
-86 -86 -138 -86 -185 0 -13 7 -6 20 20 11 22 54 74 96 115 66 65 75 71 70 47
-2 -15 -3 -27 -1 -27 2 0 29 51 60 114 48 96 60 115 83 119 15 3 29 4 31 2 2
-2 -17 -51 -43 -108 -25 -57 -46 -107 -46 -112 0 -27 -66 -182 -84 -197 -12
-9 -65 -41 -120 -70 -136 -72 -196 -131 -196 -193 l0 -26 28 19 c51 35 52 35
46 0 -7 -38 -48 -114 -68 -125 -39 -22 -131 -113 -160 -158 -45 -69 -54 -98
-14 -51 46 56 69 78 147 141 83 67 97 87 115 165 8 34 19 67 25 74 12 14 129
51 137 43 10 -10 -108 -303 -134 -330 -30 -32 -135 -110 -317 -237 -144 -100
-221 -164 -305 -253 -39 -42 -71 -67 -84 -67 -39 0 -157 -39 -239 -79 -95 -46
-226 -121 -212 -121 42 0 235 79 295 120 28 19 58 29 110 36 33 5 29 -1 -100
-128 -81 -81 -177 -163 -240 -208 -137 -96 -206 -154 -237 -201 -27 -40 -47
-109 -32 -109 5 0 9 3 9 8 0 4 9 18 20 32 l20 25 -11 -33 c-8 -22 -9 -62 -4
-115 10 -110 7 -154 -14 -258 -10 -49 -15 -86 -11 -84 5 3 23 40 40 83 36 84
42 159 26 277 -8 57 -10 94 -7 141 2 41 167 192 389 358 109 81 111 78 22 -23
-84 -96 -137 -177 -159 -245 -24 -72 -26 -84 -47 -246 -9 -69 -26 -144 -45
-189 -13 -32 -15 -40 -4 -27 21 28 52 115 60 167 3 24 8 51 10 59 2 8 6 35 9
60 11 84 36 164 69 217 18 28 92 112 164 187 115 117 133 140 139 175 4 23 9
41 13 41 3 0 33 26 66 56 33 31 83 74 110 94 56 43 365 212 365 200 0 -17
-136 -189 -194 -246 -34 -33 -140 -126 -236 -206 -242 -201 -337 -304 -403
-433 -43 -86 -94 -269 -112 -405 -7 -48 -42 -117 -78 -151 -12 -11 -65 -46
-117 -77 -52 -30 -111 -74 -132 -96 -45 -49 -90 -132 -112 -205 -27 -93 -18
-97 26 -10 52 105 161 217 258 268 36 19 77 42 92 53 14 10 28 18 31 18 8 0
-32 -205 -58 -290 -14 -47 -27 -92 -29 -100 -3 -8 -25 -70 -51 -138 -26 -68
-45 -125 -43 -128 15 -14 122 178 158 285 23 69 74 270 86 336 5 33 19 97 59
269 19 82 73 216 117 288 37 61 100 147 108 148 4 0 1 -30 -5 -67 -24 -142 -3
-363 50 -532 32 -100 27 -135 -40 -281 -51 -113 -65 -160 -69 -241 -4 -69 4
-67 22 6 16 62 80 201 101 218 11 9 13 9 8 0 -4 -6 -10 -31 -13 -55 -2 -24 -7
-54 -10 -68 -3 -16 -2 -21 4 -15 5 6 21 56 35 113 15 57 29 108 33 113 8 14
22 -7 82 -125 l50 -98 -15 -51 c-8 -29 -46 -117 -83 -197 -37 -80 -76 -171
-85 -203 -20 -71 -21 -153 -2 -198 l15 -34 2 45 c1 25 3 56 6 70 2 14 6 36 8
50 11 74 55 200 111 319 63 133 64 133 73 100 20 -72 -2 -244 -44 -349 l-14
-35 20 25 c30 37 84 146 105 215 21 66 24 194 7 257 -11 43 -52 128 -122 253
-50 91 -90 197 -109 293 -12 56 -13 207 -2 257 5 26 8 22 19 -34 17 -82 45
-140 83 -177 l31 -29 -23 55 c-78 195 -101 378 -65 519 14 56 23 70 79 121
l62 58 18 -51 c19 -55 53 -184 61 -228 3 -22 -2 -29 -30 -43 -43 -20 -62 -61
-68 -147 l-5 -64 14 45 c21 65 34 86 62 99 13 6 27 11 30 11 6 0 -1 -99 -13
-175 -5 -34 -21 -89 -48 -170 -4 -11 12 16 35 60 103 197 108 262 34 495 -14
47 -29 108 -32 135 -3 28 -7 52 -9 54 -6 6 16 41 26 41 6 0 10 -7 10 -15 0 -8
28 -68 61 -133 34 -64 70 -134 81 -155 50 -100 26 29 -28 144 -24 52 -44 108
-44 124 0 58 32 145 68 183 43 46 133 167 155 207 24 44 21 30 -14 -65 -73
-197 -88 -259 -85 -355 2 -79 7 -101 39 -175 33 -75 37 -91 32 -140 -9 -79
-13 -87 -48 -111 -57 -39 -98 -83 -122 -129 -29 -58 -62 -163 -69 -220 l-6
-45 18 55 c29 89 83 180 140 240 63 65 62 52 -4 -83 -24 -48 -52 -120 -62
-160 -18 -64 -24 -94 -37 -187 -2 -14 -6 -65 -9 -115 l-6 -90 15 45 c15 44 20
66 30 125 24 142 61 224 143 323 63 76 93 131 106 195 l12 60 24 -57 c19 -49
22 -67 16 -127 -9 -105 -29 -142 -110 -211 -98 -85 -140 -154 -61 -102 24 15
25 15 25 -3 0 -11 -15 -64 -34 -119 -38 -112 -47 -169 -47 -299 1 -128 18
-195 71 -279 17 -26 30 -49 30 -52 0 -24 -112 -242 -182 -354 -65 -103 -64
-104 9 -15 83 101 158 207 185 262 28 58 31 57 67 -15 31 -62 35 -51 5 16 -37
82 -43 99 -38 105 7 7 11 36 18 122 9 112 15 154 27 200 12 47 49 113 77 138
19 17 19 16 25 -150 6 -179 10 -208 33 -292 l16 -54 21 39 c51 91 78 224 81
411 1 54 5 99 9 100 18 6 38 -13 58 -53 19 -40 21 -56 16 -147 -6 -113 5 -175
17 -97 4 25 10 59 13 75 6 36 6 142 -1 172 -7 32 -35 82 -77 139 -35 45 -39
58 -44 125 -13 181 -24 226 -132 519 -78 212 -105 321 -103 415 1 65 16 172
19 132 2 -34 44 -102 111 -182 37 -44 79 -100 93 -125 25 -44 71 -170 80 -220
12 -61 20 -106 23 -123 1 -9 6 -54 10 -100 3 -45 8 -84 10 -86 12 -13 6 333
-7 403 -14 76 -34 116 -108 209 -68 86 -137 202 -105 177 39 -30 67 -41 117
-46 l52 -5 -25 20 c-14 12 -42 35 -63 52 -57 47 -81 101 -81 184 0 75 8 125
26 159 27 53 142 224 148 221 4 -3 19 -38 33 -78 26 -71 26 -76 12 -128 -44
-159 -48 -190 -35 -243 7 -28 16 -55 20 -61 15 -22 35 -105 45 -186 3 -30 22
-109 41 -176 34 -121 35 -123 19 -175 -8 -28 -15 -72 -15 -96 0 -48 18 -122
30 -122 4 0 11 25 15 57 4 33 10 51 15 44 8 -14 5 -169 -4 -241 -7 -49 -14
-102 -21 -165 -4 -38 -3 -37 14 15 10 30 21 73 25 95 3 22 10 65 15 95 6 30 9
124 7 208 -2 147 -2 154 23 204 27 52 42 62 48 31 2 -10 5 -88 6 -173 3 -152
-3 -214 -39 -408 -17 -92 -18 -93 -67 -135 -62 -51 -87 -106 -94 -202 -6 -84
11 -138 22 -70 17 107 29 139 59 167 36 33 42 25 27 -40 -6 -26 -13 -62 -16
-81 -3 -19 -8 -37 -10 -41 -2 -3 -6 -19 -9 -34 -12 -65 -60 -214 -96 -297 -50
-118 -116 -227 -294 -488 -80 -118 -146 -217 -146 -220 1 -8 100 100 178 192
27 33 32 36 32 17 0 -27 25 -75 65 -125 41 -50 63 -93 70 -136 17 -99 47 -143
38 -57 -8 82 -23 140 -62 231 -22 51 -42 113 -46 140 -7 44 -5 50 32 100 21
28 59 82 82 119 24 38 47 68 50 68 4 0 7 -34 7 -76 0 -69 3 -79 25 -96 59 -48
69 -60 83 -109 9 -29 16 -70 16 -91 0 -21 4 -38 9 -38 13 0 13 167 0 208 -7
20 -30 63 -52 96 -38 54 -41 64 -40 125 0 60 5 76 56 176 64 127 86 179 137
329 l37 109 27 -36 28 -36 -15 -75 c-9 -41 -33 -115 -55 -163 -66 -148 -79
-199 -74 -297 2 -36 9 -31 17 14 3 18 22 74 41 124 38 97 113 301 121 326 3 9
11 -1 21 -27 24 -59 33 -63 26 -12 -9 73 -46 201 -73 254 -26 52 -34 118 -20
169 9 32 22 189 22 276 0 89 -13 272 -23 315 -15 64 -12 64 21 0 29 -54 99
-162 157 -241 l23 -30 -25 -86 c-29 -102 -29 -169 3 -272 29 -95 33 -119 33
-212 0 -94 -28 -208 -73 -299 -23 -47 -25 -54 -9 -35 25 29 76 135 97 200 24
75 25 194 2 290 -11 47 -23 115 -26 152 -5 60 -3 72 21 112 14 25 30 47 35 50
12 8 58 -92 74 -164 8 -36 18 -112 22 -170 3 -58 9 -134 12 -170 2 -36 5 -73
4 -82 0 -10 4 -18 8 -18 11 0 11 403 0 470 -5 30 -11 69 -13 85 -13 77 -71
199 -140 293 l-46 62 24 10 c92 34 136 17 180 -72 16 -33 26 -45 27 -32 6 106
-33 143 -176 169 -38 7 -87 19 -107 28 -82 34 -181 228 -222 434 -24 122 -26
134 -31 198 -11 131 -12 176 -6 168 4 -4 22 -54 40 -111 33 -103 33 -108 15
-202 -4 -16 1 -11 13 14 l18 39 28 -94 c34 -118 85 -276 86 -267 1 9 -56 258
-78 338 -15 55 -16 69 -5 95 25 58 17 121 -26 212 -22 47 -47 112 -56 145 -25
100 -12 334 23 393 11 19 13 17 28 -20 9 -22 34 -78 55 -125 42 -90 65 -177
74 -275 3 -33 6 -64 7 -70 1 -5 7 31 13 80 13 105 4 272 -17 330 -14 39 -19
67 -33 168 -3 23 -7 48 -10 56 -5 17 64 123 76 116 4 -2 10 -26 13 -52 4 -26
9 -59 12 -73 3 -14 8 -52 11 -85 4 -33 8 -67 10 -75 1 -8 3 -46 4 -85 l2 -70
15 50 c25 83 26 143 5 225 -11 41 -18 77 -17 78 2 2 17 -4 34 -14 42 -25 49
-11 15 32 -81 102 -82 115 -7 214 96 128 151 207 172 248 11 23 26 44 33 48
10 6 10 4 2 -7 -18 -22 -52 -136 -68 -224 -19 -102 -14 -384 9 -509 16 -88 16
-90 -6 -150 -13 -34 -43 -101 -67 -151 -25 -49 -55 -121 -68 -158 -21 -61 -29
-95 -48 -210 -7 -43 -19 -273 -13 -267 3 3 8 32 12 65 3 33 8 69 11 80 2 11 6
31 8 45 14 88 58 194 101 245 20 23 25 25 21 10 -6 -24 -9 -92 -6 -155 1 -36
5 -23 21 63 18 103 71 283 89 300 4 5 11 -6 15 -24 4 -18 29 -101 56 -183 l48
-151 -32 -50 c-17 -27 -34 -52 -37 -55 -3 -3 -28 -32 -56 -65 -96 -113 -129
-195 -138 -337 -2 -46 -2 -69 0 -53 24 144 78 277 136 331 l30 29 -7 -25 c-5
-14 -9 -69 -10 -123 -2 -91 1 -116 9 -71 33 187 34 189 99 253 l45 43 10 -63
c5 -35 8 -118 7 -184 -2 -106 -8 -141 -50 -300 -25 -99 -49 -191 -51 -205 -3
-14 -9 -41 -13 -60 -9 -41 -7 -196 3 -255 4 -22 14 -64 22 -93 29 -99 -8 -297
-82 -443 -54 -108 -138 -203 -280 -315 -145 -115 -205 -254 -198 -461 3 -102
3 -106 30 -217 17 -67 72 -221 73 -201 1 6 -5 44 -13 85 -36 191 -36 419 0
533 5 17 7 17 32 1 15 -10 33 -25 39 -33 25 -31 58 -162 64 -251 3 -48 15 41
18 133 3 108 -17 158 -78 198 l-40 26 29 40 c17 23 76 78 133 124 182 146 275
247 324 348 21 44 22 45 22 16 1 -71 -39 -189 -127 -375 -100 -212 -121 -281
-128 -415 l-4 -90 39 129 c39 125 50 159 77 221 50 117 84 186 144 295 82 147
99 193 104 271 4 64 -4 121 -35 245 -11 45 -22 92 -25 105 -8 37 -11 161 -4
188 5 21 7 22 18 8 7 -8 26 -41 42 -73 39 -80 37 -48 -9 131 -53 202 -51 233
32 505 16 52 12 61 61 -131 33 -129 79 -346 91 -434 4 -22 8 -51 11 -65 10
-60 19 -159 19 -210 -1 -46 -10 -73 -57 -170 -88 -178 -116 -278 -116 -412 0
-103 16 -153 18 -58 3 145 46 283 129 409 25 39 36 49 40 38 7 -19 5 -245 -2
-372 -10 -159 -19 -219 -36 -246 -9 -15 -60 -73 -115 -130 -54 -57 -119 -135
-143 -172 -67 -102 -113 -241 -138 -417 -4 -24 -9 -49 -12 -55 -4 -7 -3 -7 4
0 5 6 22 46 37 90 37 109 136 308 189 377 53 70 168 200 173 195 8 -8 -49
-271 -97 -449 -27 -102 -52 -195 -54 -206 -2 -11 -8 -37 -14 -57 -16 -58 3
-29 29 45 24 70 47 120 133 301 120 250 176 410 194 549 3 25 7 52 9 60 1 8 3
25 3 38 1 27 21 30 21 2 0 -11 3 -20 8 -20 8 0 7 86 -3 170 -3 30 -7 172 -9
315 -2 143 -7 270 -10 283 -3 13 -10 57 -16 98 -10 75 -33 192 -74 381 -23
101 -19 117 16 69 39 -54 61 -104 64 -151 2 -27 6 -61 8 -75 3 -14 8 -45 11
-70 3 -25 8 -53 11 -62 3 -10 7 -102 9 -205 2 -104 8 -199 13 -213 5 -14 25
-46 44 -70 98 -129 153 -287 158 -455 2 -46 4 -54 10 -35 15 46 10 164 -10
250 -28 117 -24 108 -98 258 -59 122 -59 122 -47 257 5 50 8 121 7 159 -2 62
-7 92 -29 171 -5 19 -4 19 12 3 10 -9 32 -58 50 -109 18 -51 37 -95 42 -96 6
-2 9 36 7 104 -5 164 -29 246 -99 338 -36 47 -46 74 -61 175 -3 19 -18 85 -34
145 -43 164 -42 160 -46 300 -3 134 3 198 16 190 4 -2 10 -22 14 -42 11 -67
16 -95 47 -243 17 -80 32 -156 35 -170 17 -93 22 -70 18 80 -4 198 -9 255 -35
425 -37 236 -28 370 37 577 14 45 32 109 40 142 13 60 13 60 9 -69 -2 -71 -7
-195 -11 -275 -8 -178 3 -254 59 -420 l42 -126 -12 -79 c-7 -44 -23 -127 -34
-185 -16 -79 -20 -126 -16 -190 6 -87 36 -274 44 -267 2 3 6 76 9 163 2 88 6
168 8 179 3 11 5 33 5 49 1 46 9 26 22 -54 6 -41 26 -124 44 -185 65 -216 65
-254 5 -474 -19 -69 -37 -184 -24 -151 21 53 68 140 75 140 25 0 13 -164 -21
-310 -35 -150 -43 -242 -25 -315 13 -57 26 -84 114 -243 96 -173 183 -388 212
-524 16 -71 29 -58 24 22 -7 115 -37 207 -128 400 -88 187 -128 306 -126 374
l1 31 15 -35 c40 -93 152 -217 313 -345 92 -74 123 -103 157 -149 l23 -30 -40
-23 c-75 -45 -94 -122 -75 -293 8 -73 15 -90 15 -39 2 116 32 213 82 263 48
48 50 45 68 -66 12 -71 9 -314 -3 -373 -17 -79 -29 -157 -25 -161 9 -9 77 210
92 295 17 101 13 241 -9 319 -37 126 -78 180 -246 322 -151 128 -259 301 -285
456 -2 16 -6 38 -9 49 -15 67 -15 145 0 200 29 110 37 233 23 340 -4 28 -31
147 -62 265 l-55 215 4 135 c2 74 6 144 9 155 2 11 5 27 5 35 1 17 86 -63 106
-100 7 -14 16 -41 19 -60 14 -82 19 -116 20 -132 0 -9 3 -15 7 -12 8 5 3 186
-7 217 -6 20 -3 19 25 -8 47 -44 98 -156 120 -265 l20 -95 -5 75 c-11 163 -48
249 -157 365 -15 17 -49 61 -74 98 l-46 69 3 81 c1 45 2 94 2 110 -3 100 -2
145 3 167 3 14 6 81 6 150 0 132 7 139 34 37 8 -28 32 -90 55 -137 68 -137
105 -266 134 -455 2 -16 3 20 2 81 -1 119 1 121 46 49 48 -79 78 -187 94 -343
11 -110 16 -86 9 43 -13 251 -40 369 -121 528 -41 80 -95 217 -126 315 -21 69
-21 78 13 246 20 99 74 315 81 322 9 9 158 -205 158 -227 0 -25 -16 -53 -64
-113 -34 -43 -30 -54 13 -32 16 9 32 16 35 16 2 0 -4 -33 -15 -72 -24 -92 -24
-137 0 -218 l19 -65 2 75 c1 41 3 82 4 90 2 8 6 40 10 70 13 109 30 210 35
210 10 -1 76 -93 75 -104 -3 -57 -19 -155 -36 -216 -11 -41 -22 -84 -25 -95
-5 -25 -5 -223 1 -250 2 -11 5 -40 5 -64 1 -59 7 -49 15 24 5 49 16 122 21
145 13 57 24 86 59 163 24 51 48 105 55 122 l13 30 13 -25 c23 -44 38 -176 32
-278 -6 -102 -22 -158 -77 -274 -34 -73 -39 -119 -19 -188 7 -25 11 -49 10
-55 -2 -5 -18 -71 -37 -145 -54 -213 -49 -242 8 -51 51 171 52 174 65 143 7
-18 15 -32 16 -32 2 0 -1 24 -6 53 -9 47 -6 64 23 160 19 60 37 102 41 96 4
-6 5 -23 4 -38 -2 -14 -6 -61 -10 -103 -3 -43 -7 -83 -10 -90 -2 -7 -6 -31 -9
-53 -19 -148 -104 -371 -174 -455 -31 -36 -92 -64 -167 -75 -127 -18 -169 -53
-179 -150 -3 -33 -2 -37 8 -21 53 87 69 108 88 115 27 10 73 7 110 -8 l28 -10
-53 -73 c-126 -177 -155 -292 -154 -621 0 -125 2 -226 4 -223 7 7 13 51 18
136 9 141 15 223 21 265 7 53 41 153 64 189 l18 29 27 -41 c40 -60 42 -110 10
-258 -30 -141 -30 -221 1 -324 19 -66 64 -155 93 -190 l22 -25 -21 39 c-82
151 -105 352 -60 500 32 103 33 106 33 176 0 40 -9 97 -23 143 l-23 77 20 23
c35 38 115 157 150 221 l34 61 -6 -60 c-23 -232 -22 -418 2 -570 12 -76 8
-119 -19 -172 -33 -64 -65 -179 -72 -253 l-5 -55 15 35 c8 19 18 44 23 55 6
16 12 6 31 -50 13 -38 41 -112 62 -164 34 -83 89 -231 88 -238 -2 -27 4 -29 9
-3 11 62 -7 145 -58 261 -50 115 -65 163 -76 232 -5 32 -2 44 21 74 l27 36 42
-124 c46 -139 88 -236 148 -348 34 -64 41 -86 41 -137 1 -53 -4 -68 -33 -115
-70 -110 -71 -114 -70 -237 1 -142 6 -142 24 2 8 65 36 116 79 145 20 13 37
31 37 40 1 9 3 41 4 71 1 30 3 59 3 65 1 5 18 -15 38 -45 20 -30 59 -85 85
-121 43 -58 48 -70 44 -107 -2 -23 -22 -86 -44 -140 -48 -121 -60 -165 -65
-238 -3 -50 -2 -55 10 -40 7 10 18 44 25 75 14 68 29 99 86 173 24 31 46 71
49 87 4 17 9 31 13 30 3 0 38 -38 76 -85 70 -84 136 -153 120 -124 -5 8 -60
91 -124 184 -288 422 -355 559 -421 871 -11 55 -25 115 -30 133 -10 38 -2 40
34 7 30 -27 42 -54 50 -111 19 -125 37 -129 32 -6 -4 110 -23 153 -91 217 -30
27 -56 61 -58 75 -3 14 -11 54 -17 90 -29 153 -35 214 -34 381 1 146 8 204 22
195 4 -2 18 -26 31 -52 22 -44 24 -60 26 -233 1 -102 5 -197 8 -211 4 -14 12
-51 17 -82 6 -31 17 -74 25 -95 l15 -38 -4 35 c-3 19 -8 62 -11 95 -4 33 -9
68 -11 78 -11 35 -13 227 -4 227 6 0 11 -7 11 -15 1 -8 3 -19 4 -25 1 -5 3
-19 4 -30 2 -32 17 -23 29 19 16 53 15 114 -4 181 -16 56 -15 58 15 156 17 54
33 117 36 139 4 22 8 54 11 70 9 61 17 92 46 178 31 94 32 136 4 219 -37 107
-37 128 -8 210 15 43 29 78 32 78 5 0 131 -191 148 -226 32 -62 37 -196 10
-256 -20 -45 -110 -138 -134 -138 -28 0 -21 -16 8 -18 38 -3 94 14 131 41 l29
20 -22 -42 c-11 -23 -56 -88 -98 -144 -87 -114 -108 -159 -117 -244 -7 -60 -9
-218 -5 -313 l3 -55 7 60 c4 33 10 87 14 119 24 205 94 367 217 496 18 19 47
63 65 98 l31 62 7 -37 c21 -129 -2 -253 -90 -493 -88 -238 -91 -247 -108 -315
-19 -78 -25 -122 -31 -218 -5 -76 -7 -82 -54 -145 -70 -93 -83 -149 -68 -297
10 -92 12 -103 20 -111 9 -9 11 18 8 143 -2 78 1 110 14 137 16 33 64 76 66
59 1 -5 2 -53 4 -108 4 -127 10 -186 29 -269 16 -69 60 -166 75 -166 20 0 48
202 50 370 1 68 4 126 5 128 2 1 18 -15 35 -37 41 -52 68 -127 76 -216 9 -99
13 -132 20 -196 6 -46 3 -63 -15 -98 -27 -54 -20 -65 10 -15 l22 38 17 -40
c24 -53 64 -114 136 -208 53 -69 138 -168 109 -126 -38 54 -106 175 -159 280
-72 145 -71 140 -37 196 53 87 73 163 72 282 0 138 -6 178 -51 314 -38 116
-38 123 2 103 17 -9 33 -15 35 -13 8 8 -43 65 -100 113 -77 64 -104 117 -112
216 -5 65 -3 83 17 129 l23 53 11 -54 c14 -70 33 -105 115 -214 89 -118 111
-165 127 -270 7 -51 31 -149 42 -175 8 -19 9 -9 5 45 -16 228 -38 321 -115
487 -28 60 -49 111 -46 114 2 3 26 -19 53 -49 53 -58 96 -129 125 -210 14 -39
18 -46 19 -26 0 56 -63 222 -102 269 -7 8 -39 34 -70 58 -45 33 -58 49 -59 70
-1 15 -3 49 -5 76 -2 38 4 62 25 105 42 83 55 151 47 242 -4 44 -11 89 -16
102 -16 39 -100 277 -100 284 0 4 16 -19 35 -52 19 -32 67 -95 106 -141 38
-45 72 -93 76 -106 30 -123 29 -128 -20 -234 -44 -96 -70 -193 -48 -179 6 3
11 10 11 15 0 4 31 65 70 136 38 70 72 140 75 156 12 54 30 24 29 -48 -1 -49
-12 -101 -37 -179 -44 -137 -53 -207 -37 -277 12 -52 99 -252 107 -244 2 2 -1
16 -8 32 -33 87 -62 304 -40 304 25 0 67 -52 82 -102 l17 -53 -5 65 c-6 81
-29 130 -69 150 -27 13 -30 19 -27 50 4 28 70 260 76 267 1 1 30 -25 64 -57
80 -76 88 -103 87 -285 -1 -146 -12 -201 -74 -355 l-22 -55 27 25 c38 35 71
105 86 180 18 91 27 50 24 -110 -2 -109 -6 -137 -33 -217 -33 -97 -65 -165
-131 -278 -87 -148 -107 -260 -71 -401 18 -68 108 -260 117 -250 3 2 -2 24
-10 48 -44 130 -57 274 -31 341 9 23 115 -200 150 -315 25 -84 28 -99 41 -218
6 -64 7 -64 19 -35 20 46 17 143 -7 216 -11 35 -45 115 -75 177 -64 131 -72
151 -89 215 l-13 47 57 111 c31 61 61 111 67 111 8 0 26 -49 39 -107 2 -11 11
-45 19 -75 l14 -55 1 40 c1 22 -3 55 -8 73 -5 17 -6 32 -1 32 12 0 86 -157
105 -222 9 -32 18 -58 21 -58 6 0 -6 121 -18 165 -5 22 -29 81 -53 132 -62
131 -74 199 -48 261 51 123 81 386 61 535 -4 33 -7 65 -5 71 6 17 94 -107 135
-190 53 -105 110 -301 146 -499 13 -71 18 -91 46 -198 44 -172 99 -298 172
-397 35 -48 38 -35 8 39 -83 204 -141 403 -164 570 l-5 33 22 -19 c12 -10 47
-32 77 -48 132 -68 227 -163 291 -289 42 -85 50 -75 19 25 -42 134 -112 219
-241 291 -130 73 -183 137 -195 239 -11 87 -59 269 -94 352 -61 148 -153 252
-410 465 -160 133 -263 229 -331 307 -68 78 -140 199 -93 156 5 -4 45 -28 89
-51 44 -23 109 -58 145 -77 75 -41 140 -89 225 -167 33 -30 63 -56 68 -56 4 0
7 -12 7 -28 0 -38 17 -60 146 -192 127 -130 155 -162 176 -205 21 -39 45 -133
58 -220 6 -38 13 -86 16 -105 8 -57 36 -127 61 -157 22 -25 23 -26 9 -3 -22
36 -44 103 -51 152 -3 24 -8 54 -10 68 -2 14 -7 50 -10 80 -20 174 -69 274
-209 425 -30 33 -56 64 -56 68 -1 22 312 -227 408 -325 61 -61 72 -78 73 -108
1 -48 -2 -109 -7 -134 -22 -109 -11 -191 38 -296 17 -39 33 -69 34 -67 3 3
-12 74 -22 107 -5 14 -8 97 -9 185 0 88 -4 171 -9 185 -8 23 -7 23 14 -5 37
-48 40 -50 34 -22 -17 99 -85 170 -298 312 -33 22 -125 104 -205 183 l-146
143 48 -6 c27 -3 65 -16 85 -29 84 -53 178 -92 292 -121 29 -7 -13 18 -141 87
-109 58 -201 94 -265 103 -47 6 -56 12 -135 92 -82 84 -216 189 -419 328 -56
39 -127 93 -156 120 -52 47 -58 58 -110 198 -31 82 -54 151 -52 153 6 5 121
-27 135 -37 6 -6 19 -42 29 -82 16 -66 22 -76 73 -122 30 -27 93 -87 138 -133
l84 -83 -25 48 c-23 46 -72 100 -184 205 -40 37 -52 57 -60 95 -6 26 -9 49 -8
50 1 2 18 -9 37 -23 33 -24 34 -24 37 -5 5 31 -27 88 -67 120 -20 16 -77 51
-127 78 -141 77 -137 73 -184 208 -23 66 -59 155 -79 197 -36 76 -36 77 -14
81 12 2 26 1 31 -2 6 -3 36 -57 67 -118 31 -62 58 -113 60 -113 2 0 2 14 0 30
l-4 30 27 -32 c15 -18 45 -48 66 -68 22 -19 52 -55 68 -79 15 -25 28 -38 28
-30 0 38 -35 111 -84 175 -51 67 -86 125 -106 178 -8 22 -6 24 34 24 40 1 47
-3 82 -46 90 -108 149 -211 156 -274 2 -15 7 -31 12 -35 12 -12 5 117 -10 165
-6 23 -11 42 -9 42 1 0 28 -35 60 -77 32 -43 73 -91 91 -108 l33 -30 5 -155
c3 -85 8 -177 11 -204 14 -121 72 -254 150 -341 l45 -50 -34 75 c-38 82 -61
181 -72 305 l-6 80 30 -35 c48 -55 81 -121 103 -211 24 -95 36 -121 96 -206
24 -34 66 -107 94 -162 27 -56 51 -101 53 -101 2 0 -16 48 -41 108 -24 59 -47
114 -50 122 -4 8 -22 39 -41 68 -38 58 -81 156 -82 185 0 40 -33 174 -51 209
-16 32 -78 89 -109 100 -5 2 -13 38 -19 81 -20 147 -77 277 -159 364 -17 18
-28 33 -24 33 24 0 230 -149 293 -212 35 -35 126 -265 148 -375 1 -2 1 -46 1
-100 0 -53 2 -94 5 -91 10 9 20 137 20 240 0 53 3 94 7 92 22 -14 82 -182 94
-261 3 -26 8 -55 9 -64 2 -9 6 -61 10 -115 17 -258 64 -344 265 -486 47 -34
123 -92 170 -131 47 -39 87 -72 90 -75 3 -2 5 -43 6 -90 1 -90 11 -123 54
-172 12 -14 33 -38 46 -55 l24 -30 -15 39 c-9 21 -20 46 -25 55 -26 45 -40 99
-40 149 l0 56 49 -48 c60 -59 95 -121 114 -203 17 -76 21 -203 8 -263 -37
-166 -32 -252 24 -460 19 -69 37 -143 41 -165 3 -22 8 -42 10 -45 5 -4 -4 156
-10 188 -2 9 -7 40 -10 67 -3 28 -9 68 -12 90 -8 64 -11 237 -5 275 l6 35 37
-61 c21 -33 49 -85 63 -115 13 -30 25 -51 25 -47 0 15 -30 116 -55 188 -30 81
-38 190 -18 224 10 18 16 11 66 -65 91 -140 151 -269 193 -414 30 -105 30 -87
-1 66 -66 332 -193 604 -359 772 -45 45 -136 122 -203 172 -120 88 -132 104
-74 105 34 0 107 -36 161 -79 51 -40 38 -19 -30 50 -71 72 -88 80 -184 84 -92
4 -97 6 -172 74 -148 137 -215 288 -229 521 -4 52 -8 101 -10 108 -3 6 -1 12
3 12 5 0 19 -30 32 -67 66 -192 174 -336 339 -451 132 -93 108 -55 -102 158
-93 95 -163 175 -180 207 -29 54 -89 236 -112 338 -31 140 -78 226 -179 329
-68 69 -142 127 -229 180 l-59 35 44 11 c23 6 49 13 56 15 16 6 164 -72 237
-123 28 -20 45 -29 39 -21 -56 73 -81 101 -120 130 -43 32 -44 34 -22 40 13 3
48 5 78 4 51 -2 57 -5 95 -48 31 -33 47 -64 63 -119 12 -40 22 -78 22 -85 0
-6 4 -15 10 -18 5 -3 8 0 6 7 -3 7 -7 43 -10 81 -4 37 -13 86 -20 108 l-14 41
36 -7 c21 -4 41 -10 45 -15 24 -22 44 -222 27 -266 -5 -13 -6 -24 -2 -24 14 0
51 75 54 108 3 41 13 41 27 1 15 -45 14 -72 -10 -189 -23 -111 -21 -164 6
-245 19 -57 91 -205 107 -220 7 -7 9 -6 5 1 -18 31 -25 127 -28 379 -3 206
-19 346 -44 396 l-17 32 29 -7 c107 -26 97 -17 128 -117 15 -50 30 -111 33
-135 2 -24 9 -44 13 -44 17 0 15 180 -2 212 -16 30 -6 32 49 8 48 -21 64 -37
128 -132 28 -40 31 -52 24 -82 -9 -43 -18 -52 -95 -98 -64 -39 -76 -51 -128
-126 -49 -70 -54 -80 -31 -61 22 19 79 49 92 49 13 0 26 -57 24 -104 -1 -22
-17 -66 -37 -104 -20 -36 -34 -67 -31 -69 6 -7 76 124 90 170 7 23 11 60 9 82
-3 38 0 42 41 67 l44 26 -24 -55 c-97 -218 -111 -494 -35 -658 l19 -40 -7 55
c-8 76 -7 335 2 392 4 26 19 85 32 130 57 188 68 240 62 302 -4 47 -3 56 5 42
30 -53 60 -271 45 -326 -23 -89 -37 -190 -26 -190 5 0 9 7 9 15 0 8 12 49 26
91 19 55 27 98 28 154 0 44 4 76 8 72 4 -4 14 -34 23 -67 21 -81 21 -222 0
-320 -2 -11 -7 -47 -10 -80 -4 -33 -13 -83 -21 -111 -8 -28 -17 -77 -19 -110
-3 -32 -8 -77 -11 -99 -17 -109 -7 -191 33 -270 35 -72 46 -77 27 -15 -9 30
-20 70 -25 89 -9 41 -4 157 9 191 l9 25 7 -25 c14 -48 49 -116 94 -184 44 -67
45 -70 47 -155 2 -104 6 -116 60 -200 24 -36 78 -137 120 -224 43 -87 80 -155
83 -153 2 3 -1 29 -8 58 -13 55 -60 151 -149 302 -52 89 -58 111 -52 206 l2
35 37 -41 c20 -23 70 -79 111 -125 41 -46 124 -137 184 -201 163 -173 257
-307 257 -363 0 -8 4 -16 9 -19 5 -3 4 15 0 42 -31 164 -103 276 -345 538
-180 194 -249 284 -309 401 -36 71 -44 105 -22 102 17 -3 90 12 102 21 6 4 41
19 78 34 85 34 141 25 202 -31 11 -10 28 -24 38 -32 16 -13 17 -12 7 15 -23
60 -55 106 -90 127 -36 22 -90 25 -233 14 -69 -6 -155 11 -161 31 -6 19 -13
140 -21 347 -3 77 -8 153 -10 170 -2 16 -7 50 -9 75 -3 25 -12 70 -20 100 -8
30 -13 56 -11 58 1 2 38 -48 80 -110 83 -121 199 -243 283 -298 29 -18 52 -36
52 -40 0 -3 32 -44 71 -90 144 -170 150 -188 146 -455 -2 -104 0 -203 4 -220
l7 -30 2 33 c1 17 3 40 4 50 2 9 6 53 11 97 5 44 10 83 11 88 1 4 2 30 3 58 1
35 4 48 13 43 8 -5 9 -2 4 12 -4 10 -11 51 -16 91 -11 81 -29 131 -66 180 -14
18 -23 33 -20 33 7 0 196 -121 282 -182 116 -81 156 -129 305 -371 30 -49 69
-105 87 -125 29 -32 31 -33 14 -7 -22 34 -47 88 -111 239 -51 119 -91 184
-157 253 -53 55 -171 142 -260 193 -30 18 -54 33 -52 35 2 2 30 6 63 10 70 8
79 12 170 80 95 71 100 72 129 27 23 -38 84 -95 179 -171 37 -29 -5 49 -46 87
-114 103 -133 138 -79 144 48 6 105 -12 206 -63 78 -40 112 -52 160 -56 l61
-5 -50 25 c-27 14 -95 57 -150 97 -122 89 -172 113 -250 120 l-60 6 38 16 c36
17 76 22 256 33 78 5 171 33 171 51 0 3 -7 3 -17 0 -16 -7 -59 -10 -243 -21
-151 -9 -219 -22 -286 -55 -87 -43 -164 -137 -164 -200 0 -19 -27 -30 -72 -30
-14 0 -66 14 -115 30 -48 17 -108 33 -132 36 -45 5 -107 42 -118 70 -3 8 -18
28 -35 46 -16 17 -47 63 -70 102 -23 39 -48 81 -56 94 -14 22 -14 22 47 22
l61 0 0 -30 c0 -26 7 -33 60 -60 64 -33 157 -60 202 -60 26 0 27 2 16 20 -16
25 -103 70 -136 70 -32 0 -20 15 42 55 104 66 176 65 359 -7 43 -17 80 -29 82
-26 7 6 -115 94 -150 109 -17 6 -39 16 -51 21 -36 16 -148 16 -260 -1 -208
-32 -313 -10 -413 85 -65 64 -193 147 -302 198 l-93 43 80 -2 c123 -4 315 -15
359 -21 56 -7 117 -13 137 -13 18 -1 85 -64 146 -136 17 -21 32 -33 32 -27 0
6 -4 13 -9 17 -14 8 -89 123 -85 128 6 6 115 -17 219 -44 263 -70 431 -166
564 -323 l33 -39 -7 34 c-25 116 -179 267 -325 318 l-54 19 37 7 c37 7 211 1
277 -9 19 -3 57 -8 84 -12 79 -9 92 -19 135 -92 22 -38 56 -83 76 -101 35 -31
173 -106 181 -98 2 2 -20 24 -50 50 -43 37 -166 199 -166 218 0 3 77 5 171 4
151 -2 167 -1 133 10 -52 17 -195 44 -269 51 -33 3 -71 7 -85 10 -14 2 -117 6
-230 9 -113 3 -245 8 -295 11 -49 4 -99 6 -110 6 -35 -1 5 15 55 22 105 14
179 18 420 20 253 2 255 3 306 29 60 30 81 62 36 53 -121 -24 -233 -36 -385
-42 -62 -2 -159 -6 -217 -8 -79 -3 -123 1 -180 14 -96 24 -133 29 -288 35
-184 7 -336 16 -343 21 -3 2 -34 4 -67 5 -34 1 -62 4 -62 7 0 3 8 11 18 19 9
8 -1 5 -22 -7 -36 -19 -59 -22 -275 -27 -783 -20 -1066 2 -1370 109 -243 85
-445 232 -595 433 -215 288 -288 593 -205 860 46 149 103 216 279 331 162 105
346 111 535 17 46 -22 82 -48 254 -181 31 -24 64 -48 74 -53 17 -10 17 -8 2
27 -8 20 -31 59 -50 86 -30 41 -32 46 -12 34 42 -28 230 -85 328 -100 20 -3
44 -8 55 -12 80 -26 -212 122 -344 175 -211 84 -455 140 -630 144 -29 0 -52 4
-52 8 0 10 91 47 250 101 128 43 270 101 270 111 0 2 -37 -9 -82 -24 -68 -23
-277 -70 -413 -94 -16 -2 -61 -14 -100 -25 -38 -11 -71 -20 -73 -20 -1 0 20
27 48 61 49 59 63 81 38 62 -7 -5 -39 -24 -71 -42 l-57 -33 20 53 c12 29 47
104 78 167 55 110 58 114 114 144 65 34 164 126 192 178 18 34 18 34 -25 -11
-45 -46 -167 -134 -175 -126 -7 6 85 142 156 232 80 100 222 242 325 324 44
36 84 68 88 71 18 15 -21 16 -88 3 -99 -20 -191 -72 -274 -154 -63 -62 -92
-85 -77 -60 3 4 8 53 11 107 4 55 8 127 10 160 2 34 6 77 9 95 3 19 8 45 10
59 3 21 23 82 50 155 5 11 -4 0 -19 -25 -39 -63 -84 -190 -91 -256 -7 -54 -8
-55 -21 -33 l-13 24 5 -25 c10 -57 15 -299 6 -323 -11 -27 -191 -270 -197
-265 -2 2 15 53 36 113 22 60 38 110 36 113 -3 2 -25 -23 -50 -55 -52 -64
-127 -212 -177 -345 -32 -88 -48 -112 -29 -47 6 19 12 45 15 59 3 14 23 111
45 215 55 254 68 334 75 456 8 136 14 213 21 274 4 28 4 48 1 45 -3 -3 -10
-39 -16 -80 -19 -137 -22 -155 -42 -220 -21 -69 -47 -123 -50 -102 -1 6 -2 15
-3 20 -1 4 -5 24 -10 46 -4 21 -9 36 -11 35 -4 -5 -42 -191 -49 -244 -8 -58
-18 -117 -22 -140 -3 -11 -7 -36 -10 -55 -20 -130 -99 -354 -115 -329 -4 7 -6
16 -4 19 1 3 6 59 9 125 4 66 9 134 11 150 2 17 9 73 15 125 6 52 13 106 15
119 2 12 7 60 11 105 3 44 8 84 10 88 7 11 6 376 -1 568 -10 266 23 453 93
533 17 19 3 24 -17 5 -10 -11 -11 -7 -6 17 13 60 65 151 117 204 53 55 189
151 214 151 7 0 16 5 19 11 9 14 -88 10 -143 -6z m-1313 -1295 c1 -33 4 -69 6
-80 6 -30 19 -179 19 -220 0 -19 -10 -80 -22 -135 -13 -55 -25 -111 -28 -124
-10 -47 -16 -10 -20 126 -5 160 -13 241 -22 247 -4 2 -7 -28 -7 -67 0 -40 -3
-92 -6 -117 -4 -25 -10 -68 -13 -95 -10 -76 -12 -84 -17 -89 -3 -3 -6 32 -8
77 -2 45 -4 100 -5 122 -3 64 12 226 25 275 23 84 75 172 89 150 4 -6 8 -38 9
-70z m383 -3916 c2 -120 -6 -246 -17 -264 -1 -3 -6 -36 -9 -75 -10 -95 -13
-115 -31 -166 -33 -91 -44 -173 -41 -294 3 -101 10 -150 49 -310 25 -104 48
-205 52 -224 l7 -34 -38 36 c-22 19 -55 50 -75 69 -39 35 -50 74 -65 228 -3
36 -8 68 -10 71 -6 11 -18 288 -18 424 1 152 11 321 25 420 5 39 12 88 16 110
3 22 7 42 9 44 1 2 10 -14 18 -34 16 -37 22 -119 12 -161 -2 -12 -7 -45 -11
-75 -4 -30 -9 -57 -12 -61 -2 -5 0 -8 4 -8 5 0 15 34 22 75 7 41 15 77 19 79
4 2 5 -26 4 -62 -2 -37 -1 -65 1 -62 6 6 10 22 32 150 9 47 17 95 19 105 2 11
9 53 16 93 7 39 15 71 16 69 2 -2 5 -66 6 -143z m-1126 -592 c24 -65 34 -107
32 -135 -3 -40 -5 -36 -46 74 -42 115 -47 136 -43 194 l3 30 10 -35 c5 -19 25
-77 44 -128z m2248 104 c-1 -24 -19 -88 -39 -142 -52 -144 -56 -149 -51 -79 2
35 16 91 34 135 17 41 34 87 37 103 11 42 22 32 19 -17z m-2397 -436 c13 -36
42 -132 63 -215 l39 -150 -36 -67 c-35 -67 -53 -84 -53 -51 0 9 -23 86 -51
171 -31 95 -53 181 -56 223 -5 60 10 210 24 232 6 10 31 -42 70 -143z m2576
-35 c1 -118 0 -122 -51 -275 -29 -85 -52 -163 -52 -172 0 -33 -17 -18 -51 45
-37 68 -36 64 -25 122 25 125 72 278 132 424 l18 44 15 -34 c10 -23 14 -72 14
-154z m-4537 -423 c-5 -8 -19 -118 -19 -149 0 -7 -4 -13 -9 -13 -4 0 -8 6 -8
13 -1 6 -5 31 -9 55 -8 38 -6 47 16 73 23 27 41 40 29 21z m6452 -94 c-5 -24
-11 -51 -14 -62 -5 -26 -13 -32 -12 -10 2 29 -12 156 -18 168 -3 6 8 -3 24
-21 28 -29 30 -34 20 -75z m-4872 -485 c3 -33 7 -113 8 -176 l3 -116 -29 -12
c-40 -17 -94 -82 -107 -132 -18 -64 -21 -84 -26 -187 -7 -132 -16 -209 -25
-215 -10 -6 -47 96 -55 151 -19 125 -1 360 37 482 17 57 30 75 93 139 47 46
76 84 80 104 9 41 14 33 21 -38z m3337 -53 c63 -59 100 -121 117 -194 21 -96
31 -195 31 -311 0 -113 -23 -233 -51 -267 l-19 -23 -1 25 c-1 14 -3 32 -5 40
-1 9 -5 69 -9 135 -3 66 -8 129 -10 140 -21 103 -50 155 -112 197 l-40 27 3
128 c2 70 5 139 7 153 2 14 4 36 6 50 2 22 3 21 13 -10 7 -21 35 -57 70 -90z"/>
<path d="M3690 9037 c-89 -35 -95 -39 -75 -53 45 -33 172 -75 281 -94 64 -11
120 -17 125 -15 11 8 -18 61 -53 95 -51 52 -105 74 -183 75 -39 1 -81 -2 -95
-8z"/>
<path d="M6214 8997 c-92 -63 -134 -140 -134 -242 0 -48 30 -135 47 -135 12 0
110 206 127 269 22 74 30 141 18 141 -5 0 -32 -15 -58 -33z"/>
<path d="M2132 8937 l-54 -9 7 -36 c11 -59 72 -202 112 -262 76 -115 174 -181
325 -219 98 -25 198 -34 199 -18 14 136 -41 311 -129 409 -101 112 -280 165
-460 135z"/>
<path d="M7708 8945 c-2 -2 -21 -5 -43 -9 -230 -33 -380 -225 -388 -496 -2
-65 -3 -65 125 -44 209 34 327 108 418 264 43 75 104 235 97 255 -3 7 -25 16
-49 20 -43 8 -155 14 -160 10z"/>
<path d="M3650 8780 c0 -12 42 -63 85 -102 55 -51 119 -80 260 -118 66 -17
130 -36 143 -41 31 -12 29 8 -6 57 -36 50 -92 98 -141 124 -62 31 -341 97
-341 80z"/>
<path d="M5948 8627 c-47 -81 -84 -187 -96 -276 -10 -70 -9 -328 1 -338 11
-10 25 8 60 79 40 81 73 192 83 283 10 82 7 296 -3 306 -5 5 -25 -18 -45 -54z"/>
<path d="M1887 8565 c-26 -6 -51 -13 -55 -14 -28 -5 -85 -28 -127 -49 l-50
-25 50 -13 c55 -15 131 -23 245 -29 41 -2 113 -11 160 -20 47 -9 103 -19 125
-22 l40 -6 -25 29 c-55 64 -98 98 -156 126 -70 33 -140 41 -207 23z"/>
<path d="M7965 8566 c-85 -26 -152 -71 -205 -137 l-33 -42 39 6 c21 3 77 13
124 22 47 10 123 19 170 20 69 3 175 13 200 20 3 1 20 5 38 9 17 4 32 11 32
15 0 5 -30 22 -67 38 -117 52 -228 70 -298 49z"/>
<path d="M6543 8447 c-104 -160 -161 -309 -178 -465 -4 -31 -8 -72 -10 -89 -2
-18 1 -33 6 -33 17 0 99 115 143 200 25 47 54 121 65 164 22 84 38 271 23 280
-5 3 -27 -23 -49 -57z"/>
<path d="M3070 8389 c-36 -86 0 -178 86 -218 36 -17 49 -20 55 -10 13 21 -2
122 -23 161 -18 31 -87 98 -101 98 -3 0 -10 -14 -17 -31z"/>
<path d="M6863 8383 c-52 -49 -74 -93 -78 -158 -4 -70 3 -79 46 -61 94 41 130
115 103 207 -8 27 -18 49 -23 49 -4 0 -26 -17 -48 -37z"/>
<path d="M3750 8328 c0 -47 49 -256 76 -323 30 -77 94 -178 150 -240 l37 -40
-6 75 c-20 228 -89 391 -222 524 -32 32 -35 32 -35 4z"/>
<path d="M3317 8326 c-8 -21 -1 -163 12 -226 19 -94 143 -315 187 -334 11 -4
11 107 1 164 -3 14 -8 43 -12 65 -13 69 -65 187 -118 268 -28 42 -54 77 -58
77 -4 0 -9 -6 -12 -14z"/>
<path d="M1513 8322 c-13 -2 -23 -4 -23 -5 0 -1 7 -40 15 -87 48 -273 140
-404 325 -466 62 -20 242 -26 259 -9 14 14 -40 219 -80 304 -81 175 -206 250
-439 264 -19 1 -45 1 -57 -1z"/>
<path d="M8360 8318 c-170 -19 -292 -101 -362 -243 -43 -86 -107 -310 -93
-324 4 -3 50 -5 103 -5 241 1 377 102 451 335 11 35 23 80 27 99 15 91 22 135
20 137 -6 7 -89 8 -146 1z"/>
<path d="M2122 8240 c-24 -5 -23 -6 18 -67 143 -214 387 -306 630 -236 62 17
130 50 130 61 0 9 -107 80 -190 125 -63 35 -214 90 -275 101 -99 18 -270 27
-313 16z"/>
<path d="M7697 8244 c-1 -1 -24 -5 -52 -8 -27 -4 -57 -9 -65 -11 -8 -2 -30 -7
-48 -10 -90 -15 -245 -86 -366 -166 l-78 -52 33 -18 c62 -33 163 -60 239 -64
172 -8 297 41 420 165 41 41 85 94 98 118 l23 42 -28 1 c-43 3 -174 4 -176 3z"/>
<path d="M1130 8081 c0 -29 61 -103 105 -128 40 -23 87 -28 143 -17 31 6 31 7
17 34 -44 86 -114 129 -207 130 -51 0 -58 -2 -58 -19z"/>
<path d="M8715 8081 c-42 -19 -85 -62 -111 -112 -8 -16 -13 -29 -12 -29 73
-13 129 -10 164 8 54 28 114 100 114 137 0 22 -103 20 -155 -4z"/>
<path d="M5949 8002 c-3 -20 -2 -29 4 -23 5 5 7 19 5 32 -3 20 -5 19 -9 -9z"/>
<path d="M4036 7967 c3 -10 9 -15 12 -12 3 3 0 11 -7 18 -10 9 -11 8 -5 -6z"/>
<path d="M6834 7970 c-23 -5 -64 -20 -90 -33 -58 -29 -146 -106 -124 -107 8
-1 24 -3 35 -6 47 -10 120 -11 163 -2 61 13 158 59 202 96 l35 30 -40 11 c-56
16 -133 21 -181 11z"/>
<path d="M2935 7903 c-48 -9 -105 -26 -105 -31 0 -9 34 -32 90 -61 53 -27 347
-107 358 -97 10 11 -21 66 -59 106 -22 23 -60 50 -85 61 -42 19 -153 31 -199
22z"/>
<path d="M1252 7789 c-85 -21 -157 -51 -237 -98 -60 -35 -60 -35 -30 -41 17
-3 71 -5 120 -4 116 3 189 10 300 29 17 3 91 8 165 11 74 4 136 8 138 9 10 9
-125 77 -188 95 -89 24 -169 24 -268 -1z"/>
<path d="M8550 7807 c-3 -3 -21 -7 -40 -10 -57 -8 -150 -48 -200 -87 l-25 -20
80 -1 c44 0 98 -2 120 -4 54 -5 169 -18 175 -20 47 -14 320 -25 360 -15 23 6
21 9 -35 41 -74 43 -178 85 -253 103 -58 13 -173 21 -182 13z"/>
<path d="M2492 7740 c-176 -72 -309 -176 -376 -296 -24 -43 -66 -154 -66 -175
0 -8 236 175 260 202 3 3 14 12 26 20 58 39 192 176 246 252 18 26 18 27 1 27
-10 0 -51 -14 -91 -30z"/>
<path d="M7429 7727 c18 -25 64 -76 101 -114 76 -77 420 -359 420 -344 0 6
-10 39 -23 74 -50 137 -122 226 -246 306 -79 50 -193 103 -251 116 l-33 7 32
-45z"/>
<path d="M7331 7706 c-13 -14 -62 -53 -110 -86 -97 -70 -231 -186 -231 -202 0
-7 28 -9 83 -6 130 7 217 61 264 164 18 39 23 67 21 104 l-3 52 -24 -26z"/>
<path d="M2658 7652 c-10 -36 2 -104 25 -150 45 -92 151 -152 266 -152 37 0
71 3 74 6 10 10 -75 85 -220 195 -72 54 -133 105 -135 111 -3 7 -7 2 -10 -10z"/>
<path d="M6725 7561 c-56 -14 -106 -44 -158 -95 -61 -59 -127 -139 -127 -153
0 -16 123 4 174 28 48 22 141 111 197 187 l31 42 -44 -1 c-23 -1 -56 -4 -73
-8z"/>
<path d="M1407 7464 c-1 -1 -38 -4 -82 -8 -87 -7 -89 -7 -250 -37 -143 -26
-376 -90 -369 -100 8 -14 127 -66 211 -92 278 -88 606 -56 965 95 43 18 78 36
78 40 0 12 -194 69 -280 82 -83 12 -266 25 -273 20z"/>
<path d="M8527 7464 c-1 -1 -41 -4 -90 -8 -71 -5 -149 -19 -282 -50 -41 -9
-115 -39 -115 -46 0 -12 257 -110 326 -125 10 -2 48 -10 84 -19 238 -56 410
-53 624 9 83 24 211 78 220 94 5 8 -20 17 -129 46 -66 17 -213 51 -260 59 -16
3 -41 8 -55 11 -70 14 -313 36 -323 29z"/>
<path d="M6901 7279 c-68 -13 -134 -37 -195 -70 -68 -37 -74 -45 -38 -53 15
-4 156 -50 314 -102 159 -52 300 -97 314 -100 14 -3 54 -11 88 -19 33 -7 84
-16 111 -19 28 -4 68 -9 90 -11 99 -12 125 -13 125 -5 0 15 -76 104 -135 158
-170 156 -349 232 -540 231 -49 -1 -110 -5 -134 -10z"/>
<path d="M855 7019 c-55 -9 -131 -20 -170 -24 -101 -10 -106 -17 -38 -52 120
-64 221 -71 423 -28 69 15 139 29 155 32 49 8 49 19 -2 41 -115 49 -217 58
-368 31z"/>
<path d="M8894 7025 c-72 -15 -164 -53 -164 -68 0 -6 3 -8 6 -5 3 3 29 0 57
-8 29 -7 70 -16 92 -20 22 -3 42 -7 45 -9 3 -2 23 -6 45 -9 22 -4 65 -10 94
-15 30 -5 69 -7 85 -5 17 2 49 7 71 10 55 7 193 74 174 84 -8 4 -41 10 -74 13
-33 4 -69 8 -80 11 -11 2 -41 6 -66 10 -25 4 -59 9 -75 12 -61 11 -151 11
-210 -1z"/>
<path d="M6324 7019 c-10 -16 205 -111 372 -165 97 -30 207 -68 245 -84 38
-15 69 -23 69 -17 0 23 -85 121 -141 162 -108 79 -241 115 -427 113 -62 -1
-115 -5 -118 -9z"/>
<path d="M1890 6994 c-194 -41 -317 -96 -407 -181 l-58 -54 85 5 c138 9 230
35 310 86 48 31 121 105 141 143 11 20 14 20 -71 1z"/>
<path d="M8041 6987 c7 -12 37 -47 68 -78 90 -90 202 -133 375 -145 l91 -6
-35 37 c-93 97 -248 165 -478 208 -31 6 -32 6 -21 -16z"/>
<path d="M3655 6870 c-8 -14 19 -80 47 -114 45 -55 130 -71 208 -40 22 9 40
18 40 20 0 8 -55 57 -88 78 -54 35 -196 73 -207 56z"/>
<path d="M717 6775 c-155 -39 -303 -147 -400 -290 -41 -60 -107 -198 -107
-224 0 -11 19 -12 103 -7 56 3 111 8 122 10 11 2 42 7 70 11 75 11 211 52 275
84 81 40 178 105 301 200 57 45 113 88 123 95 25 16 15 31 -42 60 -132 67
-320 93 -445 61z"/>
<path d="M9037 6783 c-3 -2 -17 -6 -31 -9 -72 -13 -201 -69 -225 -98 -11 -13
-11 -16 -1 -16 7 0 43 -24 79 -54 173 -140 329 -240 440 -280 63 -23 241 -63
281 -64 8 0 59 -4 113 -8 79 -5 97 -4 97 7 0 29 -69 170 -113 231 -106 149
-256 252 -416 287 -42 9 -216 12 -224 4z"/>
<path d="M2310 6759 c-101 -17 -170 -23 -262 -24 -93 0 -96 -1 -80 -19 9 -10
35 -29 57 -42 133 -78 280 -80 463 -7 64 25 172 87 172 98 0 8 -297 3 -350 -6z"/>
<path d="M7347 6764 c-18 -18 144 -98 263 -130 153 -40 309 -14 405 69 l37 32
-94 0 c-101 1 -218 11 -264 24 -39 10 -337 15 -347 5z"/>
<path d="M1620 6673 c-73 -10 -213 -49 -277 -79 -78 -35 -211 -124 -252 -168
l-24 -26 25 0 c47 0 188 31 279 60 137 45 308 132 384 195 l30 25 -70 -2 c-38
-1 -81 -3 -95 -5z"/>
<path d="M8245 6655 c116 -99 366 -205 568 -241 125 -22 130 -20 77 28 -156
141 -350 220 -575 233 l-100 6 30 -26z"/>
<path d="M6667 6658 c-66 -12 -160 -55 -155 -70 7 -22 85 -59 137 -65 54 -6
118 12 156 45 26 22 69 82 63 88 -10 9 -154 11 -201 2z"/>
<path d="M2731 6615 c-151 -42 -273 -162 -335 -326 -26 -71 -47 -167 -37 -173
11 -7 194 70 261 110 77 46 187 152 293 284 66 81 75 95 60 104 -30 16 -184
17 -242 1z"/>
<path d="M7052 6620 c-18 -4 -35 -10 -38 -13 -6 -6 127 -168 210 -256 83 -86
180 -149 309 -200 108 -43 110 -42 103 20 -8 60 -55 183 -91 237 -46 68 -128
142 -189 172 -93 46 -214 61 -304 40z"/>
<path d="M3440 6579 c-277 -69 -498 -309 -586 -634 -13 -49 -27 -124 -30 -165
l-6 -75 28 26 c16 14 54 48 84 75 117 104 266 264 364 389 128 165 202 252
285 338 l66 67 -66 -1 c-35 -1 -98 -10 -139 -20z"/>
<path d="M2007 6544 c-1 -1 -26 -4 -55 -8 -273 -32 -493 -119 -697 -275 -101
-77 -295 -282 -295 -311 0 -12 191 26 302 60 123 38 267 101 366 159 135 79
365 266 427 346 l23 31 -35 -1 c-19 0 -35 -1 -36 -1z"/>
<path d="M7930 6540 c0 -29 224 -229 356 -317 188 -128 489 -244 689 -268 27
-4 52 -8 57 -11 20 -13 4 19 -34 68 -99 126 -271 273 -413 355 -146 84 -372
155 -540 168 -38 3 -80 8 -92 11 -13 2 -23 0 -23 -6z"/>
<path d="M6114 6268 c39 -397 175 -611 481 -754 73 -34 94 -40 96 -26 0 4 2
16 5 27 2 11 4 61 4 110 1 234 -79 422 -233 546 -84 68 -220 130 -318 144
l-40 6 5 -53z"/>
<path d="M3715 6271 c-66 -22 -115 -44 -115 -52 0 -12 37 -39 75 -55 79 -33
171 -17 233 40 21 18 52 66 52 80 0 13 -200 3 -245 -13z"/>
<path d="M887 6214 c-1 -1 -32 -5 -69 -8 -128 -13 -270 -65 -388 -143 -74 -48
-157 -118 -150 -126 5 -5 37 0 140 18 95 16 245 68 355 123 74 36 199 114 208
129 4 7 -88 14 -96 7z"/>
<path d="M9021 6204 c52 -63 375 -214 513 -240 123 -23 172 -30 180 -26 24 13
-149 137 -268 192 -115 53 -214 77 -359 84 -66 4 -76 2 -66 -10z"/>
<path d="M4130 6139 c-148 -155 -241 -357 -256 -559 l-6 -75 31 35 c71 81 163
232 212 353 34 81 94 296 85 304 -3 3 -33 -23 -66 -58z"/>
<path d="M5795 6171 c-25 -114 34 -330 119 -436 l24 -30 11 43 c13 45 15 157
6 207 -9 46 -48 125 -91 182 -48 64 -61 70 -69 34z"/>
<path d="M6874 6058 c8 -114 54 -201 136 -257 45 -30 134 -60 145 -49 9 8 -38
99 -93 181 -43 64 -162 187 -182 187 -5 0 -8 -27 -6 -62z"/>
<path d="M2635 6066 c-184 -124 -236 -373 -134 -638 17 -44 34 -77 37 -73 6 6
7 8 16 75 4 25 9 63 12 85 3 22 7 51 9 65 2 14 6 57 10 95 7 82 14 138 21 180
8 44 53 185 70 217 8 15 13 28 12 28 -2 0 -26 -15 -53 -34z"/>
<path d="M7331 6051 c31 -64 68 -205 74 -283 3 -40 8 -89 11 -108 3 -19 7 -57
9 -85 8 -80 27 -199 35 -214 9 -16 64 120 77 189 4 25 8 95 7 155 -1 124 -17
177 -79 264 -35 48 -121 121 -143 121 -6 0 -2 -18 9 -39z"/>
<path d="M2010 6029 c-273 -130 -492 -210 -792 -288 -132 -35 -242 -73 -308
-106 -52 -27 -155 -101 -125 -90 42 15 253 54 330 60 71 6 185 22 285 40 56
10 175 52 253 89 62 30 212 119 227 136 3 3 30 24 60 47 50 38 171 153 160
153 -3 0 -43 -19 -90 -41z"/>
<path d="M7940 6025 c135 -140 345 -276 520 -338 116 -41 226 -62 425 -82 80
-8 180 -24 235 -36 25 -6 52 -12 60 -14 8 -2 24 -6 35 -10 30 -11 -73 63 -125
90 -46 23 -203 81 -243 89 -56 12 -293 78 -364 102 -101 34 -242 90 -373 149
-58 26 -130 58 -160 72 l-55 25 45 -47z"/>
<path d="M3522 5996 c-213 -80 -309 -252 -258 -467 18 -79 61 -179 76 -179 19
0 126 58 175 95 68 52 102 92 132 154 36 72 42 192 18 326 l-17 95 -31 -1
c-18 0 -60 -11 -95 -23z"/>
<path d="M458 5836 c-37 -12 -92 -39 -122 -60 -66 -46 -141 -125 -130 -136 16
-16 119 -29 204 -26 139 4 267 59 375 161 l40 38 -60 20 c-34 11 -99 20 -150
23 -74 3 -102 -1 -157 -20z"/>
<path d="M9275 5845 c-27 -7 -61 -18 -75 -23 l-24 -9 47 -44 c104 -99 224
-150 362 -154 89 -3 192 9 208 25 24 22 -137 155 -231 191 -71 27 -214 34
-287 14z"/>
<path d="M2075 5712 c-92 -10 -447 -124 -523 -168 -85 -49 -189 -133 -263
-212 -83 -89 -143 -168 -132 -175 5 -3 40 -10 80 -17 108 -18 283 -16 373 3 8
2 31 7 50 11 19 4 44 11 55 16 11 4 51 21 89 36 134 55 241 161 323 319 25 50
57 107 70 129 14 21 21 42 16 46 -9 9 -95 17 -138 12z"/>
<path d="M7830 5712 c-42 -4 -57 -16 -43 -34 6 -7 34 -58 63 -113 29 -55 67
-120 84 -145 40 -59 127 -144 179 -174 54 -32 185 -83 243 -96 135 -30 342
-30 455 0 l40 11 -32 44 c-51 71 -164 189 -232 243 -102 80 -180 121 -319 168
-244 82 -347 104 -438 96z"/>
<path d="M2909 5515 c-108 -40 -176 -88 -223 -159 -28 -42 -76 -156 -76 -180
0 -10 128 2 167 15 60 19 109 55 141 101 38 57 48 90 51 171 3 74 1 75 -60 52z"/>
<path d="M7030 5471 c0 -70 22 -142 57 -189 49 -65 151 -109 248 -108 46 1 50
3 48 24 -6 48 -71 170 -114 212 -42 41 -153 102 -211 116 l-28 6 0 -61z"/>
<path d="M9490 5504 c-36 -6 -91 -24 -124 -40 l-58 -27 34 -18 c115 -59 284
-58 418 3 39 18 42 22 27 33 -25 18 -144 54 -192 58 -22 2 -69 -2 -105 -9z"/>
<path d="M281 5484 c-89 -31 -94 -40 -39 -63 131 -58 277 -61 402 -8 l48 20
-43 23 c-114 60 -252 70 -368 28z"/>
<path d="M1060 5392 c-60 -5 -203 -32 -255 -49 -108 -34 -338 -174 -319 -193
19 -18 126 -37 216 -39 149 -3 267 43 371 144 45 44 97 113 97 129 0 11 -37
14 -110 8z"/>
<path d="M8830 5385 c0 -16 60 -98 102 -138 89 -86 221 -137 357 -137 47 -1
95 1 106 4 68 15 116 30 120 37 7 11 -102 88 -195 137 -75 41 -185 78 -250 86
-19 2 -57 7 -85 10 -123 15 -155 15 -155 1z"/>
<path d="M233 5202 c-34 -18 -83 -77 -83 -98 0 -14 17 -21 74 -30 58 -9 121
19 157 69 l30 41 -27 14 c-43 22 -114 25 -151 4z"/>
<path d="M9635 5206 c-44 -14 -46 -23 -14 -68 29 -41 85 -66 139 -63 71 3 92
13 84 38 -26 84 -114 123 -209 93z"/>
<path d="M2630 4355 c-7 -9 -11 -17 -9 -20 3 -2 10 5 17 15 14 24 10 26 -8 5z"/>
<path d="M7361 4353 c7 -12 15 -20 18 -17 3 2 -3 12 -13 22 -17 16 -18 16 -5
-5z"/>
<path d="M7476 4207 c3 -10 9 -15 12 -12 3 3 0 11 -7 18 -10 9 -11 8 -5 -6z"/>
<path d="M4071 3324 c0 -11 3 -14 6 -6 3 7 2 16 -1 19 -3 4 -6 -2 -5 -13z"/>
<path d="M5921 3314 c0 -11 3 -14 6 -6 3 7 2 16 -1 19 -3 4 -6 -2 -5 -13z"/>
<path d="M1069 3198 c-139 -182 -164 -218 -197 -286 -28 -60 -36 -89 -39 -150
l-4 -77 24 55 c13 30 45 84 71 120 111 153 144 209 175 306 17 53 30 99 28
100 -2 2 -28 -29 -58 -68z"/>
<path d="M8871 3267 c-1 -15 51 -172 69 -207 10 -20 54 -86 99 -148 70 -97
102 -152 124 -212 3 -8 6 11 6 42 1 63 -28 155 -72 231 -15 25 -65 93 -111
152 -46 58 -91 115 -99 128 -9 12 -16 18 -16 14z"/>
<path d="M5132 2670 c0 -14 2 -19 5 -12 2 6 2 18 0 25 -3 6 -5 1 -5 -13z"/>
<path d="M1631 1964 c0 -11 3 -14 6 -6 3 7 2 16 -1 19 -3 4 -6 -2 -5 -13z"/>
<path d="M7180 1927 c0 -4 10 -27 21 -50 12 -23 30 -64 40 -92 10 -27 18 -43
18 -34 1 9 -5 34 -13 55 -14 41 -66 135 -66 121z"/>
<path d="M2771 1846 c-17 -35 -31 -72 -31 -82 0 -11 16 17 35 60 19 44 33 81
31 83 -2 2 -17 -25 -35 -61z"/>
<path d="M7061 1894 c0 -11 3 -14 6 -6 3 7 2 16 -1 19 -3 4 -6 -2 -5 -13z"/>
<path d="M4071 1364 c0 -11 3 -14 6 -6 3 7 2 16 -1 19 -3 4 -6 -2 -5 -13z"/>
<path d="M2452 1150 c0 -19 2 -27 5 -17 2 9 2 25 0 35 -3 9 -5 1 -5 -18z"/>
<path d="M7538 1117 c-3 -19 -2 -25 4 -19 6 6 8 18 6 28 -3 14 -5 12 -10 -9z"/>
<path d="M5076 1038 c10 -73 50 -140 149 -253 147 -167 205 -262 283 -465 22
-58 43 -112 46 -120 7 -16 0 59 -9 100 -3 14 -8 40 -11 59 -10 62 -46 164 -79
231 -38 76 -85 137 -174 230 -93 96 -159 176 -181 221 -11 21 -23 39 -25 39
-3 0 -3 -19 1 -42z"/>
</g>
</svg>
